<mxfile host="Electron" agent="Mozilla/5.0 (Windows NT 10.0; Win64; x64) AppleWebKit/537.36 (KHTML, like Gecko) draw.io/25.0.1 Chrome/128.0.6613.186 Electron/32.2.6 Safari/537.36" version="25.0.1">
  <diagram id="WI9T0HZ2pTsCkuznbFz-" name="Page-1">
    <mxGraphModel dx="3514" dy="2084" grid="0" gridSize="10" guides="1" tooltips="1" connect="1" arrows="1" fold="1" page="0" pageScale="1" pageWidth="1169" pageHeight="827" math="0" shadow="0">
      <root>
        <mxCell id="0" />
        <mxCell id="1" parent="0" />
        <mxCell id="1fuZ47LUaq4kGTlMKida-7" value="" style="edgeStyle=orthogonalEdgeStyle;rounded=0;orthogonalLoop=1;jettySize=auto;html=1;strokeColor=#0000FF;" parent="1" source="1fuZ47LUaq4kGTlMKida-13" target="A0nYaDOjtjgqWgvlFO7J-14" edge="1">
          <mxGeometry relative="1" as="geometry">
            <mxPoint x="238.5" y="-671" as="sourcePoint" />
            <mxPoint x="238" y="-592" as="targetPoint" />
            <Array as="points">
              <mxPoint x="618" y="-797" />
            </Array>
          </mxGeometry>
        </mxCell>
        <mxCell id="ZLGVQ2rk_Wr_WkTqdJoq-90" value="" style="rounded=0;whiteSpace=wrap;html=1;" parent="1" vertex="1">
          <mxGeometry x="-262.89" y="-850.5" width="144" height="111.5" as="geometry" />
        </mxCell>
        <mxCell id="VHQm3ld0HByzxrR_ddXe-34" value="" style="edgeStyle=orthogonalEdgeStyle;rounded=0;orthogonalLoop=1;jettySize=auto;html=1;strokeColor=#009900;" parent="1" source="k0CTzh7-vUOgCoUulJSG-58" target="DGLbuV7ov17MJnyu4-wi-1" edge="1">
          <mxGeometry relative="1" as="geometry">
            <mxPoint x="-21" y="292" as="targetPoint" />
            <Array as="points">
              <mxPoint x="-411" y="480" />
            </Array>
          </mxGeometry>
        </mxCell>
        <mxCell id="1fuZ47LUaq4kGTlMKida-9" value="" style="edgeStyle=orthogonalEdgeStyle;rounded=0;orthogonalLoop=1;jettySize=auto;html=1;strokeColor=#0000FF;" parent="1" source="k0CTzh7-vUOgCoUulJSG-58" target="1fuZ47LUaq4kGTlMKida-13" edge="1">
          <mxGeometry relative="1" as="geometry">
            <mxPoint x="203" y="-743" as="targetPoint" />
            <Array as="points">
              <mxPoint x="-38" y="-777" />
            </Array>
          </mxGeometry>
        </mxCell>
        <mxCell id="o8NhPEG-I7pwkK3t7siS-24" value="" style="edgeStyle=orthogonalEdgeStyle;rounded=0;orthogonalLoop=1;jettySize=auto;html=1;strokeColor=#FF8000;" parent="1" source="k0CTzh7-vUOgCoUulJSG-58" target="o8NhPEG-I7pwkK3t7siS-14" edge="1">
          <mxGeometry relative="1" as="geometry">
            <mxPoint x="354" y="-331.5" as="targetPoint" />
            <Array as="points">
              <mxPoint x="156" y="-621" />
            </Array>
          </mxGeometry>
        </mxCell>
        <mxCell id="k0CTzh7-vUOgCoUulJSG-58" value="" style="rounded=0;whiteSpace=wrap;html=1;" parent="1" vertex="1">
          <mxGeometry x="-550" y="-590" width="824" height="517" as="geometry" />
        </mxCell>
        <mxCell id="x5Qx7wWfgq4q1o_DWIzA-21" value="" style="edgeStyle=orthogonalEdgeStyle;rounded=0;orthogonalLoop=1;jettySize=auto;html=1;strokeColor=#007FFF;" parent="1" source="1fuZ47LUaq4kGTlMKida-20" target="x5Qx7wWfgq4q1o_DWIzA-1" edge="1">
          <mxGeometry relative="1" as="geometry">
            <Array as="points">
              <mxPoint x="-506" y="-723" />
              <mxPoint x="-506" y="-723" />
            </Array>
            <mxPoint x="-382" y="-722.4285714285713" as="targetPoint" />
            <mxPoint x="-500" y="-718" as="sourcePoint" />
          </mxGeometry>
        </mxCell>
        <mxCell id="N_ae5W9qRV80UMjD5rNb-32" value="" style="edgeStyle=orthogonalEdgeStyle;rounded=0;orthogonalLoop=1;jettySize=auto;html=1;strokeColor=#007FFF;" parent="1" source="x5Qx7wWfgq4q1o_DWIzA-1" target="k0CTzh7-vUOgCoUulJSG-58" edge="1">
          <mxGeometry relative="1" as="geometry">
            <Array as="points">
              <mxPoint x="-506" y="-682" />
              <mxPoint x="-506" y="-682" />
            </Array>
            <mxPoint x="562" y="-559" as="sourcePoint" />
            <mxPoint x="608.9999999999991" y="-512" as="targetPoint" />
          </mxGeometry>
        </mxCell>
        <mxCell id="x5Qx7wWfgq4q1o_DWIzA-1" value="" style="shape=image;verticalLabelPosition=bottom;labelBackgroundColor=default;verticalAlign=top;aspect=fixed;imageAspect=0;image=https://cdn.freebiesupply.com/logos/large/2x/git-icon-logo-png-transparent.png;fillColor=default;" parent="1" vertex="1">
          <mxGeometry x="-524" y="-685" width="36" height="36" as="geometry" />
        </mxCell>
        <mxCell id="KN40ahXa2vFHUUqI6EMj-15" value="" style="edgeStyle=orthogonalEdgeStyle;rounded=0;orthogonalLoop=1;jettySize=auto;html=1;strokeColor=#FF3333;" parent="1" source="ZLGVQ2rk_Wr_WkTqdJoq-13" target="1fuZ47LUaq4kGTlMKida-20" edge="1">
          <mxGeometry relative="1" as="geometry">
            <mxPoint x="792" y="-1127" as="targetPoint" />
            <Array as="points">
              <mxPoint x="-304" y="-918" />
              <mxPoint x="-304" y="-918" />
            </Array>
          </mxGeometry>
        </mxCell>
        <mxCell id="ZLGVQ2rk_Wr_WkTqdJoq-13" value="" style="shape=image;verticalLabelPosition=bottom;labelBackgroundColor=default;verticalAlign=top;aspect=fixed;imageAspect=0;image=https://cdn.freelogovectors.net/wp-content/uploads/2019/09/zabbix-logo.png;" parent="1" vertex="1">
          <mxGeometry x="-222.48000000000002" y="-925.9999999999999" width="63" height="16.54" as="geometry" />
        </mxCell>
        <mxCell id="ZLGVQ2rk_Wr_WkTqdJoq-98" value="" style="shape=image;verticalLabelPosition=bottom;labelBackgroundColor=default;verticalAlign=top;aspect=fixed;imageAspect=0;image=https://sigops.org/s/conferences/hotos/2021/img/vmware.jpeg;" parent="1" vertex="1">
          <mxGeometry x="-238.89" y="-829.5" width="103.51" height="18" as="geometry" />
        </mxCell>
        <mxCell id="hKqQR7SNl7emJNjIKAzz-3" value="" style="edgeStyle=orthogonalEdgeStyle;rounded=0;orthogonalLoop=1;jettySize=auto;html=1;strokeColor=#009900;" parent="1" source="1fuZ47LUaq4kGTlMKida-13" target="ZLGVQ2rk_Wr_WkTqdJoq-90" edge="1">
          <mxGeometry relative="1" as="geometry">
            <Array as="points">
              <mxPoint x="22" y="-802" />
              <mxPoint x="22" y="-802" />
            </Array>
            <mxPoint x="274" y="-744" as="sourcePoint" />
          </mxGeometry>
        </mxCell>
        <mxCell id="N_ae5W9qRV80UMjD5rNb-125" value="" style="shape=image;verticalLabelPosition=bottom;labelBackgroundColor=default;verticalAlign=top;aspect=fixed;imageAspect=0;image=https://static-00.iconduck.com/assets.00/harbor-icon-2034x2048-hl34ycc9.png;clipPath=inset(0% 0% 0% 0.34% round 49%);" parent="1" vertex="1">
          <mxGeometry x="-174.48000000000002" y="-788.23" width="29.7" height="30" as="geometry" />
        </mxCell>
        <mxCell id="8N1gZI2geE5Co_WE50Yg-55" value="" style="edgeStyle=orthogonalEdgeStyle;rounded=0;orthogonalLoop=1;jettySize=auto;html=1;strokeColor=#6600CC;" parent="1" source="A0nYaDOjtjgqWgvlFO7J-40" target="1fuZ47LUaq4kGTlMKida-20" edge="1">
          <mxGeometry relative="1" as="geometry">
            <mxPoint x="-268" y="-887" as="targetPoint" />
            <Array as="points">
              <mxPoint x="-897" y="-4" />
              <mxPoint x="-897" y="-831" />
            </Array>
            <mxPoint x="375" y="-6.947368421052488" as="sourcePoint" />
          </mxGeometry>
        </mxCell>
        <mxCell id="M3g-iL46mZoVw6gJNN7h-11" value="" style="edgeStyle=orthogonalEdgeStyle;rounded=0;orthogonalLoop=1;jettySize=auto;html=1;exitX=0.5;exitY=1;exitDx=0;exitDy=0;strokeColor=#FF0000;" parent="1" edge="1">
          <mxGeometry relative="1" as="geometry">
            <mxPoint x="-889.5" y="-12" as="sourcePoint" />
            <Array as="points">
              <mxPoint x="-890" y="7" />
              <mxPoint x="-1274" y="7" />
              <mxPoint x="-1274" y="-85" />
            </Array>
          </mxGeometry>
        </mxCell>
        <mxCell id="M3g-iL46mZoVw6gJNN7h-13" value="" style="edgeStyle=orthogonalEdgeStyle;rounded=0;orthogonalLoop=1;jettySize=auto;html=1;strokeColor=#009900;" parent="1" edge="1">
          <mxGeometry relative="1" as="geometry">
            <Array as="points">
              <mxPoint x="-1112" y="-109" />
              <mxPoint x="-1300" y="-109" />
              <mxPoint x="-1300" y="25" />
              <mxPoint x="-788" y="25" />
            </Array>
            <mxPoint x="-788" y="-60.17000000000007" as="targetPoint" />
          </mxGeometry>
        </mxCell>
        <mxCell id="A0nYaDOjtjgqWgvlFO7J-14" value="" style="rounded=0;whiteSpace=wrap;html=1;fillColor=#CCE5FF;" parent="1" vertex="1">
          <mxGeometry x="312" y="-589" width="306" height="513" as="geometry" />
        </mxCell>
        <mxCell id="A0nYaDOjtjgqWgvlFO7J-16" value="&lt;b&gt;Container&lt;/b&gt;" style="image;sketch=0;aspect=fixed;html=1;points=[];align=center;fontSize=12;image=img/lib/mscae/Docker.svg;clipPath=inset(0% 0% 30.95% 0%);" parent="1" vertex="1">
          <mxGeometry x="344" y="-565" width="29.31" height="17" as="geometry" />
        </mxCell>
        <mxCell id="jJeJy1seHARlF9KhycA6-19" value="" style="edgeStyle=orthogonalEdgeStyle;rounded=0;orthogonalLoop=1;jettySize=auto;html=1;strokeColor=#009900;" parent="1" source="A0nYaDOjtjgqWgvlFO7J-26" target="jJeJy1seHARlF9KhycA6-9" edge="1">
          <mxGeometry relative="1" as="geometry">
            <mxPoint x="669" y="-434.4999999999998" as="targetPoint" />
            <Array as="points">
              <mxPoint x="586" y="-413" />
              <mxPoint x="586" y="-413" />
            </Array>
            <mxPoint x="587.4599999999996" y="-434.46153846153857" as="sourcePoint" />
          </mxGeometry>
        </mxCell>
        <mxCell id="A0nYaDOjtjgqWgvlFO7J-18" value="" style="edgeStyle=orthogonalEdgeStyle;rounded=0;orthogonalLoop=1;jettySize=auto;html=1;strokeColor=#6600CC;" parent="1" source="A0nYaDOjtjgqWgvlFO7J-48" target="A0nYaDOjtjgqWgvlFO7J-20" edge="1">
          <mxGeometry relative="1" as="geometry">
            <Array as="points" />
            <mxPoint x="366.2857142857142" y="-516.4099999999999" as="sourcePoint" />
            <mxPoint x="277.90943999999945" y="-382.2399999999998" as="targetPoint" />
          </mxGeometry>
        </mxCell>
        <mxCell id="A0nYaDOjtjgqWgvlFO7J-19" value="" style="edgeStyle=orthogonalEdgeStyle;rounded=0;orthogonalLoop=1;jettySize=auto;html=1;strokeColor=#009900;" parent="1" source="A0nYaDOjtjgqWgvlFO7J-20" edge="1">
          <mxGeometry relative="1" as="geometry">
            <mxPoint x="471.0434782608695" y="-481" as="targetPoint" />
            <Array as="points">
              <mxPoint x="471" y="-511" />
              <mxPoint x="471" y="-511" />
            </Array>
            <mxPoint x="351.14000000000124" y="-345" as="sourcePoint" />
          </mxGeometry>
        </mxCell>
        <mxCell id="A0nYaDOjtjgqWgvlFO7J-20" value="" style="shape=image;verticalLabelPosition=bottom;labelBackgroundColor=default;verticalAlign=top;aspect=fixed;imageAspect=0;image=https://logos-download.com/wp-content/uploads/2016/02/Ubuntu.png;clipPath=inset(2.67% 2.67% 3.33% 3% round 49%);" parent="1" vertex="1">
          <mxGeometry x="460" y="-563" width="22.08" height="22" as="geometry" />
        </mxCell>
        <mxCell id="A0nYaDOjtjgqWgvlFO7J-24" value="" style="shape=image;verticalLabelPosition=bottom;labelBackgroundColor=default;verticalAlign=top;aspect=fixed;imageAspect=0;image=https://servervds.com/mag/wp-content/uploads/2020/09/apache.jpg;clipPath=inset(6.67% 6.67% 31.67% 6.33%);" parent="1" vertex="1">
          <mxGeometry x="536" y="-559.88" width="52.7" height="22.41" as="geometry" />
        </mxCell>
        <mxCell id="A0nYaDOjtjgqWgvlFO7J-26" value="" style="rounded=0;whiteSpace=wrap;html=1;fillColor=#FFFFFF;" parent="1" vertex="1">
          <mxGeometry x="395" y="-481" width="140" height="290" as="geometry" />
        </mxCell>
        <mxCell id="A0nYaDOjtjgqWgvlFO7J-28" value="" style="shape=image;verticalLabelPosition=bottom;labelBackgroundColor=default;verticalAlign=top;aspect=fixed;imageAspect=0;image=https://logodownload.org/wp-content/uploads/2018/03/nginx-logo-1.png;" parent="1" vertex="1">
          <mxGeometry x="457" y="-464" width="28.57" height="32.78" as="geometry" />
        </mxCell>
        <mxCell id="A0nYaDOjtjgqWgvlFO7J-39" value="" style="edgeStyle=orthogonalEdgeStyle;rounded=0;orthogonalLoop=1;jettySize=auto;html=1;strokeColor=#009900;" parent="1" source="A0nYaDOjtjgqWgvlFO7J-26" target="A0nYaDOjtjgqWgvlFO7J-40" edge="1">
          <mxGeometry relative="1" as="geometry">
            <mxPoint x="725" y="-471" as="sourcePoint" />
            <mxPoint x="1198" y="-471" as="targetPoint" />
            <Array as="points">
              <mxPoint x="470" y="-324.5" />
              <mxPoint x="470" y="-73.50000000000023" />
            </Array>
          </mxGeometry>
        </mxCell>
        <mxCell id="A0nYaDOjtjgqWgvlFO7J-40" value="" style="shape=image;verticalLabelPosition=bottom;labelBackgroundColor=default;verticalAlign=top;aspect=fixed;imageAspect=0;image=https://res.cloudinary.com/lumigo-production/w_190,h_190,c_fit/dpr_auto,w_auto,q_auto:eco/wp-website/2024/01/zipkin-logo.png;" parent="1" vertex="1">
          <mxGeometry x="446" y="-38.00000000000003" width="49" height="49" as="geometry" />
        </mxCell>
        <mxCell id="A0nYaDOjtjgqWgvlFO7J-42" value="" style="shape=image;verticalLabelPosition=bottom;labelBackgroundColor=default;verticalAlign=top;aspect=fixed;imageAspect=0;image=https://iexcel-technologies.com/wp-content/uploads/2023/07/Jmeter.jpg;clipPath=inset(13.33% 11.67% 13.33% 14%);" parent="1" vertex="1">
          <mxGeometry x="554.48" y="-473" width="28.5" height="28.12" as="geometry" />
        </mxCell>
        <mxCell id="A0nYaDOjtjgqWgvlFO7J-48" value="" style="shape=image;verticalLabelPosition=bottom;labelBackgroundColor=default;verticalAlign=top;aspect=fixed;imageAspect=0;image=https://www.docker.com/wp-content/uploads/2023/10/home-hero-scout.png;clipPath=inset(5.91% 10% 7.35% 10.33%);" parent="1" vertex="1">
          <mxGeometry x="407" y="-565" width="26.52" height="26.85" as="geometry" />
        </mxCell>
        <mxCell id="A0nYaDOjtjgqWgvlFO7J-74" value="" style="rounded=0;whiteSpace=wrap;html=1;" parent="1" vertex="1">
          <mxGeometry x="669.39" y="-178" width="170" height="67" as="geometry" />
        </mxCell>
        <mxCell id="A0nYaDOjtjgqWgvlFO7J-75" value="" style="shape=image;verticalLabelPosition=bottom;labelBackgroundColor=default;verticalAlign=top;aspect=fixed;imageAspect=0;image=https://blog.myetv.tv/wp-content/uploads/2021/02/1200px-Grafana_logo.svg-1004x1024.png;fontStyle=1;clipPath=inset(0.33% 13.61% 22.67% 12.93%);" parent="1" vertex="1">
          <mxGeometry x="690.39" y="-157" width="33.66" height="36" as="geometry" />
        </mxCell>
        <mxCell id="A0nYaDOjtjgqWgvlFO7J-76" value="" style="shape=image;verticalLabelPosition=bottom;labelBackgroundColor=default;verticalAlign=top;aspect=fixed;imageAspect=0;image=https://creazilla-store.fra1.digitaloceanspaces.com/icons/3254231/prometheus-icon-md.png;clipPath=inset(0% 0% 0% 0.17% round 49%);" parent="1" vertex="1">
          <mxGeometry x="742.39" y="-155" width="33.83" height="34" as="geometry" />
        </mxCell>
        <mxCell id="A0nYaDOjtjgqWgvlFO7J-77" value="" style="shape=image;verticalLabelPosition=bottom;labelBackgroundColor=default;verticalAlign=top;aspect=fixed;imageAspect=0;image=data:image/png,iVBORw0KGgoAAAANSUhEUgAAACgAAAAzCAYAAADl70o1AAAAAXNSR0IArs4c6QAAAARnQU1BAACxjwv8YQUAAAAJcEhZcwAADsMAAA7DAcdvqGQAAApPSURBVGhDzZhZjJ11Gcbf851tzjbnzNZZ2umUTpkKilpFAVNQQ7jRC72ziRcQExMvBLfIBXEP0RgvJNxUMEYL2siaiEtCjEpKiAIpW0uBbtOh0+l09pmz7/ye7zvjKdNpxLQf039y5jvzbf/n/77P87zv/wSaDFsdjYZZgGPA8f6/AkYbSW7J7MBjZoeeNSvmWic3frQBVktmR18wexaQy3Nm5wV2I0cbYDJjNjRqNv2G2eKU2fhrZjOnzWrV1g0bM9oAg2GzeMKsQvSmj5s9dDcp32+WJ/UbOBxr1M3KRYSBOuJps3DILJE0qy+TaiJZq7Ru3Zjh2MG/m/3lAbOVeS/FPXxOvARoAAqcFrB2uPx8fzjq2BvPmT2z12x2wqxryKx7wOzUfzhejXDgXxbg9Zp3d7lg9uLT3P9Hs/lp75zPw7GRD/IXWxk/6J2JxuHdGbOdnzQrAW7mhKdwiaWYNTvzJgD3saBx736fh+N6XijoAVRKE6i5uWKWgo/ls/jjjBfBh79n9tt7APgW54h2Nd96hb8DgHDNoYLkFz2+bdtlFkMkU4dRNBFrALrJ9Z03Apj/54hcfYHFsLD1+HmZh2OTR0hrP5MCpALHNpPy1CZSeBSgvV6FKQNm6zXcDsCoVD5sNokViZ8+D8fmSdnYzUSpDKiTAMALwxEu8f+WD3lAs+c8bgYAOrjNrBeAbx0wW8DIfR6OlYnQNbcAEE5NIwBZSKzPM+5UN/ZzCnFwj0CnABYBqIO/Z/HIiv88dCyCQGqotEoFKcIt8W3sNoRDKhcBV0EoDa5HOsy2o+wVollUreZcnSjrfh+HY11bMWaaBCNCshNNumM3EZNwiFK402yJowQxMMa5SbM0EY4BeB5KFFG8j8Nx03j2VbN+xJEnMivYSieiCSKYRMqrLBP/NitwrYP0GqofvZ50w9XTLCw3673Jp0GKY0SBSbZ+lMkg/TIfh/SGiVK8iy6nB2t5Hc0ALMq9Efwxgg0F8cYC6a5Sx30cjnVD/ACTGzZTxTZcA6ZxGL6JtKp6ENEKnwapTw+iYpQ9g5gqXAvA3wZAfewdHRvFgBWZc/SB8sIqqW0y6TCCqKJeicEB8Ao8lAX1YDNzmHga7obgbRYRSWQ+DccGMeAoAPJMlCaai1QKGXMKHjaJbN92vtNEnH6eqMmo4WENtY9+ChoQuVnAlpQBf4ZjcUQSxtdkK307iSSCKVH2QqhUkesEXAwlK2plFKsoqnardzT+L9LVSPk+DcdCUdL2Eb4BMgigUmvCDkD1wLcSaa4ROX2a8K6fiGdGMHUthEga9uPWZH946Jg66as/D+HxvSweVyd6agRUMTZdxzlSLtUqmmq/MtAgvRmhvMJ5VK5OR0B9ahy8PcnwDQAkagEi1EHKZ7AVt/XCaspEdDO+F0UQM2ykmgCRNSmiWkAF0MvqcPxJswdQ3YuDvSQB1Ik6J/5JVMRDgBgK7fsAoIjgMo1FDZW7DQU8TBDBGgZelg0RSR+GBzDMhGqhgkRJYslRwuoYcBIlpwBcQOF19X+cUwQ3E/E4aV/CD1XDxU2farIH0CEaQ/hhBbuo8qkzaZ2IprbAOfYmcy8DnkVoVEltP6KKIyLxMwhQqbvKAnwYHkAJZROKrcA3qTfE6aVjTE7L1UEacwDp+xhRgpcr7FGU+hDPaIvaRQOxTM+ofYwPwwOo0haj5qon7L3WE8o0OzuVvRAgm0Stj2bCiFKOFkyVJsI9URYjHy2xmIo/TUMLIENWEsacJYAgkSlgOW79pZJE6WpkyDXS7/IQvg3QhbuNBvepsqgj94GHbYAxItGNWvN0MwFMV0BUm7uxkjh75QV4qEhrE1VH2QM0EzJ2RS7EotTZiMOXebQBRildEkQejqV3cIXJCzQIHaReLVaJ7500CmWAqNqIEmq54myskih9jp5RXL0sQ1XJq0xtgEFKngRRJSJDnyYq3LDUMmbVXm1NBbyMGErYjn7kDPOMzFzRz9MNVQD//w61dDk4PPEbs8Pf4vNt9t6PMI/H6TZA9XbimgMwbZoCKmFESh6XRjiq2TXVZZky6VdT2/1xoivVa3FE1OF4weB98lRRocTi8njs7L/Mjv3c7NWvmr1yh9kRQE3spVH5E9eegk7PAJC5GYF3/QQ896LZoXtpEihtZ/8KAI7XftcTyJGfesoVP6+6nXvwzfzbAJb/QQdFOoWgIgCtUoUK+vVBokI8RYBlD3nR1/81fFNUkejUbPC4O9wjfzLwe9s3mP/mNQBLROe1H/FC+CYPzHyYnRxgwnBwCsAy6xjtl4CEoYNUq2jq/ixVRZUoQ1RXADP1KOdlSWSghl1J6XXKpPHMfwHxRd9XgQVxhRjv7rkVW/sC9BlbA1B8mFdjSiWJQH51KwmEIWOWQgOkVZHKw5kEL1Lqzj4JV4l8CfV30IaNsnJFb+J+7gP06lgF435v/QlnEBhB6NzFXPQDqkpRjh3af2vjFlsDUEMWojInM9alMLzUyqb/BjcOAJQoi8A7f8jLsJ9xgMxwrQ4/E/SKYz9mQTxzEkoso2zx0uF5dyPGgpPYVhLTF12C3BdhnxOB87quORVhYZAIAX0hwAr8Ofdn0oTvVeHKwBepLp+BvP9g0l+QNkiuCFz3IGUOs576Par7Hc+R5gQTb78HUVEWz+wjgkewIbatMbIgMAIeYVHaa4saEp0bEOYpjfM5znfaNwUowS6zd886ANU6vU6altjzitDDqGzkax7h30RtOfglgCPcMwQ/C/jmAqrUJFH8sPc2D5QUK84pakqvfqHQItQV6eflEgKrQIs6ZbQhjhIY/WqmXzEknAzvGfzOhQCboA+8/CVIr8rBpfQnzHaQNnHy5M+8NMSJSCcKT7Pz09N6ub4olSEEFaRkFuBplkUKlK4LYJXFN7VrVNTUvgHM4L3Sque1EA0dEsw78M11IigRHMafcuw5oig2s5uV7PF4kqdhFQip2lHvSKpkpSXUmnuJI9GMQvDMZwEEmKn7OA9IKVlA9G7ZlAtGR551cIsA75IPi4cRthMxlVeEk7xpHYAai4hBHhXG01xFicSQXemQl5VJTVm/0QA+Qs848wfU/zigUG8Kfxz8OkBR9Nvfhyrw2QXDEIigjJ20S7HuYhFJVLYFN3UuJPfgnTpyfX2A6vtUulT2lAZFJcaWtEjaZhFFgT1LgxT1E+muz6HwXwFwPwsglTEajoG7AA+HplDyClVBwgihWgcflWoF3gWgzgmr0XeJaDWS542LA5yAdwVqsYSSoJkdupMUEqHJn3DE3/SybsxUYBafAODDAESZcdLT9xUiifLz+t2biuFGByCu3RCl1ei5YNrVdr1xEYBw5eiX4Q8+JkVpgtFfcx4eTVFDi1IyL04qnXezCBRcFGj4JA5F6bLDGK7LPV6v8wYYVwQtIbzHsT5AjdM/IDIUb71U6Rn5JZPCxWVZCnbgsG+OkKoEnqeIqOwJyJoUXeq4OMACUSqhWq1YYJLs5MQTCUXRC+inEdL8P1J0qePiAK+Q4e/yL3mYvQP/7yXLnTgGlAAAAABJRU5ErkJggg==;" parent="1" vertex="1">
          <mxGeometry x="794.39" y="-154" width="25.88" height="33" as="geometry" />
        </mxCell>
        <mxCell id="A0nYaDOjtjgqWgvlFO7J-78" value="" style="edgeStyle=orthogonalEdgeStyle;rounded=0;orthogonalLoop=1;jettySize=auto;html=1;strokeColor=#6600CC;" parent="1" source="A0nYaDOjtjgqWgvlFO7J-79" target="A0nYaDOjtjgqWgvlFO7J-74" edge="1">
          <mxGeometry relative="1" as="geometry">
            <Array as="points">
              <mxPoint x="758" y="-171" />
              <mxPoint x="758" y="-171" />
            </Array>
          </mxGeometry>
        </mxCell>
        <mxCell id="A0nYaDOjtjgqWgvlFO7J-79" value="" style="rounded=0;whiteSpace=wrap;html=1;" parent="1" vertex="1">
          <mxGeometry x="669" y="-269" width="170" height="62" as="geometry" />
        </mxCell>
        <mxCell id="A0nYaDOjtjgqWgvlFO7J-85" value="" style="edgeStyle=orthogonalEdgeStyle;rounded=0;orthogonalLoop=1;jettySize=auto;html=1;strokeColor=#6600CC;" parent="1" source="A0nYaDOjtjgqWgvlFO7J-79" edge="1">
          <mxGeometry relative="1" as="geometry">
            <mxPoint x="618" y="-248.99999999999977" as="targetPoint" />
            <Array as="points">
              <mxPoint x="650" y="-249" />
              <mxPoint x="650" y="-249" />
            </Array>
            <mxPoint x="762" y="-262" as="sourcePoint" />
          </mxGeometry>
        </mxCell>
        <mxCell id="A0nYaDOjtjgqWgvlFO7J-86" value="" style="edgeStyle=orthogonalEdgeStyle;rounded=0;orthogonalLoop=1;jettySize=auto;html=1;strokeColor=#FF0000;" parent="1" source="A0nYaDOjtjgqWgvlFO7J-14" target="A0nYaDOjtjgqWgvlFO7J-79" edge="1">
          <mxGeometry relative="1" as="geometry">
            <mxPoint x="618" y="-222" as="sourcePoint" />
            <Array as="points">
              <mxPoint x="647" y="-232" />
              <mxPoint x="647" y="-232" />
            </Array>
            <mxPoint x="747" y="-235" as="targetPoint" />
          </mxGeometry>
        </mxCell>
        <mxCell id="A0nYaDOjtjgqWgvlFO7J-87" style="edgeStyle=orthogonalEdgeStyle;rounded=0;orthogonalLoop=1;jettySize=auto;html=1;strokeColor=#6600CC;" parent="1" source="A0nYaDOjtjgqWgvlFO7J-74" target="A0nYaDOjtjgqWgvlFO7J-14" edge="1">
          <mxGeometry relative="1" as="geometry">
            <mxPoint x="668" y="-150" as="sourcePoint" />
            <mxPoint x="618" y="-170.9473684210525" as="targetPoint" />
            <Array as="points">
              <mxPoint x="645" y="-157" />
              <mxPoint x="645" y="-157" />
            </Array>
          </mxGeometry>
        </mxCell>
        <mxCell id="A0nYaDOjtjgqWgvlFO7J-88" value="" style="edgeStyle=orthogonalEdgeStyle;rounded=0;orthogonalLoop=1;jettySize=auto;html=1;strokeColor=#009900;" parent="1" source="A0nYaDOjtjgqWgvlFO7J-14" target="A0nYaDOjtjgqWgvlFO7J-74" edge="1">
          <mxGeometry relative="1" as="geometry">
            <mxPoint x="618" y="-142" as="sourcePoint" />
            <mxPoint x="1066" y="-194" as="targetPoint" />
            <Array as="points">
              <mxPoint x="643" y="-136" />
              <mxPoint x="643" y="-136" />
            </Array>
          </mxGeometry>
        </mxCell>
        <mxCell id="A0nYaDOjtjgqWgvlFO7J-137" value="" style="edgeStyle=orthogonalEdgeStyle;rounded=0;orthogonalLoop=1;jettySize=auto;html=1;strokeColor=#009900;" parent="1" source="ZLGVQ2rk_Wr_WkTqdJoq-90" target="ZLGVQ2rk_Wr_WkTqdJoq-13" edge="1">
          <mxGeometry relative="1" as="geometry">
            <Array as="points">
              <mxPoint x="-186.48000000000002" y="-866" />
              <mxPoint x="-186.48000000000002" y="-866" />
            </Array>
            <mxPoint x="-787.48" y="-928" as="targetPoint" />
            <mxPoint x="-724.48" y="-924" as="sourcePoint" />
          </mxGeometry>
        </mxCell>
        <mxCell id="A0nYaDOjtjgqWgvlFO7J-140" value="" style="edgeStyle=orthogonalEdgeStyle;rounded=0;orthogonalLoop=1;jettySize=auto;html=1;strokeColor=#009900;" parent="1" source="A0nYaDOjtjgqWgvlFO7J-142" target="A0nYaDOjtjgqWgvlFO7J-141" edge="1">
          <mxGeometry relative="1" as="geometry" />
        </mxCell>
        <mxCell id="A0nYaDOjtjgqWgvlFO7J-141" value="SRE" style="shape=image;verticalLabelPosition=bottom;labelBackgroundColor=none;verticalAlign=top;aspect=fixed;imageAspect=0;image=data:image/svg+xml,PHN2ZyB4bWxuczpjYz0iaHR0cDovL2NyZWF0aXZlY29tbW9ucy5vcmcvbnMjIiB4bWxuczpkYz0iaHR0cDovL3B1cmwub3JnL2RjL2VsZW1lbnRzLzEuMS8iIHhtbG5zOmlua3NjYXBlPSJodHRwOi8vd3d3Lmlua3NjYXBlLm9yZy9uYW1lc3BhY2VzL2lua3NjYXBlIiB4bWxuczpyZGY9Imh0dHA6Ly93d3cudzMub3JnLzE5OTkvMDIvMjItcmRmLXN5bnRheC1ucyMiIHhtbG5zOnNvZGlwb2RpPSJodHRwOi8vc29kaXBvZGkuc291cmNlZm9yZ2UubmV0L0RURC9zb2RpcG9kaS0wLmR0ZCIgeG1sbnM6c3ZnPSJodHRwOi8vd3d3LnczLm9yZy8yMDAwL3N2ZyIgeG1sbnM9Imh0dHA6Ly93d3cudzMub3JnLzIwMDAvc3ZnIiB4bWxuczp4bGluaz0iaHR0cDovL3d3dy53My5vcmcvMTk5OS94bGluayIgdmVyc2lvbj0iMS4xIiBpZD0ic3ZnMzExODM2IiBpbmtzY2FwZTp2ZXJzaW9uPSIwLjkyLjMgKDI0MDU1NDYsIDIwMTgtMDMtMTEpIiBzb2RpcG9kaTpkb2NuYW1lPSJkZXZlbG9wZXJfNS5zdmciIHg9IjBweCIgeT0iMHB4IiB2aWV3Qm94PSIwIDAgMTkuMjkgNDguMDciIHN0eWxlPSJlbmFibGUtYmFja2dyb3VuZDpuZXcgMCAwIDE5LjI5IDQ4LjA3OyIgeG1sOnNwYWNlPSJwcmVzZXJ2ZSI+JiN4YTs8c29kaXBvZGk6bmFtZWR2aWV3IGJvcmRlcmNvbG9yPSIjNjY2NjY2IiBib3JkZXJvcGFjaXR5PSIxIiBmaXQtbWFyZ2luLWJvdHRvbT0iMCIgZml0LW1hcmdpbi1sZWZ0PSIwIiBmaXQtbWFyZ2luLXJpZ2h0PSIwIiBmaXQtbWFyZ2luLXRvcD0iMCIgZ3JpZHRvbGVyYW5jZT0iMTAiIGd1aWRldG9sZXJhbmNlPSIxMCIgaWQ9Im5hbWVkdmlldzMxMTgzOCIgaW5rc2NhcGU6Y3VycmVudC1sYXllcj0ic3ZnMzExODM2IiBpbmtzY2FwZTpjeD0iMTIuODYzMjIyIiBpbmtzY2FwZTpjeT0iMzIuMDQ4MDkyIiBpbmtzY2FwZTpwYWdlb3BhY2l0eT0iMCIgaW5rc2NhcGU6cGFnZXNoYWRvdz0iMiIgaW5rc2NhcGU6d2luZG93LWhlaWdodD0iMTAxNyIgaW5rc2NhcGU6d2luZG93LW1heGltaXplZD0iMSIgaW5rc2NhcGU6d2luZG93LXdpZHRoPSIxOTIwIiBpbmtzY2FwZTp3aW5kb3cteD0iLTgiIGlua3NjYXBlOndpbmRvdy15PSItOCIgaW5rc2NhcGU6em9vbT0iMTMuNTI3NzczIiBvYmplY3R0b2xlcmFuY2U9IjEwIiBwYWdlY29sb3I9IiNmZmZmZmYiIHNob3dncmlkPSJmYWxzZSI+JiN4YTsJPC9zb2RpcG9kaTpuYW1lZHZpZXc+JiN4YTs8ZyBpZD0iZzMxMTgzNCIgdHJhbnNmb3JtPSJ0cmFuc2xhdGUoLTAuMDAxNzcxNzcsMC4wMDM0KSI+JiN4YTsJPHRpdGxlIGlkPSJ0aXRsZTMxMTYyOSI+UGFnZS0xPC90aXRsZT4mI3hhOwk8ZyBpZD0iZ3JvdXA3MDY1LTEiPiYjeGE7CQk8dGl0bGUgaWQ9InRpdGxlMzExNjMxIj5EZXZlbG9wZXIgIzU8L3RpdGxlPiYjeGE7CQk8ZyBpZD0ic2hhcGU3MDY2LTIiIHRyYW5zZm9ybT0idHJhbnNsYXRlKDExLjQ3MzcsLTEuMzYyMjQpIj4mI3hhOwkJCTx0aXRsZSBpZD0idGl0bGUzMTE2MzMiPlNoZWV0LjcwNjY8L3RpdGxlPiYjeGE7CQkJPHBhdGggaWQ9InBhdGgzMTE2MzUiIGlua3NjYXBlOmNvbm5lY3Rvci1jdXJ2YXR1cmU9IjAiIGQ9Ik0wLDQ3Ljk3bDIuMzEsMC4xbDAuMDItMi45MmgtMi4xTDAsNDcuOTd6Ii8+JiN4YTsJCTwvZz4mI3hhOwkJPGcgaWQ9InNoYXBlNzA2Ny00IiB0cmFuc2Zvcm09InRyYW5zbGF0ZSgxMC44OTA0KSI+JiN4YTsJCQk8dGl0bGUgaWQ9InRpdGxlMzExNjM4Ij5TaGVldC43MDY3PC90aXRsZT4mI3hhOwkJCTxwYXRoIGlkPSJwYXRoMzExNjQwIiBpbmtzY2FwZTpjb25uZWN0b3ItY3VydmF0dXJlPSIwIiBzdHlsZT0iZmlsbDojNUMyRDkxOyIgZD0iTTAsNDcuODZjMi4xNiwwLjExLDIuMTYsMC4xMSwyLjE2LDAuMTEgICAgIGMwLjEyLTAuMzMsMC4xMi0wLjMzLDAuMTItMC4zM2MwLjcxLDAuMTEsMi4xNiwwLjMzLDIuOTgsMC40M2MwLjU2LDAsMS4zNCwwLDEuNzktMC4yMWMwLDAsMC4xNC0wLjExLDAuMTQtMC4yMiAgICAgYzAtMC44Ni0zLjQyLTEuMzItNC4zMS0yLjNjLTAuMTIsMC0wLjEyLDAtMC4xMiwwQzIuNSw0NS41NiwyLjI4LDQ2LDEuNzMsNDZjLTAuNTYsMC0xLjAxLTAuNTUtMS4yNC0wLjY2ICAgICBDMC4xMiw0NS41NiwwLDQ3Ljc1LDAsNDcuODZ6Ii8+JiN4YTsJCTwvZz4mI3hhOwkJPGcgaWQ9InNoYXBlNzA2OC02IiB0cmFuc2Zvcm09InRyYW5zbGF0ZSgzLjExMjg1LC0wLjM4OTIxMykiPiYjeGE7CQkJPHRpdGxlIGlkPSJ0aXRsZTMxMTY0MyI+U2hlZXQuNzA2ODwvdGl0bGU+JiN4YTsJCQk8cGF0aCBpZD0icGF0aDMxMTY0NSIgaW5rc2NhcGU6Y29ubmVjdG9yLWN1cnZhdHVyZT0iMCIgc3R5bGU9ImZpbGw6IzVDMkQ5MTsiIGQ9Ik0xLjE1LDQ1LjM0YzAsMC40OCwwLDAuNDgsMCwwLjQ4ICAgICBDMCw0Ny4zNSwwLDQ3LjM1LDAsNDcuMzVjMCwwLjUxLDAsMC41MSwwLDAuNTFjMCwwLjExLDAuMTEsMC4yMSwwLjIyLDAuMjFjMi40NywwLDIuNDcsMCwyLjQ3LDBjMC4yNSwwLDAuNDItMC4yMSwwLjQyLTAuNDMgICAgIGMwLTEuNDksMC0xLjQ5LDAtMS40OWMwLTAuNDgsMC0wLjQ4LDAtMC40OGMwLTAuMzMsMC0wLjMzLDAtMC4zM0wxLjE1LDQ1LjM0eiIvPiYjeGE7CQk8L2c+JiN4YTsJCTxnIGlkPSJzaGFwZTcwNjktOCIgdHJhbnNmb3JtPSJ0cmFuc2xhdGUoNC4yNzk0OCwtMy4xMTM3KSI+JiN4YTsJCQk8dGl0bGUgaWQ9InRpdGxlMzExNjQ4Ij5TaGVldC43MDY5PC90aXRsZT4mI3hhOwkJCTxwYXRoIGlkPSJwYXRoMzExNjUwIiBpbmtzY2FwZTpjb25uZWN0b3ItY3VydmF0dXJlPSIwIiBzdHlsZT0iZmlsbDojMDA3OEQ3OyIgZD0iTTcuMyw0OC4wN2MtMC4xOC0xLjE3LDAuMjMtNi45NC0wLjAzLTExLjA4ICAgICBjLTAuMjYtNC4wNC0xLjI1LTUuNjktMS4yNS01LjY5cy0wLjMzLTAuMjItMC40MSwwLjFjLTAuMDMsMC4xNS0xLjg4LDUuMy0xLjg4LDUuM3MtMS4yMSw5LjM1LTEuNywxMS4zN2MtMi4wMywwLTIuMDMsMC0yLjAzLDAgICAgIGMwLjUyLTEyLjAxLDAuNTItMTIuMDEsMC41Mi0xMi4wMWMwLjg5LTguNjIsMC44OS04LjYyLDAuODktOC42MmM4LjM3LTMuMzEsOC4zNy0zLjMxLDguMzctMy4zMWMtMC4yMywxLjE4LDAuOTEsNy4yLDAuODgsMTIuNzUgICAgIGMtMC4wOCw0LjY5LTEuMTQsMTAuMzEtMS4xMSwxMS4xOUw3LjMsNDguMDd6Ii8+JiN4YTsJCTwvZz4mI3hhOwkJPGcgaWQ9InNoYXBlNzA3MC0xMCIgdHJhbnNmb3JtPSJ0cmFuc2xhdGUoMy44OTA2LC0yLjkxOTA5KSI+JiN4YTsJCQk8dGl0bGUgaWQ9InRpdGxlMzExNjUzIj5TaGVldC43MDcwPC90aXRsZT4mI3hhOwkJCTxwYXRoIGlkPSJwYXRoMzExNjU1IiBpbmtzY2FwZTpjb25uZWN0b3ItY3VydmF0dXJlPSIwIiBzdHlsZT0iZmlsbDojMDA3OEQ3OyIgZD0iTTIuNjEsNDguMDdjLTIuNjEsMC0yLjYxLDAtMi42MSwwICAgICBjMC41Ni0xMi4zNCwwLjU2LTEyLjM0LDAuNTYtMTIuMzRjMC44Ny04Ljc5LDAuODctOC43OSwwLjg3LTguNzljOS4wNS0zLjU5LDkuMDUtMy41OSw5LjA1LTMuNTljLTAuMTEsMC41Ni0wLjExLDAuNTYtMC4xMSwwLjU2ICAgICBjLTAuMDgsMC40OCwwLjA3LDEuOTQsMC4yNSwzLjYzYzAuMjksMi40NCwwLjY2LDUuODEsMC42Miw5LjAzYy0wLjA0LDMuMDgtMC41MSw2LjU2LTAuODQsOC44M2MtMC4xNCwxLjE3LTAuMjUsMi4wNS0wLjI1LDIuMzQgICAgIGMwLjAzLDAuMzMsMC4wMywwLjMzLDAuMDMsMC4zM2MtMi44MywwLTIuODMsMC0yLjgzLDBjLTAuMDctMC4yNi0wLjA3LTAuMjYtMC4wNy0wLjI2Yy0wLjA3LTAuNTQtMC4wNC0xLjkzLDAtMy43ICAgICBjMC4wNy0yLjI2LDAuMTEtNS4wOC0wLjA0LTcuNDNjLTAuMTgtMy4xOC0wLjg1LTQuODMtMS4wNy01LjM0Yy0wLjI5LDAuODEtMS41NCw0LjI5LTEuODMsNS4xMmMtMC4wNywwLjctMS4yMiw5LjM4LTEuNjksMTEuMzUgICAgIEwyLjYxLDQ4LjA3eiBNMC42Nyw0Ny40NWMxLjQzLDAsMS40MywwLDEuNDMsMGMwLjUxLTIuNDEsMS42Mi0xMS4wMiwxLjY2LTExLjFjMC0wLjA3LDAtMC4wNywwLTAuMDdjMC43Mi0yLDEuODMtNS4xMiwxLjg3LTUuMjYgICAgIGMwLjA3LTAuMjIsMC4yMi0wLjMsMC4yOS0wLjMzYzAuMjktMC4xMSwwLjU1LDAuMDMsMC41OSwwLjA3YzAuMDgsMC4wNCwwLjA4LDAuMDQsMC4wOCwwLjA0YzAuMDMsMC4wNywwLjAzLDAuMDcsMC4wMywwLjA3ICAgICBjMC4wNCwwLjA3LDAuOTksMS43NSwxLjI0LDUuNzhjMC4xNSwyLjM4LDAuMDgsNS4yLDAuMDQsNy40NmMtMC4wNCwxLjQ0LTAuMDcsMi43Mi0wLjA0LDMuMzRjMS42OSwwLDEuNjksMCwxLjY5LDAgICAgIGMwLTAuNDQsMC4xMS0xLjEzLDAuMjctMi4xMmMwLjI5LTIuMjcsMC43Ni01LjcyLDAuOC04Ljc2YzAuMDQtMy4xOC0wLjMzLTYuNTItMC41OC04Ljk2Yy0wLjE4LTEuNTEtMC4yOS0yLjYtMC4yOS0zLjMgICAgIGMtNy43MiwzLjA4LTcuNzIsMy4wOC03LjcyLDMuMDhjLTAuODUsOC4zOC0wLjg1LDguMzgtMC44NSw4LjM4TDAuNjcsNDcuNDV6Ii8+JiN4YTsJCTwvZz4mI3hhOwkJPGcgaWQ9InNoYXBlNzA3MS0xMiIgdHJhbnNmb3JtPSJ0cmFuc2xhdGUoNC44NjI3OSwtMjMuNzQyKSI+JiN4YTsJCQk8dGl0bGUgaWQ9InRpdGxlMzExNjU4Ij5TaGVldC43MDcxPC90aXRsZT4mI3hhOwkJCTxwYXRoIGlkPSJwYXRoMzExNjYwIiBpbmtzY2FwZTpjb25uZWN0b3ItY3VydmF0dXJlPSIwIiBzdHlsZT0iZmlsbDojRTZFN0U4OyIgZD0iTTcuNTgsNDguMDdIMC4zNmwtMC4xMy04Ljg4TDAsMzQuNTRsNi44OS0wLjQ4ICAgICBMNy41OCw0OC4wN3oiLz4mI3hhOwkJPC9nPiYjeGE7CQk8ZyBpZD0ic2hhcGU3MDcyLTE0IiB0cmFuc2Zvcm09InRyYW5zbGF0ZSg0Ljg2Mjc5LC0zNS44MDc2KSI+JiN4YTsJCQk8dGl0bGUgaWQ9InRpdGxlMzExNjYzIj5TaGVldC43MDcyPC90aXRsZT4mI3hhOwkJCTxwYXRoIGlkPSJwYXRoMzExNjY1IiBpbmtzY2FwZTpjb25uZWN0b3ItY3VydmF0dXJlPSIwIiBzdHlsZT0iZmlsbDojRTZFN0U4OyIgZD0iTTAuNjYsNDguMDdMMCw0NS4ybDQuNjQtMS4wMmwwLjYxLDIuODQgICAgIEwwLjY2LDQ4LjA3eiIvPiYjeGE7CQk8L2c+JiN4YTsJCTxnIGlkPSJzaGFwZTcwNzMtMTYiIHRyYW5zZm9ybT0idHJhbnNsYXRlKDkuOTE4MTgsLTIzLjc0MikiPiYjeGE7CQkJPHRpdGxlIGlkPSJ0aXRsZTMxMTY2OCI+U2hlZXQuNzA3MzwvdGl0bGU+JiN4YTsJCQk8cGF0aCBpZD0icGF0aDMxMTY3MCIgaW5rc2NhcGU6Y29ubmVjdG9yLWN1cnZhdHVyZT0iMCIgc3R5bGU9ImZpbGw6I0U2RTdFODsiIGQ9Ik0wLDQ4LjA3aDQuNjdsMC4xNy04Ljg0bDAuMjItNC42M0wwLDM0LjI1ICAgICBWNDguMDd6Ii8+JiN4YTsJCTwvZz4mI3hhOwkJPGcgaWQ9InNoYXBlNzA3NC0xOCIgdHJhbnNmb3JtPSJ0cmFuc2xhdGUoOS41MjkzMSwtMzUuODA3NikiPiYjeGE7CQkJPHRpdGxlIGlkPSJ0aXRsZTMxMTY3MyI+U2hlZXQuNzA3NDwvdGl0bGU+JiN4YTsJCQk8cGF0aCBpZD0icGF0aDMxMTY3NSIgaW5rc2NhcGU6Y29ubmVjdG9yLWN1cnZhdHVyZT0iMCIgc3R5bGU9ImZpbGw6I0U2RTdFODsiIGQ9Ik01LjA2LDQ4LjA3bC01LjA2LTFsMC42LTIuODlsNS4wNCwxLjA0ICAgICBMNS4wNiw0OC4wN3oiLz4mI3hhOwkJPC9nPiYjeGE7CQk8ZyBpZD0ic2hhcGU3MDc1LTIwIiB0cmFuc2Zvcm09InRyYW5zbGF0ZSg3LjE5NjA1LC0zMi4zMDQ2KSI+JiN4YTsJCQk8dGl0bGUgaWQ9InRpdGxlMzExNjc4Ij5TaGVldC43MDc1PC90aXRsZT4mI3hhOwkJCTxwYXRoIGlkPSJwYXRoMzExNjgwIiBpbmtzY2FwZTpjb25uZWN0b3ItY3VydmF0dXJlPSIwIiBzdHlsZT0iZmlsbDojMDBCMjk0OyIgZD0iTTQuNDEsNDYuMDJjLTAuMTgsMC0wLjM2LDAuMDQtMC41MiwwLjE1ICAgICBjMC0wLjExLTAuMDQtMC4xOC0wLjA3LTAuMjZjLTAuMDgtMC4xOC0wLjA4LTAuMTgtMC4wOC0wLjE4Yy0wLjAzLTAuMTgtMC4xMS0wLjMzLTAuMTEtMC40YzAuMDgtMC4xNCwwLjA4LTAuMTQsMC4wOC0wLjE0ICAgICBjMC0wLjA0LDAtMC4wNC0wLjA0LTAuMDhjLTAuMTEtMC4xMi0wLjExLTAuMTItMC4xMS0wLjEyYzAtMC4wNC0wLjA0LTAuMDQtMC4wNC0wLjA0Yy0wLjQxLDAtMC40MSwwLTAuNDEsMCAgICAgYy0wLjA0LDAtMC4wNywwLjA0LTAuMDcsMC4wOGMwLDAuMDUsMC4wMywwLjA4LDAuMDcsMC4wOGMwLjM4LDAsMC4zOCwwLDAuMzgsMGMwLjA3LDAuMDgsMC4wNywwLjA4LDAuMDcsMC4wOCAgICAgYy0wLjA3LDAuMTQtMC4wNywwLjE0LTAuMDcsMC4xNHMwLDAsMCwwLjA0YzAuMDMsMCwwLjA3LDAuMTQsMC4xNCwwLjMzYy0xLjUyLDAtMS41MiwwLTEuNTIsMGMtMC4wMy0wLjExLTAuMDMtMC4xMS0wLjAzLTAuMTEgICAgIGMwLjE0LTAuMDQsMC4zNC0wLjExLDAuNDEtMC4yMmMtMC45MywwLTAuOTMsMC0wLjkzLDBjMCwwLjE0LDAuMTUsMC4yNSwwLjM0LDAuMjVjMC4wMywwLDAuMDMsMCwwLjA3LDBsMCwwICAgICBjMC4wNCwwLjE1LDAuMDQsMC4xNSwwLjA0LDAuMTVjLTAuMzcsMC40NC0wLjM3LDAuNDQtMC4zNywwLjQ0Yy0wLjE5LTAuMTEtMC4zOC0wLjE5LTAuNTktMC4xOUMwLjQ5LDQ2LjAyLDAsNDYuNDYsMCw0Ny4wNSAgICAgYzAsMC41NCwwLjQ5LDEuMDIsMS4wNSwxLjAyYzAuNDcsMCwwLjg4LTAuMzMsMC45OS0wLjc3YzAuMjIsMC4wNCwwLjIyLDAuMDQsMC4yMiwwLjA0YzAsMC4wNywwLjA3LDAuMTgsMC4xNiwwLjIyICAgICBjLTAuMDQsMC4yMi0wLjA0LDAuMjItMC4wNCwwLjIyYy0wLjEyLDAtMC4xMiwwLTAuMTIsMGMtMC4wNCwwLTAuMDcsMC0wLjA3LDAuMDNjMCwwLjA0LDAuMDMsMC4wOCwwLjA3LDAuMDhjMC4zLDAsMC4zLDAsMC4zLDAgICAgIGMwLjA0LDAsMC4wNC0wLjA0LDAuMDQtMC4wOGMwLTAuMDMsMC0wLjAzLTAuMDQtMC4wM2MtMC4wNywwLTAuMDcsMC0wLjA3LDBjMC4wNC0wLjIyLDAuMDQtMC4yMiwwLjA0LTAuMjIgICAgIGMwLjE0LDAsMC4yNS0wLjExLDAuMjUtMC4yNmMwLTAuMDMtMC4wMy0wLjA3LTAuMDctMC4xMWMxLjAzLTEuMTMsMS4wMy0xLjEzLDEuMDMtMS4xM2MwLjA0LDAuMDQsMC4wNCwwLjExLDAuMDgsMC4xNSAgICAgYy0wLjI2LDAuMjItMC40NCwwLjQ3LTAuNDQsMC44NGMwLDAuNTQsMC40NCwxLjAyLDEuMDMsMS4wMmMwLjYsMCwxLjAzLTAuNDgsMS4wMy0xLjAyQzUuNDQsNDYuNDYsNS4wMSw0Ni4wMiw0LjQxLDQ2LjAyeiAgICAgIE0xLjA1LDQ3LjkyYy0wLjQ5LDAtMC44OS0wLjQtMC44OS0wLjg3YzAtMC40OCwwLjQtMC44OCwwLjg5LTAuODhjMC4xOCwwLDAuMzIsMC4wNywwLjQ3LDAuMTVjLTAuNDcsMC42Mi0wLjQ3LDAuNjItMC40NywwLjYyICAgICBsMCwwYy0wLjA0LDAtMC4xMSwwLjAzLTAuMTEsMC4xMWgwLjAzYy0wLjAzLDAuMDMtMC4wMywwLjAzLTAuMDMsMC4wM2MwLjA3LDAsMC4wNywwLDAuMDcsMGMwLDAuMDQsMCwwLjA4LDAuMDQsMC4wOCAgICAgYzAuMDMsMCwwLjAzLTAuMDQsMC4wMy0wLjA0YzAuODIsMC4xNSwwLjgyLDAuMTUsMC44MiwwLjE1QzEuNzksNDcuNjMsMS40NSw0Ny45MiwxLjA1LDQ3LjkyeiBNMS45Myw0Ny4wNWMwLDAuMDMsMCwwLjA3LDAsMC4xMSAgICAgYy0wLjc4LTAuMTUtMC43OC0wLjE1LTAuNzgtMC4xNWMwLjQ5LTAuNjIsMC40OS0wLjYyLDAuNDktMC42MkMxLjgyLDQ2LjU3LDEuOTMsNDYuNzksMS45Myw0Ny4wNXogTTEuNzUsNDYuMjggICAgIGMwLjI5LTAuNCwwLjI5LTAuNCwwLjI5LTAuNGMwLjM4LDEuMjQsMC4zOCwxLjI0LDAuMzgsMS4yNGMtMC4wOSwwLjA0LTAuMDksMC4wNC0wLjEyLDAuMTFjLTAuMjItMC4wNy0wLjIyLTAuMDctMC4yMi0wLjA3ICAgICBjMC0wLjA0LDAtMC4wOCwwLTAuMTFDMi4wOCw0Ni43MiwxLjk3LDQ2LjQ2LDEuNzUsNDYuMjh6IE0yLjY3LDQ3LjA1YzAuMDgtMC4yMiwwLjA4LTAuMjIsMC4wOC0wLjIyYzAuMDcsMCwwLjA3LDAsMC4wNywwICAgICBjMC4wNCwwLDAuMDctMC4wNCwwLjA3LTAuMDRjMC0wLjA0LTAuMDMtMC4wNy0wLjA3LTAuMDdjLTAuMjYsMC0wLjI2LDAtMC4yNiwwYy0wLjAzLDAtMC4wNywwLjAzLTAuMDcsMC4wNyAgICAgYzAsMCwwLjA0LDAuMDQsMC4wNywwLjA0YzAuMDQsMCwwLjA0LDAsMC4wNCwwYy0wLjA0LDAuMjUtMC4wNCwwLjI1LTAuMDQsMC4yNWMtMC4wMywwLTAuMDMsMC0wLjAzLDBsMCwwICAgICBjLTAuMzgtMS4yNy0wLjM4LTEuMjctMC4zOC0xLjI3YzEuNTIsMCwxLjUyLDAsMS41MiwwYzAsMC4wMywwLDAuMDcsMC4wNCwwLjFMMi42Nyw0Ny4wNXogTTQuNDEsNDcuOTIgICAgIGMtMC40NywwLTAuODktMC40LTAuODktMC44N2MwLTAuMywwLjE1LTAuNTEsMC4zMy0wLjY2YzAuMDQsMC4wNywwLjA5LDAuMTUsMC4wOSwwLjIyYzAuMTEsMC4xOCwwLjI5LDAuMzMsMC4zNiwwLjQ0bDAsMCAgICAgYzAsMC4wMywwLjA0LDAuMTEsMC4xMSwwLjExczAuMTEtMC4wOCwwLjExLTAuMTFjMC0wLjA4LTAuMDQtMC4xMS0wLjExLTAuMTFsMCwwYy0wLjExLTAuMDgtMC4yOS0wLjIyLTAuMzYtMC40ICAgICBjMC0wLjA0LTAuMDQtMC4xMS0wLjA4LTAuMjJjMC4xMS0wLjA4LDAuMjYtMC4xNSwwLjQ0LTAuMTVjMC40OSwwLDAuODksMC40LDAuODksMC44OEM1LjMsNDcuNTIsNC45LDQ3LjkyLDQuNDEsNDcuOTJ6Ii8+JiN4YTsJCTwvZz4mI3hhOwkJPGcgaWQ9InNoYXBlNzA3Ni0yMiIgdHJhbnNmb3JtPSJ0cmFuc2xhdGUoOS45MTgxOCwtMzguMzM3NCkiPiYjeGE7CQkJPHRpdGxlIGlkPSJ0aXRsZTMxMTY4MyI+U2hlZXQuNzA3NjwvdGl0bGU+JiN4YTsJCQk8cGF0aCBpZD0icGF0aDMxMTY4NSIgaW5rc2NhcGU6Y29ubmVjdG9yLWN1cnZhdHVyZT0iMCIgc3R5bGU9ImZpbGw6I0YyN0FCNDsiIGQ9Ik0wLjE5LDQ3Ljg3YzAsMC4xNC0wLjA5LDAuMi0wLjE0LDAuMiAgICAgYzAsMCwwLDAtMC4wNS0wLjA2QzAuMTksNDcuODcsMC4xOSw0Ny44NywwLjE5LDQ3Ljg3TDAuMTksNDcuODd6Ii8+JiN4YTsJCTwvZz4mI3hhOwkJPGcgaWQ9InNoYXBlNzA3Ny0yNCIgdHJhbnNmb3JtPSJ0cmFuc2xhdGUoOC4xNjgyNCwtMzcuNzUzNikiPiYjeGE7CQkJPHRpdGxlIGlkPSJ0aXRsZTMxMTY4OCI+U2hlZXQuNzA3NzwvdGl0bGU+JiN4YTsJCQk8cGF0aCBpZD0icGF0aDMxMTY5MCIgaW5rc2NhcGU6Y29ubmVjdG9yLWN1cnZhdHVyZT0iMCIgc3R5bGU9ImZpbGw6I0NFOUM1RTsiIGQ9Ik0xLjg1LDQ4LjA3QzAuODQsNDguMDcsMCw0Ny4zOSwwLDQ2LjMzICAgICBjMC0xLjM4LDAtMS4zOCwwLTEuMzhjMy42OSwwLDMuNjksMCwzLjY5LDBjMCwxLjM4LDAsMS4zOCwwLDEuMzhDMy42OSw0Ny4zOSwyLjg3LDQ4LjA3LDEuODUsNDguMDd6Ii8+JiN4YTsJCTwvZz4mI3hhOwkJPGcgaWQ9InNoYXBlNzA3OC0yNiIgdHJhbnNmb3JtPSJ0cmFuc2xhdGUoNy4wMDE2MSwtMzkuNjk5NykiPiYjeGE7CQkJPHRpdGxlIGlkPSJ0aXRsZTMxMTY5MyI+U2hlZXQuNzA3ODwvdGl0bGU+JiN4YTsJCQk8cGF0aCBpZD0icGF0aDMxMTY5NSIgaW5rc2NhcGU6Y29ubmVjdG9yLWN1cnZhdHVyZT0iMCIgc3R5bGU9ImZpbGw6I0NFOUM1RTsiIGQ9Ik01LjgzLDQ0LjE0YzAsMi4zMy0xLjI2LDMuOTMtMi45MywzLjkzICAgICBjLTEuNjYsMC0yLjktMS42LTIuOS0zLjkzYzAtMi4zNSwxLjI0LTQuMjUsMi45LTQuMjVDNS4wMSwzOS44OSw1LjgzLDQxLjc5LDUuODMsNDQuMTR6Ii8+JiN4YTsJCTwvZz4mI3hhOwkJPGcgaWQ9InNoYXBlNzA3OS0yOCIgdHJhbnNmb3JtPSJ0cmFuc2xhdGUoNi42MTI3MywtNDIuNDI0MikiPiYjeGE7CQkJPHRpdGxlIGlkPSJ0aXRsZTMxMTY5OCI+U2hlZXQuNzA3OTwvdGl0bGU+JiN4YTsJCQk8cGF0aCBpZD0icGF0aDMxMTcwMCIgaW5rc2NhcGU6Y29ubmVjdG9yLWN1cnZhdHVyZT0iMCIgc3R5bGU9ImZpbGw6I0NFOUM1RTsiIGQ9Ik0wLjU4LDQ2LjMyYy0wLjMyLDAtMC4zMiwwLTAuMzIsMCAgICAgQzAuMSw0Ni4zMiwwLDQ2LjQ2LDAsNDYuNjNjMCwxLjEzLDAsMS4xMywwLDEuMTNjMCwwLjE3LDAuMSwwLjMxLDAuMjYsMC4zMWMwLjIsMCwwLjIsMCwwLjIsMEwwLjU4LDQ2LjMyeiIvPiYjeGE7CQk8L2c+JiN4YTsJCTxnIGlkPSJzaGFwZTcwODAtMzAiIHRyYW5zZm9ybT0idHJhbnNsYXRlKDEyLjY0MDMsLTQyLjQyNDIpIj4mI3hhOwkJCTx0aXRsZSBpZD0idGl0bGUzMTE3MDMiPlNoZWV0LjcwODA8L3RpdGxlPiYjeGE7CQkJPHBhdGggaWQ9InBhdGgzMTE3MDUiIGlua3NjYXBlOmNvbm5lY3Rvci1jdXJ2YXR1cmU9IjAiIHN0eWxlPSJmaWxsOiNDRTlDNUU7IiBkPSJNMCw0Ni4zMmMwLjQ2LDAsMC40NiwwLDAuNDYsMCAgICAgYzAuMiwwLDAuMzIsMC4xNCwwLjMyLDAuMzFjMCwxLjEzLDAsMS4xMywwLDEuMTNjMCwwLjE3LTAuMTIsMC4zMS0wLjMyLDAuMzFjLTAuMjksMC0wLjI5LDAtMC4yOSwwTDAsNDYuMzJ6Ii8+JiN4YTsJCTwvZz4mI3hhOwkJPGcgaWQ9InNoYXBlNzA4MS0zMiIgdHJhbnNmb3JtPSJ0cmFuc2xhdGUoOC41NTcxMSwtNDMuNTkxOCkiPiYjeGE7CQkJPHRpdGxlIGlkPSJ0aXRsZTMxMTcwOCI+U2hlZXQuNzA4MTwvdGl0bGU+JiN4YTsJCQk8cGF0aCBpZD0icGF0aDMxMTcxMCIgaW5rc2NhcGU6Y29ubmVjdG9yLWN1cnZhdHVyZT0iMCIgc3R5bGU9ImZpbGw6IzIzMUYyMDsiIGQ9Ik0wLjE5LDQ4LjA3YzAuMSwwLDAuMi0wLjA5LDAuMi0wLjIxICAgICBjMC0wLjA4LTAuMS0wLjE4LTAuMi0wLjE4QzAuMDcsNDcuNjgsMCw0Ny43OCwwLDQ3LjlDMCw0Ny45OCwwLjEsNDguMDcsMC4xOSw0OC4wN3oiLz4mI3hhOwkJPC9nPiYjeGE7CQk8ZyBpZD0ic2hhcGU3MDgyLTM0IiB0cmFuc2Zvcm09InRyYW5zbGF0ZSgxMS4wODQ4LC00My4zOTcyKSI+JiN4YTsJCQk8dGl0bGUgaWQ9InRpdGxlMzExNzEzIj5TaGVldC43MDgyPC90aXRsZT4mI3hhOwkJCTxwYXRoIGlkPSJwYXRoMzExNzE1IiBpbmtzY2FwZTpjb25uZWN0b3ItY3VydmF0dXJlPSIwIiBzdHlsZT0iZmlsbDojMjMxRjIwOyIgZD0iTTAuMTksNDguMDdjMC4xLDAsMC4yLTAuMTQsMC4yLTAuMzEgICAgIGMwLTAuMTMtMC4xLTAuMjgtMC4yLTAuMjhDMC4xLDQ3LjQ4LDAsNDcuNjMsMCw0Ny44QzAsNDcuOTMsMC4xLDQ4LjA3LDAuMTksNDguMDd6Ii8+JiN4YTsJCTwvZz4mI3hhOwkJPGcgaWQ9InNoYXBlNzA4My0zNiIgdHJhbnNmb3JtPSJ0cmFuc2xhdGUoOC4xNjgyNCwtMzkuNTA1MSkiPiYjeGE7CQkJPHRpdGxlIGlkPSJ0aXRsZTMxMTcxOCI+U2hlZXQuNzA4MzwvdGl0bGU+JiN4YTsJCQk8cGF0aCBpZD0icGF0aDMxMTcyMCIgaW5rc2NhcGU6Y29ubmVjdG9yLWN1cnZhdHVyZT0iMCIgc3R5bGU9ImZpbGw6I0NFOUM1RTsiIGQ9Ik0wLDQ2LjcxYzMuNSwwLDMuNSwwLDMuNSwwICAgICBjLTAuNDQsMC44My0xLjAzLDEuMzYtMS43NSwxLjM2QzEuMDUsNDguMDcsMC40NSw0Ny41NCwwLDQ2LjcxeiIvPiYjeGE7CQk8L2c+JiN4YTsJCTxnIGlkPSJzaGFwZTcwODQtMzgiIHRyYW5zZm9ybT0idHJhbnNsYXRlKDguMTY4MjQsLTM5LjMxMDUpIj4mI3hhOwkJCTx0aXRsZSBpZD0idGl0bGUzMTE3MjMiPlNoZWV0LjcwODQ8L3RpdGxlPiYjeGE7CQkJPHBhdGggaWQ9InBhdGgzMTE3MjUiIGlua3NjYXBlOmNvbm5lY3Rvci1jdXJ2YXR1cmU9IjAiIHN0eWxlPSJmaWxsOiNCQThENTc7IiBkPSJNMy42OSw0Ni45YzAsMC4yOSwwLDAuMjksMCwwLjI5ICAgICBjMCwwLjI4LTEuMTksMC44OC0xLjg0LDAuODhDMS4yNCw0OC4wNywwLDQ3LjYyLDAsNDcuMTljMC0wLjI5LDAtMC4yOSwwLTAuMjljMC4yNiwwLjI2LDAuNTUsMC40NiwwLjg3LDAuNjEgICAgIGMwLjMsMC4yNCwwLjYyLDAuMzUsMC45OCwwLjM1czAuNjktMC4xMSwwLjk4LTAuMzVDMy4xNiw0Ny4zNiwzLjQ1LDQ3LjE2LDMuNjksNDYuOXoiLz4mI3hhOwkJPC9nPiYjeGE7CQk8ZyBpZD0ic2hhcGU3MDg1LTQwIiB0cmFuc2Zvcm09InRyYW5zbGF0ZSg4Ljc1MTU1LC00MS4wNjE5KSI+JiN4YTsJCQk8dGl0bGUgaWQ9InRpdGxlMzExNzI4Ij5TaGVldC43MDg1PC90aXRsZT4mI3hhOwkJCTxwYXRoIGlkPSJwYXRoMzExNzMwIiBpbmtzY2FwZTpjb25uZWN0b3ItY3VydmF0dXJlPSIwIiBzdHlsZT0iZmlsbDojRkZGRkZGOyIgZD0iTTEuMTcsNDguMDdjMC41NCwwLDAuOC0wLjEyLDEuMTYtMC4yICAgICBjLTAuMTgsMC4wNC0wLjYyLDAuMDgtMS4xNiwwLjA4Yy0wLjU5LDAtMC45OS0wLjA0LTEuMTctMC4wOEMwLjM2LDQ3Ljk1LDAuNjIsNDguMDcsMS4xNyw0OC4wN3oiLz4mI3hhOwkJPC9nPiYjeGE7CQk8ZyBpZD0ic2hhcGU3MDg2LTQyIiB0cmFuc2Zvcm09InRyYW5zbGF0ZSg4Ljc1MTU1LC00MC44NjczKSI+JiN4YTsJCQk8dGl0bGUgaWQ9InRpdGxlMzExNzMzIj5TaGVldC43MDg2PC90aXRsZT4mI3hhOwkJCTxwYXRoIGlkPSJwYXRoMzExNzM1IiBpbmtzY2FwZTpjb25uZWN0b3ItY3VydmF0dXJlPSIwIiBzdHlsZT0iZmlsbDojQkIxNDFBOyIgZD0iTTEuMjksNDguMDdjLTAuMzgsMC0wLjYxLTAuMS0wLjg2LTAuMTUgICAgIGMtMC4wOS0wLjA1LTAuMi0wLjEtMC4zMS0wLjE0Yy0wLjAzLDAtMC4wMywwLTAuMDcsMEwwLDQ3LjczYzAuMDUtMC4wNSwwLjA1LTAuMDUsMC4wOS0wLjA1YzAsMCwwLjAzLDAsMC4wNywwICAgICBjMC4xOCwwLjA1LDAuNjEsMC4xLDEuMTMsMC4xYzAuNDgsMCwwLjkxLTAuMDUsMS4xMy0wLjFjMC4wMywwLDAuMDMsMCwwLjA3LDBzMC4wNCwwLDAuMDQsMC4wNWMwLDAsMCwwLjA1LTAuMDQsMC4wNSAgICAgYzAsMC0wLjA0LDAtMC4wNywwYy0wLjA3LDAuMDQtMC4xOCwwLjA5LTAuMzEsMC4xNEMxLjksNDcuOTcsMS42Myw0OC4wNywxLjI5LDQ4LjA3eiBNMC42MSw0Ny44N2MwLjE5LDAuMDUsMC40MSwwLjEsMC42OCwwLjEgICAgIHMwLjQ4LTAuMDUsMC42OC0wLjFjLTAuMjMsMC0wLjQ1LDAtMC42OCwwQzEuMDIsNDcuODcsMC44LDQ3Ljg3LDAuNjEsNDcuODd6Ii8+JiN4YTsJCTwvZz4mI3hhOwkJPGcgaWQ9InNoYXBlNzA4Ny00NCIgdHJhbnNmb3JtPSJ0cmFuc2xhdGUoOS4zMzQ4NywtNDEuODQwNCkiPiYjeGE7CQkJPHRpdGxlIGlkPSJ0aXRsZTMxMTczOCI+U2hlZXQuNzA4NzwvdGl0bGU+JiN4YTsJCQk8cGF0aCBpZD0icGF0aDMxMTc0MCIgaW5rc2NhcGU6Y29ubmVjdG9yLWN1cnZhdHVyZT0iMCIgc3R5bGU9ImZpbGw6I0JBOEQ1NzsiIGQ9Ik0xLjE3LDQ3LjQ4YzAsMC4xNS0wLjEsMC4zLTAuMjEsMC4yNSAgICAgYy0wLjA0LDAtMC4wNywwLjA5LTAuMTUsMC4xNGMtMC4wNiwwLjEtMC4xMywwLjItMC4yNCwwLjJjLTAuMDcsMC0wLjE4LTAuMS0wLjI0LTAuMmMtMC4wNy0wLjA1LTAuMTEtMC4xNC0wLjExLTAuMTQgICAgIEMwLjA3LDQ3Ljc4LDAsNDcuNjMsMCw0Ny40OGwwLDBDMS4xNyw0Ny40OCwxLjE3LDQ3LjQ4LDEuMTcsNDcuNDhMMS4xNyw0Ny40OHoiLz4mI3hhOwkJPC9nPiYjeGE7CQk8ZyBpZD0ic2hhcGU3MDg4LTQ2IiB0cmFuc2Zvcm09InRyYW5zbGF0ZSg3LjAwMTYxLC00Mi44MTM0KSI+JiN4YTsJCQk8dGl0bGUgaWQ9InRpdGxlMzExNzQzIj5TaGVldC43MDg4PC90aXRsZT4mI3hhOwkJCTxwYXRoIGlkPSJwYXRoMzExNzQ1IiBpbmtzY2FwZTpjb25uZWN0b3ItY3VydmF0dXJlPSIwIiBzdHlsZT0iZmlsbDojRkZCOTAwOyIgZD0iTTYuMDMsNDUuNTRjMCwyLjUzLDAsMi41MywwLDIuNTMgICAgIGMtMC4yNiwwLTAuMjYsMC0wLjI2LDBjLTAuMTQtMy4wNC0wLjE0LTMuMDQtMC4xNC0zLjA0QzQuOCw0NS4xNyw0LjgsNDUuMTcsNC44LDQ1LjE3Yy0xLjE5LDAuMTUtMi4zOCwwLjE1LTMuNTYsMCAgICAgYy0wLjgzLTAuMTQtMC44My0wLjE0LTAuODMtMC4xNGMtMC4xOCwzLTAuMTgsMy0wLjE4LDNjLTAuMjMsMC0wLjIzLDAtMC4yMywwYzAtMi40OSwwLTIuNDksMC0yLjQ5YzAtMS41MSwxLjA1LTIuNzMsMi4zMS0yLjczICAgICBjMS4zOCwwLDEuMzgsMCwxLjM4LDBDNC45OSw0Mi44MSw2LjAzLDQ0LjAzLDYuMDMsNDUuNTR6Ii8+JiN4YTsJCTwvZz4mI3hhOwkJPGcgaWQ9InNoYXBlNzA4OS00OCIgdHJhbnNmb3JtPSJ0cmFuc2xhdGUoMTAuODkwNCwtNDQuMTc1NikiPiYjeGE7CQkJPHRpdGxlIGlkPSJ0aXRsZTMxMTc0OCI+U2hlZXQuNzA4OTwvdGl0bGU+JiN4YTsJCQk8cGF0aCBpZD0icGF0aDMxMTc1MCIgaW5rc2NhcGU6Y29ubmVjdG9yLWN1cnZhdHVyZT0iMCIgc3R5bGU9ImZpbGw6I0ZGQjkwMDsiIGQ9Ik0wLjk3LDQ4LjA3YzAsMC0wLjA2LTAuMDMtMC4xNi0wLjEgICAgIGMtMC4wMywwLTAuMDYtMC4wMi0wLjEzLTAuMDZjLTAuMDItMC4wNC0wLjA2LTAuMDQtMC4wNi0wLjA0cy0wLjA0LTAuMDItMC4wNi0wLjAyYzAsMCwwLDAtMC4wNCwwYy0wLjEzLTAuMDQtMC4yNSwwLTAuMzUsMCAgICAgYy0wLjA0LDAtMC4wNywwLTAuMSwwcy0wLjA3LDAtMC4wNywwbDAsMGMwLTAuMDQsMC0wLjA0LDAtMC4wNHMwLjA3LTAuMDMsMC4xNy0wLjA2YzAuMS0wLjAzLDAuMjItMC4wNywwLjM5LTAuMDMgICAgIGMwLDAsMC4wMiwwLDAuMDYsMGMwLDAsMCwwLDAuMDQsMC4wM2MwLjAyLDAsMC4wNiwwLjAzLDAuMDksMC4wM2MwLjA2LDAuMDcsMC4xLDAuMDksMC4xMiwwLjEzYzAuMDQsMC4wNCwwLjA4LDAuMSwwLjEsMC4xICAgICBDMC45Nyw0OC4wNCwwLjk3LDQ4LjA3LDAuOTcsNDguMDdMMC45Nyw0OC4wN0MwLjk3LDQ4LjA3LDAuOTcsNDguMDcsMC45Nyw0OC4wN3oiLz4mI3hhOwkJPC9nPiYjeGE7CQk8ZyBpZD0ic2hhcGU3MDkwLTUwIiB0cmFuc2Zvcm09InRyYW5zbGF0ZSg4LjE2ODI0LC00NC4xODE3KSI+JiN4YTsJCQk8dGl0bGUgaWQ9InRpdGxlMzExNzUzIj5TaGVldC43MDkwPC90aXRsZT4mI3hhOwkJCTxwYXRoIGlkPSJwYXRoMzExNzU1IiBpbmtzY2FwZTpjb25uZWN0b3ItY3VydmF0dXJlPSIwIiBzdHlsZT0iZmlsbDojRkZCOTAwOyIgZD0iTTAuOTUsNDcuODVjMCwwLTAuMDYsMC0wLjE2LTAuMDMgICAgIGMtMC4wNCwwLTAuMSwwLTAuMTYsMGMtMC4wMiwwLTAuMDYsMC0wLjEsMEgwLjUxSDAuNDdjLTAuMTIsMC4wMy0wLjIxLDAuMS0wLjMxLDAuMTZjLTAuMDMsMC4wMy0wLjA2LDAuMDMtMC4wOSwwLjA3ICAgICBjLTAuMDMsMC0wLjAzLDAtMC4wMywwYzAsMC4wMi0wLjA0LDAuMDItMC4wNCwwbDAsMGMwLDAsMC4wNC0wLjA3LDAuMS0wLjEzYzAuMDktMC4xLDAuMTktMC4xNiwwLjM1LTAuMjRoMC4wMiAgICAgYzAuMDQsMCwwLjA0LDAsMC4wNiwwYzAuMDQsMCwwLjEsMCwwLjE0LDBjMC4wNiwwLDAuMDgsMC4wNCwwLjE2LDAuMDRjMC4wMiwwLjA0LDAuMDgsMC4wNiwwLjA4LDAuMDYgICAgIGMwLjA0LDAuMDQsMC4wNiwwLjA0LDAuMDYsMC4wNHMwLDAsMCwwLjAzQzAuOTcsNDcuODUsMC45NSw0Ny44NSwwLjk1LDQ3Ljg1eiIvPiYjeGE7CQk8L2c+JiN4YTsJCTxnIGlkPSJzaGFwZTcwOTEtNTIiIHRyYW5zZm9ybT0idHJhbnNsYXRlKDkuMzM0ODcsLTQyLjQyNDIpIj4mI3hhOwkJCTx0aXRsZSBpZD0idGl0bGUzMTE3NTgiPlNoZWV0LjcwOTE8L3RpdGxlPiYjeGE7CQkJPHBhdGggaWQ9InBhdGgzMTE3NjAiIGlua3NjYXBlOmNvbm5lY3Rvci1jdXJ2YXR1cmU9IjAiIHN0eWxlPSJmaWxsOiNEOUIwN0Y7IiBkPSJNMC43OCw0Ni4zMmMwLDEuNzUsMCwxLjc1LDAsMS43NSAgICAgYy0wLjc4LDAtMC43OCwwLTAuNzgsMGMwLTAuMDQsMC4wNS0wLjExLDAuMS0wLjE1YzAuMTMtMC4xMSwwLjIzLTAuMywwLjI4LTAuNTNjMC4wMy0wLjc2LDAuMDMtMC43NiwwLjAzLTAuNzYgICAgIEMwLjQxLDQ2LjQsMC42OSw0Ni4zMiwwLjc4LDQ2LjMyeiIvPiYjeGE7CQk8L2c+JiN4YTsJCTxnIGlkPSJzaGFwZTcwOTItNTQiIHRyYW5zZm9ybT0idHJhbnNsYXRlKDIuMzM1MSwtMjQuNTIwNCkiPiYjeGE7CQkJPHRpdGxlIGlkPSJ0aXRsZTMxMTc2MyI+U2hlZXQuNzA5MjwvdGl0bGU+JiN4YTsJCQk8cGF0aCBpZD0icGF0aDMxMTc2NSIgaW5rc2NhcGU6Y29ubmVjdG9yLWN1cnZhdHVyZT0iMCIgc3R5bGU9ImZpbGw6I0U2MUUyNzsiIGQ9Ik00LjA2LDQ4LjA3bDYuMDUtNS45bC00LjEyLTQuMjJMMCw0My44OCAgICAgTDQuMDYsNDguMDd6Ii8+JiN4YTsJCTwvZz4mI3hhOwkJPGcgaWQ9InNoYXBlNzA5My01NiIgdHJhbnNmb3JtPSJ0cmFuc2xhdGUoMi4zMzUxLC0yNC41MjA0KSI+JiN4YTsJCQk8dGl0bGUgaWQ9InRpdGxlMzExNzY4Ij5TaGVldC43MDkzPC90aXRsZT4mI3hhOwkJCTxwYXRoIGlkPSJwYXRoMzExNzcwIiBpbmtzY2FwZTpjb25uZWN0b3ItY3VydmF0dXJlPSIwIiBzdHlsZT0iZmlsbDojRUQ0RTVBOyIgZD0iTTQuMDYsNDguMDdsNi4wNS01Ljg0TDAsNDMuOTNMNC4wNiw0OC4wN3oiLz4mI3hhOwkJPC9nPiYjeGE7CQk8ZyBpZD0ic2hhcGU3MDk0LTU4IiB0cmFuc2Zvcm09InRyYW5zbGF0ZSgwLjM5MDcxNSwtMzAuOTQyNCkiPiYjeGE7CQkJPHRpdGxlIGlkPSJ0aXRsZTMxMTc3MyI+U2hlZXQuNzA5NDwvdGl0bGU+JiN4YTsJCQk8cGF0aCBpZD0icGF0aDMxMTc3NSIgaW5rc2NhcGU6Y29ubmVjdG9yLWN1cnZhdHVyZT0iMCIgc3R5bGU9ImZpbGw6I0NFOUM1RTsiIGQ9Ik0wLDQ2LjRsMi4zNiwxLjY3bDQuMDYtNC42NGwtMy4yNC0yLjM3TDAsNDYuNCAgICAgeiIvPiYjeGE7CQk8L2c+JiN4YTsJCTxnIGlkPSJzaGFwZTcwOTUtNjAiIHRyYW5zZm9ybT0idHJhbnNsYXRlKDMuMTgyNzQsLTM0LjcxNzQpIj4mI3hhOwkJCTx0aXRsZSBpZD0idGl0bGUzMTE3NzgiPlNoZWV0LjcwOTU8L3RpdGxlPiYjeGE7CQkJPHBhdGggaWQ9InBhdGgzMTE3ODAiIGlua3NjYXBlOmNvbm5lY3Rvci1jdXJ2YXR1cmU9IjAiIHN0eWxlPSJmaWxsOiNFNkU3RTg7IiBkPSJNMC4zOCw0NC45NWMwLjYzLTAuODYsMS44Ni0xLjA5LDIuNzYtMC40MiAgICAgYzAuODksMC42NCwxLjA3LDEuODUsMC40NCwyLjc0Yy0wLjY3LDAuODUtMS44NiwxLjA3LTIuNzYsMC40NUMtMC4wNyw0Ny4wOS0wLjI2LDQ1Ljg3LDAuMzgsNDQuOTV6Ii8+JiN4YTsJCTwvZz4mI3hhOwkJPGcgaWQ9InNoYXBlNzA5Ni02MiIgdHJhbnNmb3JtPSJ0cmFuc2xhdGUoNS40NDYxMSwtMjYuNTQzMikiPiYjeGE7CQkJPHRpdGxlIGlkPSJ0aXRsZTMxMTc4MyI+U2hlZXQuNzA5NjwvdGl0bGU+JiN4YTsJCQk8cGF0aCBpZD0icGF0aDMxMTc4NSIgaW5rc2NhcGU6Y29ubmVjdG9yLWN1cnZhdHVyZT0iMCIgc3R5bGU9ImZpbGw6I0NEOUI1RTsiIGQ9Ik0xLjUzLDQ2Ljk1YzAuOTIsMC44NywxLjM3LDAuOTQsMi40MiwxLjA5ICAgICBjMC42MywwLjEsMC44NS0wLjA4LDAuNjMtMC4zYzAuNTUsMC4yNiwxLjExLTAuMTIsMC43MS0wLjNjMC4xNCwwLDAuNTEtMC4xMSwwLjUxLTAuMzRjMC4wMy0wLjE4LTAuMzctMC4yMi0wLjUxLTAuMjIgICAgIGMwLjE0LTAuMiwwLjExLTAuNDUtMC4zOC0wLjQ5Yy0wLjM4LTAuMDMtMC42LTAuMjMtMC42LTAuMjNjMC40NS0wLjExLDAuNi0wLjQxLDAuNDktMC41OWMtMC40OSwwLjAzLTEuMjMtMC4xNi0xLjgyLTAuMTEgICAgIGMtMC4xMSwwLTAuMjIsMC4wMy0wLjMzLDAuMDdjLTIuMzgtMS40Ny0yLjM4LTEuNDctMi4zOC0xLjQ3QzAsNDYuMTMsMCw0Ni4xMywwLDQ2LjEzTDEuNTMsNDYuOTV6Ii8+JiN4YTsJCTwvZz4mI3hhOwkJPGcgaWQ9InNoYXBlNzA5Ny02NCIgdHJhbnNmb3JtPSJ0cmFuc2xhdGUoMCwtMzAuMzY3MSkiPiYjeGE7CQkJPHRpdGxlIGlkPSJ0aXRsZTMxMTc4OCI+U2hlZXQuNzA5NzwvdGl0bGU+JiN4YTsJCQk8cGF0aCBpZD0icGF0aDMxMTc5MCIgaW5rc2NhcGU6Y29ubmVjdG9yLWN1cnZhdHVyZT0iMCIgc3R5bGU9ImZpbGw6I0NFOUM1RTsiIGQ9Ik0yLjI1LDQ1LjQyYzAuNjgsMC40MiwwLjg2LDEuMjgsMC40OSwxLjk5ICAgICBjLTAuNDIsMC42NC0xLjMzLDAuODYtMi4wMSwwLjQ1QzAsNDcuNDktMC4xOSw0Ni41OCwwLjIsNDUuOTFDMC42NSw0NS4xOSwxLjUyLDQ0Ljk2LDIuMjUsNDUuNDJ6Ii8+JiN4YTsJCTwvZz4mI3hhOwkJPGcgaWQ9InNoYXBlNzA5OC02NiIgdHJhbnNmb3JtPSJ0cmFuc2xhdGUoMC43Nzk1OTEsLTI3LjYzNDEpIj4mI3hhOwkJCTx0aXRsZSBpZD0idGl0bGUzMTE3OTMiPlNoZWV0LjcwOTg8L3RpdGxlPiYjeGE7CQkJPHBhdGggaWQ9InBhdGgzMTE3OTUiIGlua3NjYXBlOmNvbm5lY3Rvci1jdXJ2YXR1cmU9IjAiIHN0eWxlPSJmaWxsOiNDRTlDNUU7IiBkPSJNNi4yMiw0OC4wN2wwLjM5LTEuODNsLTUuMTMtMy40M0wwLDQ1LjE2ICAgICBMNi4yMiw0OC4wN3oiLz4mI3hhOwkJPC9nPiYjeGE7CQk8ZyBpZD0ic2hhcGU3MDk5LTY4IiB0cmFuc2Zvcm09InRyYW5zbGF0ZSgxLjE2ODQ3LC0zMi4zMDQ2KSI+JiN4YTsJCQk8dGl0bGUgaWQ9InRpdGxlMzExNzk4Ij5TaGVldC43MDk5PC90aXRsZT4mI3hhOwkJCTxwYXRoIGlkPSJwYXRoMzExODAwIiBpbmtzY2FwZTpjb25uZWN0b3ItY3VydmF0dXJlPSIwIiBzdHlsZT0iZmlsbDojRTZFN0U4OyIgZD0iTTAsNDUuOTVsMy4yMSwyLjEybDMuNC0zLjk4bC0yLjczLTEuNjdIMi40MiAgICAgTDAsNDUuOTV6Ii8+JiN4YTsJCTwvZz4mI3hhOwkJPGcgaWQ9InNoYXBlNzEwMC03MCIgdHJhbnNmb3JtPSJ0cmFuc2xhdGUoMTIuODM0OCwtMzEuMTM3KSI+JiN4YTsJCQk8dGl0bGUgaWQ9InRpdGxlMzExODAzIj5TaGVldC43MTAwPC90aXRsZT4mI3hhOwkJCTxwYXRoIGlkPSJwYXRoMzExODA1IiBpbmtzY2FwZTpjb25uZWN0b3ItY3VydmF0dXJlPSIwIiBzdHlsZT0iZmlsbDojQ0U5QzVFOyIgZD0iTTYuMjIsNDYuNzVsLTIuMzQsMS4zMkwwLDQzLjU0bDMuMTEtMi4yOCAgICAgTDYuMjIsNDYuNzV6Ii8+JiN4YTsJCTwvZz4mI3hhOwkJPGcgaWQ9InNoYXBlNzEwMS03MiIgdHJhbnNmb3JtPSJ0cmFuc2xhdGUoMTIuMzI5MSwtMzQuOTA3NSkiPiYjeGE7CQkJPHRpdGxlIGlkPSJ0aXRsZTMxMTgwOCI+U2hlZXQuNzEwMTwvdGl0bGU+JiN4YTsJCQk8cGF0aCBpZD0icGF0aDMxMTgxMCIgaW5rc2NhcGU6Y29ubmVjdG9yLWN1cnZhdHVyZT0iMCIgc3R5bGU9ImZpbGw6I0U2RTdFODsiIGQ9Ik0zLjYsNDQuOTFjLTAuNjYtMC44Ni0xLjg1LTEuMDUtMi43OS0wLjQxICAgICBjLTAuODksMC42Ny0xLjA4LDEuODYtMC40LDIuNzdjMC42MywwLjg4LDEuODYsMS4wNywyLjc2LDAuNDNDNC4wMiw0Ny4wNyw0LjIsNDUuODQsMy42LDQ0LjkxeiIvPiYjeGE7CQk8L2c+JiN4YTsJCTxnIGlkPSJzaGFwZTcxMDItNzQiIHRyYW5zZm9ybT0idHJhbnNsYXRlKDEzLjIyMzYsLTIyLjcwMSkiPiYjeGE7CQkJPHRpdGxlIGlkPSJ0aXRsZTMxMTgxMyI+U2hlZXQuNzEwMjwvdGl0bGU+JiN4YTsJCQk8cGF0aCBpZD0icGF0aDMxMTgxNSIgaW5rc2NhcGU6Y29ubmVjdG9yLWN1cnZhdHVyZT0iMCIgc3R5bGU9ImZpbGw6I0NEOUI1RTsiIGQ9Ik0zLjI5LDQ1LjEzYy0wLjE4LDEuMi0wLjQ3LDEuNTMtMS4xNCwyLjMgICAgIGMtMC40LDAuNDctMC42OCwwLjQ3LTAuNjQsMC4xOGMtMC4yNiwwLjU1LTAuOSwwLjU4LTAuNzIsMC4yMmMtMC4xMSwwLjA3LTAuNDMsMC4yNS0wLjU3LDAuMDdjLTAuMTUtMC4xMSwwLjExLTAuNCwwLjIyLTAuNDcgICAgIGMtMC4yMi0wLjA3LTAuMzctMC4yOSwwLTAuNjJjMC4yNC0wLjI2LDAuMzEtMC41NSwwLjMxLTAuNTVDMC4zMyw0Ni40NCwwLjA0LDQ2LjMzLDAsNDYuMTFjMC40LTAuMjUsMC44My0wLjg3LDEuMjktMS4yICAgICBjMC4xMS0wLjA3LDAuMjItMC4xNSwwLjMzLTAuMThjMC44NS0yLjU3LDAuODUtMi41NywwLjg1LTIuNTdjMS40MiwxLjM2LDEuNDIsMS4zNiwxLjQyLDEuMzZMMy4yOSw0NS4xM3oiLz4mI3hhOwkJPC9nPiYjeGE7CQk8ZyBpZD0ic2hhcGU3MTAzLTc2IiB0cmFuc2Zvcm09InRyYW5zbGF0ZSgxNy4wODA3LC0zMC43MjEyKSI+JiN4YTsJCQk8dGl0bGUgaWQ9InRpdGxlMzExODE4Ij5TaGVldC43MTAzPC90aXRsZT4mI3hhOwkJCTxwYXRoIGlkPSJwYXRoMzExODIwIiBpbmtzY2FwZTpjb25uZWN0b3ItY3VydmF0dXJlPSIwIiBzdHlsZT0iZmlsbDojQ0U5QzVFOyIgZD0iTTAuNTIsNDUuODZjLTAuNSwwLjM0LTAuNjgsMS4xMS0wLjM1LDEuNjYgICAgIGMwLjMxLDAuNTMsMC45OSwwLjcyLDEuNTMsMC4zOGMwLjUzLTAuMzEsMC42Ni0xLjA0LDAuMzUtMS42MUMxLjczLDQ1LjcxLDEuMDUsNDUuNTEsMC41Miw0NS44NnoiLz4mI3hhOwkJPC9nPiYjeGE7CQk8ZyBpZD0ic2hhcGU3MTA0LTc4IiB0cmFuc2Zvcm09InRyYW5zbGF0ZSgxNC45NzM2LC0yNS40OTM0KSI+JiN4YTsJCQk8dGl0bGUgaWQ9InRpdGxlMzExODIzIj5TaGVldC43MTA0PC90aXRsZT4mI3hhOwkJCTxwYXRoIGlkPSJwYXRoMzExODI1IiBpbmtzY2FwZTpjb25uZWN0b3ItY3VydmF0dXJlPSIwIiBzdHlsZT0iZmlsbDojQ0U5QzVFOyIgZD0iTTEuNTEsNDguMDdMMCw0Ni44OWwxLjctNi4wMmwyLjU4LDEuMDYgICAgIEwxLjUxLDQ4LjA3eiIvPiYjeGE7CQk8L2c+JiN4YTsJCTxnIGlkPSJzaGFwZTcxMDUtODAiIHRyYW5zZm9ybT0idHJhbnNsYXRlKDExLjg2MjYsLTMyLjQ5OTMpIj4mI3hhOwkJCTx0aXRsZSBpZD0idGl0bGUzMTE4MjgiPlNoZWV0LjcxMDU8L3RpdGxlPiYjeGE7CQkJPHBhdGggaWQ9InBhdGgzMTE4MzAiIGlua3NjYXBlOmNvbm5lY3Rvci1jdXJ2YXR1cmU9IjAiIHN0eWxlPSJmaWxsOiNFNkU3RTg7IiBkPSJNNi40Miw0NmwtMy4wOCwyLjA3TDAsNDQuMjZsMi42NC0xLjY0aDEuNDcgICAgIEw2LjQyLDQ2eiIvPiYjeGE7CQk8L2c+JiN4YTsJPC9nPiYjeGE7PC9nPiYjeGE7PC9zdmc+;fontStyle=1" parent="1" vertex="1">
          <mxGeometry x="-564" y="-1093" width="22.63" height="57" as="geometry" />
        </mxCell>
        <mxCell id="A0nYaDOjtjgqWgvlFO7J-142" value="" style="sketch=0;pointerEvents=1;shadow=0;dashed=0;html=1;strokeColor=none;fillColor=#434445;aspect=fixed;labelPosition=center;verticalLabelPosition=bottom;verticalAlign=top;align=center;outlineConnect=0;shape=mxgraph.vvd.laptop;" parent="1" vertex="1">
          <mxGeometry x="-491" y="-1083" width="50" height="36" as="geometry" />
        </mxCell>
        <mxCell id="A0nYaDOjtjgqWgvlFO7J-143" value="" style="edgeStyle=orthogonalEdgeStyle;rounded=0;orthogonalLoop=1;jettySize=auto;html=1;strokeColor=#FF0000;" parent="1" source="A0nYaDOjtjgqWgvlFO7J-142" target="A0nYaDOjtjgqWgvlFO7J-144" edge="1">
          <mxGeometry relative="1" as="geometry">
            <Array as="points">
              <mxPoint x="-447" y="-1065" />
              <mxPoint x="-447" y="-1065" />
            </Array>
            <mxPoint x="-412" y="-1064.5" as="sourcePoint" />
          </mxGeometry>
        </mxCell>
        <mxCell id="A0nYaDOjtjgqWgvlFO7J-144" value="" style="shape=image;verticalLabelPosition=bottom;labelBackgroundColor=default;verticalAlign=top;aspect=fixed;imageAspect=0;image=https://gremlin.awsworkshop.io/images/gremlin_mascot.png;" parent="1" vertex="1">
          <mxGeometry x="-389" y="-1079" width="53.05" height="29" as="geometry" />
        </mxCell>
        <mxCell id="A0nYaDOjtjgqWgvlFO7J-146" value="" style="edgeStyle=orthogonalEdgeStyle;rounded=0;orthogonalLoop=1;jettySize=auto;html=1;strokeColor=#009900;" parent="1" source="1fuZ47LUaq4kGTlMKida-20" target="A0nYaDOjtjgqWgvlFO7J-142" edge="1">
          <mxGeometry relative="1" as="geometry">
            <mxPoint x="-647" y="-1173" as="targetPoint" />
            <Array as="points">
              <mxPoint x="-462" y="-968" />
              <mxPoint x="-462" y="-968" />
            </Array>
            <mxPoint x="-592" y="-857.9333333333334" as="sourcePoint" />
          </mxGeometry>
        </mxCell>
        <mxCell id="A0nYaDOjtjgqWgvlFO7J-157" value="" style="edgeStyle=orthogonalEdgeStyle;rounded=0;orthogonalLoop=1;jettySize=auto;html=1;strokeColor=#009900;" parent="1" source="A0nYaDOjtjgqWgvlFO7J-158" edge="1">
          <mxGeometry relative="1" as="geometry">
            <mxPoint x="84" y="548.8333333333335" as="targetPoint" />
            <Array as="points">
              <mxPoint x="66" y="549" />
              <mxPoint x="66" y="549" />
            </Array>
          </mxGeometry>
        </mxCell>
        <mxCell id="A0nYaDOjtjgqWgvlFO7J-158" value="" style="shape=image;verticalLabelPosition=bottom;labelBackgroundColor=default;verticalAlign=top;aspect=fixed;imageAspect=0;image=https://brandslogos.com/wp-content/uploads/images/large/ansible-logo.png;clipPath=inset(0% 0.41% 19.33% 0% round 49%);" parent="1" vertex="1">
          <mxGeometry x="-23" y="528" width="41.88" height="41.71" as="geometry" />
        </mxCell>
        <mxCell id="A0nYaDOjtjgqWgvlFO7J-159" value="" style="edgeStyle=orthogonalEdgeStyle;rounded=0;orthogonalLoop=1;jettySize=auto;html=1;strokeColor=#009900;" parent="1" source="A0nYaDOjtjgqWgvlFO7J-160" target="k0CTzh7-vUOgCoUulJSG-58" edge="1">
          <mxGeometry relative="1" as="geometry">
            <Array as="points">
              <mxPoint x="-339" y="-609" />
              <mxPoint x="-339" y="-609" />
            </Array>
            <mxPoint x="-63.700000000000045" y="-714.1300000000001" as="targetPoint" />
          </mxGeometry>
        </mxCell>
        <mxCell id="A0nYaDOjtjgqWgvlFO7J-160" value="" style="shape=image;verticalLabelPosition=bottom;labelBackgroundColor=default;verticalAlign=top;aspect=fixed;imageAspect=0;image=data:image/png,iVBORw0KGgoAAAANSUhEUgAAACcAAAAzCAYAAAAU5BG4AAAAAXNSR0IArs4c6QAAAARnQU1BAACxjwv8YQUAAAAJcEhZcwAADsMAAA7DAcdvqGQAAA33SURBVGhDzZgJrJ1lmcf/39nvvrV36e3ldqGCpexYyIhkpJWoUQZEE0nGsGVMxBiDmQVZMjLj6IwhI2OiDssYRIOiGBwVcaHEDBiVAZG2IrWU9l663rZ3384+v/97zrnlXi69vbMk87Tf/c753vd73/+z/Z/nPVEZ0f9T+V8BV2KFEn+K3KNIivMnHqsO/g/kvwWuWJImciWNzJQ0zn06XwJgpLAS4CLu9clIzelI7XVxNXFPxBhYpiwLXAFQhycK2jOaVyoZV1tjTDE2LRlQdU4Q5gnLFQtlHR0tsEmk9W1xdTXFlwXylMHtY5OXjua0oTeN66L5YJYSthidKmpssqiNK1PqboxXB04uJwXngclsSTuGcqpjwdb6OLF1YqwGsHavLeTvCxd1LBYJysMjBbUlY1rfnlAdrj+ZvCk4B/cRNN03nld7cxI34j6eOc47klK2KI0yyfPyIM4zWFsoCZJ0nKTgHjOq14nnjLJuMVfWBgC2ZWIB+GKyKLgQWyywfwotmxJKsJHfZx1lmV3HKxNkxVCuADjGFi7OHC+aYKAuEVOG95PRCRAOu5Hpoma4zmhPkTTE7iIA3wDOmThEfOznxUbcmEqQabxILIv4156ZooayBLn/sVs57vjhc7kUFCj5mYGUmOMYYHWeqCGZUD38kgSFNzRQW3CW9TauSKkVgAtlHjh/MD0M4Mp0Jq50Kib+q539Z3Hb8VxRh/Cn3VWKJxQr5tVy4A9KD+1Vojhb4btYGtMkNbX+Ao139Ckq5hQDZIltUoBrSsTxAIsCztY6OlFUxLqbOtNviMF54KbzZe0dw1W81YAmFWCRporEHpY0QC9oyzQP7dPKF3+g7he/o9i+/6ws4JWcMMTj5Nuu07GNl2v43K2aaOlSvJAPwwlQNabiqgOgref1DgzntAJqOnMlwfw6mQNnrY8CYABTdzQnsA6BnwAwET84U9AMdy9UjMXVvfd59f/wDmV2bKuAaV1JFjRVfGUGHpmFpQ9KDdL4Rddr8M9u0/HudfMANgEwgyV5A6Ypa+BwThf2pOe5dw7cJNmz63hODY0JJQmyVoCZnwZmi5qiAnjfEsAax4/ovC+ej7WOSZdeQ6rmpYGdFZBxNHcI5phMMqk4Ig0f1/RlH9TOG76qbF0zG5YCwBSathKHJmWvPYFhCoTUhfBoTQJMT85iGcaUxO9Um+DS44CaJnX9ssVxdvY9fYrtBVjfBukt50kbzpJwmwpYK0ziSnF55VQ7cdGl+hce1Zqffln5lAewCFeezJvmsml8NWExig/Pw5QgAVwRn45Dtiua48Ertqzjb4S6aeBhDsC6Xtup5Ct86VqLdVjlN7j1d8/hxsNolalM9Ave3SAtKdyNtOz4vjqO7A3WD4LGUwVTUXUHvjdDB65ENQngMJBeGy/hzligDSfNGBbLArpqNBUSCb31p3dT0fkSxwJe8whID78Uxp2hJ4TBQDHcbfbMaUoP/E49P/sqSp6Y5zjP8cdLGWN9KtLgWC58tsQmYNXfDM4oT4p5HYMrMOrMrAGz2KL6j4dwUz+TsBoLKYW1EkS9wc4TxqKqBSJikkxkAyVHBpUsZQOYMMSGdm0NjY0zhceeO5DVFDkQOzRewGpF2ppYmOMsZTyAq6GzKxqmRyvWOj4gDWKx4QNoMcaKgHi9FhZr4jIzy7yJfbh9b3Czp8UMBioK07hy0BRP5qSZFmv/WD6EWcx9mctLHeAsfsGWy3H5szktns/qzJ9/G67hwYbrpM2fkFa9H7cC4uCraIRZagBjPCvNSMcAFCdZzrxeOu8mqe0cNe3eq45XtgdL1fziuwm6Jg3ORsSPomf2zZQPTha0sS8DQ5vBpRm03jdN+WFemUS4+N7blX7oC9ITr6rct7YCGo2j3z4tfR46mRqWzljvrMHNAN0OsLf+qfSFf1e5Efrw/IkxRT/8uvS5T2r3fU/r8MaLKW/FAGJFOhGqh+dNQl17DmZ1cV9dJSEsFbzcrURVE1PHqj88q9TjJ4Dt2rVL27Zt04FDh1S+8DLprx5m9dNwHfSS4r1BgF14pXT3j1RuaNb27dv11FNPaWgWAr7qRunWf9aqx+5R/ehRlV3GvE/4WxVbBDT+OzdqOqmJ2xwPlsjQ7ie/rejj96rc2ROeffr227V161Z97cEHCR3idNMl0mW4bYz48xKEpq67TeVMHTqWdMstt2jLli165FsPK6pvVHnjZjUcfE6Nh6CVauzNCRsU8ZorkTE6QsKaObLAd2vhwu52x1KagOVX9vCwwk9tHR1a3d+v+gay1FIHtzS2VtQsQcQ8Lq/sDau7+LS0tmrNunWqrzcHIbhZPefC+tmqlSpJaLHDZpyN1e8+AgS2npolNPlsgib0QpJ4cpSGJqYm2NhsXtZdd96p+++7T39+7bXhe+ix6E6CVhEKgC/KkhCMmSr+7jOf0QP336+rr746KK8cE3BpROnyHP+rRFtFxmjXvKxxxTbQ1m4m+Aq4wGLvpljUyRsVCxq9lEUf/5qi2ekwvrq3V+++4gp1dVGyrM0fd0i/egwG9Wq8ZMr7AYHPuwa3adMmbbn8crW3U8rMnYcGVMgd1eyKVaHOZvCIgVhKGCCHnhdRX5vpbGMrGuI6jSrf25AIcQf3BSM0QohpGsZ9F23Fdbjt3r+HT00ZlWaRD4oGdiv65j9Jr/xS6lyHC7DcGkrbI/+g6LF/C+BOzAfYzmelOz6kw9d8VmMr+4xGDT7geh6SxaVrW5PqpSvKUA1CV2JruV16lcrbyWADc+HCQCej+Dk5O6E/+dc74TS6jy3XMtgICR+RtlExxrDcaQCzS31GdDczO8nLtEyXkJ3nXWo9yOI/YtF/1NDHvq5XLvuAislkCHjTiDsTW2+Qg9TmbppOVx8kgPOHsdmSXuDotxo3x5npQ4wL/wHa6ALfc4mktt6MlvZujsudjWt63WpWIdgNLAjLxblKJNIR6MVzeU1DGOCD1+mlv3hQsQL1E45rT3ECozO25MjS4eGC3t5fbSAQvxbEPt4IopFJWmq+U0HUk+Y4SHaEkuOUclOJh0W2qgtuqzsdEHWVLJoT5hUMlBjrgZjXrCFQmfsWHjW0UQq5484MJTFV5TnfBjHMWZ3za/QcOC/nI12JhspaOPb2ozVJjC2IF9s3jftcz4toFy6+5HYzCZflphiDHrLjfKeeura6YhQwcQFf+z13JDxOomgznbA95HAbpvvu5Myy8JAz71sr1utvSWpyygcSZzo8hdkb3VUYXAt8V202xIFGGTjrLGpt79sY309CACp5SFr7DkBAJyRUkBJuQJeosVMJMtSHHHfCNkiuUNYo55aNC6xmmQfOWnSAvh1XjlJvQ0HmmRdr9kr1uNU+t5jdx7drpOt0jd5K03njI9J7Pyt96pc68InvApauhZNXkDJ+Z3ocZRwmPjtYcnTfhzganN2VCkfQhTIPnMUmX0VH3EIgjGNuAzQlYFCQE/w1cAncRTI8ThZ/7q6/1ZP5lfr12vfo0ZeO6tabP1qZ537PYsvVr1KiszewgBWehTaOY7ENsEMH5+M3QlsEnKUOLfpaiAG4bphez/zniflugtvutfjOieui1Wv0xN1f1Lved5VuvOlGfejqq9Sx88csQgZE5hWkRBym2pRvXRXem+SwMg1N9dMCdXPVytdCWRScxQfcfsi5i1IxNlHSKHFYbOvGVdUJFvr7M1fV64Fr1uvjpyd1wdSA7tzco3veQXaiWAhcS5lEwZXZVF1QtozVDKwn/CRWmbKYzPHcm4nXPwZBj+CZxh1Pq/dL76QROKM6ilhr1zqsQVekjH9QieNTPs/J1C5Nrt6sl296Qq1tLeqk1DVxvKsWhjeVk+CuiJm7kxK3hpNRmw/KFc48IVYNAvfhIxMajwXALPF6pbJjOn1sj/qbY2pGmaWAWZYEFwTjpvfvVv3Df435qs8Win8LM3PUEub1ku5UanCXWp98SMlxqsbJnTUnJ3crTK4Xfy397Dtc/1LZ/FzoJE+Z4BSlONVhSWH5iEA9vieUsAD+w3dJ76FG91FBqlViMVky5pQDxDSFvICvXAVupmS5A0ljwhxt71IAi7w/BTlfAJgbUNAK0yWHGOAYcDJZ2q0p+Ky1g/aBTG3AYo45n5A2XU4SDFY2r/aCc1JACVcHk7A7aA+30B23YfUO+kDOFksBs5xazNXEHYSrjBuBdPXk7qphADWABtYMH5qkc3ul9RyCQmeyvK0sy3uj9iuST/Nx2N9v17cA1sFYjY4i4Nqxsif6tx1IOtxjS1tqoSwTHBt4DxvJZwDTgWOnVuAdvqGOsqzBeF4zQH2nH1yuLB9c2m4EjOMvVAu7lA85ulC7tEipSgbfV1Z3vPr+f245Z5p9VKQtaiOwbQwDyb1G6wLoTjLZUgaw23YbtImm0zF3ck5YVE4N3DRHw92/lX78FekFPq//MCWM7POG1EthMK07Xzr7igrgAqja6f0MqpsDD/VeT3AGeeZ70sDvK+udgpwaOLszw2m5gxPTXQC86i+lnzxAMjDWTctuEF1w33oA2qNjWPbt13Aq4/PLz0t/84x00zeqcceWoXQtbcpTA5fGOqtpgS65Ujr/3dIB2D4Bso/9AsAEPF+VJnt9rrDn9z8lbb0BRT4vPfZp6VlaqIYVnD3OwYpUBSu6aAc3X5auEAslD+nOUDHsGv9GtxOrHBuQruAY2HeW9KMv4f5bIemPSGfQrm+4AAIGWIaKYlC1BvQUZPngamLSzeNPjnlBbF3zoIFnCUInhIH4ee134GWJ9F/oXaAWlCYx1QAAAABJRU5ErkJggg==;" parent="1" vertex="1">
          <mxGeometry x="-353" y="-699.23" width="27.12" height="35.46" as="geometry" />
        </mxCell>
        <mxCell id="A0nYaDOjtjgqWgvlFO7J-178" value="" style="edgeStyle=orthogonalEdgeStyle;rounded=0;orthogonalLoop=1;jettySize=auto;html=1;strokeColor=#009900;" parent="1" source="ZLGVQ2rk_Wr_WkTqdJoq-90" target="A0nYaDOjtjgqWgvlFO7J-160" edge="1">
          <mxGeometry relative="1" as="geometry">
            <mxPoint x="-396.0000000000002" y="-713.639090909091" as="sourcePoint" />
            <mxPoint x="-271" y="-690" as="targetPoint" />
            <Array as="points">
              <mxPoint x="-191" y="-679" />
            </Array>
          </mxGeometry>
        </mxCell>
        <mxCell id="A0nYaDOjtjgqWgvlFO7J-182" value="" style="edgeStyle=orthogonalEdgeStyle;rounded=0;orthogonalLoop=1;jettySize=auto;html=1;strokeColor=#FF0000;" parent="1" source="A0nYaDOjtjgqWgvlFO7J-74" target="o8NhPEG-I7pwkK3t7siS-10" edge="1">
          <mxGeometry relative="1" as="geometry">
            <mxPoint x="308" y="-919" as="targetPoint" />
            <Array as="points">
              <mxPoint x="970" y="-144" />
              <mxPoint x="970" y="-144" />
            </Array>
            <mxPoint x="910" y="-270" as="sourcePoint" />
          </mxGeometry>
        </mxCell>
        <mxCell id="yvz_mEQcSD7JRhoXDO8C-1" value="" style="rounded=0;whiteSpace=wrap;html=1;" parent="1" vertex="1">
          <mxGeometry x="-462" y="-563" width="458" height="456" as="geometry" />
        </mxCell>
        <mxCell id="yvz_mEQcSD7JRhoXDO8C-3" value="" style="shape=image;verticalLabelPosition=bottom;labelBackgroundColor=default;verticalAlign=top;aspect=fixed;imageAspect=0;image=https://www.pngkey.com/png/full/98-985032_flask-logo-flask-python-icon.png;clipPath=inset(0% 0.64% 30.67% 0%);" parent="1" vertex="1">
          <mxGeometry x="356" y="-147" width="31.16" height="28" as="geometry" />
        </mxCell>
        <mxCell id="yvz_mEQcSD7JRhoXDO8C-6" value="" style="shape=image;verticalLabelPosition=bottom;labelBackgroundColor=default;verticalAlign=top;aspect=fixed;imageAspect=0;image=https://uxwing.com/wp-content/themes/uxwing/download/file-and-folder-type/yaml-file-icon.png;" parent="1" vertex="1">
          <mxGeometry x="-433" y="-167.47" width="32.06" height="34.06" as="geometry" />
        </mxCell>
        <mxCell id="yvz_mEQcSD7JRhoXDO8C-7" value="" style="edgeStyle=orthogonalEdgeStyle;rounded=0;orthogonalLoop=1;jettySize=auto;html=1;strokeColor=#FF0000;" parent="1" source="yvz_mEQcSD7JRhoXDO8C-8" target="yvz_mEQcSD7JRhoXDO8C-3" edge="1">
          <mxGeometry relative="1" as="geometry">
            <Array as="points">
              <mxPoint x="-588" y="-478" />
              <mxPoint x="-588" y="-34" />
            </Array>
            <mxPoint x="-320" y="-414.9200000000001" as="sourcePoint" />
          </mxGeometry>
        </mxCell>
        <mxCell id="yvz_mEQcSD7JRhoXDO8C-8" value="" style="rounded=0;whiteSpace=wrap;html=1;" parent="1" vertex="1">
          <mxGeometry x="-429.95" y="-538" width="285.95" height="121" as="geometry" />
        </mxCell>
        <mxCell id="yvz_mEQcSD7JRhoXDO8C-9" value="requirements" style="shape=image;verticalLabelPosition=bottom;labelBackgroundColor=default;verticalAlign=top;aspect=fixed;imageAspect=0;image=https://cdn0.iconfinder.com/data/icons/file-types-64/512/136_txt_file_type_file_format_file_extension_document-1024.png;clipPath=inset(2.33% 7% 2.67% 7%);fontStyle=1" parent="1" vertex="1">
          <mxGeometry x="-215.0999999999999" y="-520.09" width="29.87" height="33" as="geometry" />
        </mxCell>
        <mxCell id="yvz_mEQcSD7JRhoXDO8C-10" value="" style="shape=image;verticalLabelPosition=bottom;labelBackgroundColor=default;verticalAlign=top;aspect=fixed;imageAspect=0;image=https://miro.medium.com/v2/resize:fit:310/1*v9mRLYURwpm3vWzNBmWYTg.png;clipPath=inset(13.41% 38% 50.81% 38%);" parent="1" vertex="1">
          <mxGeometry x="-313.77" y="-511.5" width="22.5" height="27.5" as="geometry" />
        </mxCell>
        <mxCell id="yvz_mEQcSD7JRhoXDO8C-11" value="" style="shape=image;verticalLabelPosition=bottom;labelBackgroundColor=default;verticalAlign=top;aspect=fixed;imageAspect=0;image=https://velog.velcdn.com/images/juheesvt/post/d60e6668-f172-4349-b022-00b0368f6e42/image.png;clipPath=inset(34.62% 13.67% 35.21% 14%);" parent="1" vertex="1">
          <mxGeometry x="-280" y="-507" width="46" height="10.81" as="geometry" />
        </mxCell>
        <mxCell id="yvz_mEQcSD7JRhoXDO8C-12" value="" style="shape=image;verticalLabelPosition=bottom;labelBackgroundColor=default;verticalAlign=top;aspect=fixed;imageAspect=0;image=data:image/png,iVBORw0KGgoAAAANSUhEUgAAABoAAAAbCAYAAABiFp9rAAAAAXNSR0IArs4c6QAAAARnQU1BAACxjwv8YQUAAAAJcEhZcwAADsMAAA7DAcdvqGQAAANKSURBVEhLvVY9TBNhGH7u2rv+ohRQEEiMihswkBB0Ek1MTIwuLiYmTk4m4qgJiw4ODi66qXEzDjoZF2NiWFQaBxV0UBA0oUYQqfLTH9re+bx3PXrXFlqI+iSX++6+73uf7/3/lGis1cR/gFp8/3PU1ijH6WVnSflSBfDxta32eTcmShowOoLIH++A2cJ3TxPM1iCU72naQoF/bAHq+yS0xzNcTLLY+oTViSwtClg914XVs/sBP0+u8CkYQKYABEUNwkfBpgnl6wq05wnodyaBKOc0ri1DJdEStWgOIDPcA+PgTuD3anFiAwixRtLpZYQvxKEmuafBq52XiJoYER2pR4O2Fiv54kSdaNRtsvOjUNM5j2ZeWppLNNkSieAXNdkTRerWAGV595eI6HjxiWWurZA4ELKuBmSHey2ZDlwakejMvvp84kbYTwtQTIRvBwyYfHcTB+VEiwZyJztth24G23Xo9z4hfGoEany+REYic3cEuROUSdkCWzIj1uiO2eFaLxoDCFx9C/3uJNSfKUldL/gjd7Sdsu1YK0o2rWS08qQcYhonbxwIyZU30J5IoppI3TyAwpFdXt+SwNwRKn64fCQZbyWjG7EAT/wRSLAScGyhgmQAxiBJ5rimHExmB+vbKqJBezhNH0wifDEO5eUca5peP4n4qa2KRsosF7tNRDPm+lpQ6G+Bj7UtdGMcoaFRkiQ4WYNEQFnKbKb44Sb6wZ8+l0vFjHujSF/uRb6/GeqXNHzvkpwwapMIGFj+8QUObJk2EQm0Z9/WImQNknwM0/SlXoZqB8CyUheJgBaRym61EcKudVLj6OTUg0NAtiwgBI5Js4zKMMf1VA4ePnr4KYPIzi1bIxY/dSaDwPUxlnnN+uWBmFEeiaJ6SCSR73/moBRrpVFUgW88CeU1M9wJ5a2Ae9VXc1YiuxthaSRaJTIIXaNWU0t2yd8s5IATiwgPxddM5qBEJGCzUuezVj+RvoKGKmasBvEhzaW+mEX09AhJKvdVb+XSZdt4RzjWbrdyOY7UwYpWztDl3UGZWi618jJNHFQnEhRvP0ZnEIW+Jqvoei4nvEOoDHHfhyT02xPcwINs+nLihhCm+VhRX20ptdqAwEFtor8C4A/250odYSyyigAAAABJRU5ErkJggg==;clipPath=inset(12.96% 11.54% 5.56% 7.69% round 49%);" parent="1" vertex="1">
          <mxGeometry x="-262.89" y="-465" width="25.772727272727273" height="27" as="geometry" />
        </mxCell>
        <mxCell id="yvz_mEQcSD7JRhoXDO8C-13" value="" style="shape=image;verticalLabelPosition=bottom;labelBackgroundColor=default;verticalAlign=top;aspect=fixed;imageAspect=0;image=data:image/png,iVBORw0KGgoAAAANSUhEUgAAABoAAAAbCAYAAABiFp9rAAAAAXNSR0IArs4c6QAAAARnQU1BAACxjwv8YQUAAAAJcEhZcwAADsMAAA7DAcdvqGQAAANKSURBVEhLvVY9TBNhGH7u2rv+ohRQEEiMihswkBB0Ek1MTIwuLiYmTk4m4qgJiw4ODi66qXEzDjoZF2NiWFQaBxV0UBA0oUYQqfLTH9re+bx3PXrXFlqI+iSX++6+73uf7/3/lGis1cR/gFp8/3PU1ijH6WVnSflSBfDxta32eTcmShowOoLIH++A2cJ3TxPM1iCU72naQoF/bAHq+yS0xzNcTLLY+oTViSwtClg914XVs/sBP0+u8CkYQKYABEUNwkfBpgnl6wq05wnodyaBKOc0ri1DJdEStWgOIDPcA+PgTuD3anFiAwixRtLpZYQvxKEmuafBq52XiJoYER2pR4O2Fiv54kSdaNRtsvOjUNM5j2ZeWppLNNkSieAXNdkTRerWAGV595eI6HjxiWWurZA4ELKuBmSHey2ZDlwakejMvvp84kbYTwtQTIRvBwyYfHcTB+VEiwZyJztth24G23Xo9z4hfGoEany+REYic3cEuROUSdkCWzIj1uiO2eFaLxoDCFx9C/3uJNSfKUldL/gjd7Sdsu1YK0o2rWS08qQcYhonbxwIyZU30J5IoppI3TyAwpFdXt+SwNwRKn64fCQZbyWjG7EAT/wRSLAScGyhgmQAxiBJ5rimHExmB+vbKqJBezhNH0wifDEO5eUca5peP4n4qa2KRsosF7tNRDPm+lpQ6G+Bj7UtdGMcoaFRkiQ4WYNEQFnKbKb44Sb6wZ8+l0vFjHujSF/uRb6/GeqXNHzvkpwwapMIGFj+8QUObJk2EQm0Z9/WImQNknwM0/SlXoZqB8CyUheJgBaRym61EcKudVLj6OTUg0NAtiwgBI5Js4zKMMf1VA4ePnr4KYPIzi1bIxY/dSaDwPUxlnnN+uWBmFEeiaJ6SCSR73/moBRrpVFUgW88CeU1M9wJ5a2Ae9VXc1YiuxthaSRaJTIIXaNWU0t2yd8s5IATiwgPxddM5qBEJGCzUuezVj+RvoKGKmasBvEhzaW+mEX09AhJKvdVb+XSZdt4RzjWbrdyOY7UwYpWztDl3UGZWi618jJNHFQnEhRvP0ZnEIW+Jqvoei4nvEOoDHHfhyT02xPcwINs+nLihhCm+VhRX20ptdqAwEFtor8C4A/250odYSyyigAAAABJRU5ErkJggg==;clipPath=inset(12.96% 11.54% 5.56% 7.69% round 49%);" parent="1" vertex="1">
          <mxGeometry x="-211" y="-465" width="25.772727272727273" height="27" as="geometry" />
        </mxCell>
        <mxCell id="yvz_mEQcSD7JRhoXDO8C-14" value="" style="shape=image;verticalLabelPosition=bottom;labelBackgroundColor=default;verticalAlign=top;aspect=fixed;imageAspect=0;image=data:image/png,iVBORw0KGgoAAAANSUhEUgAAABoAAAAbCAYAAABiFp9rAAAAAXNSR0IArs4c6QAAAARnQU1BAACxjwv8YQUAAAAJcEhZcwAADsMAAA7DAcdvqGQAAANKSURBVEhLvVY9TBNhGH7u2rv+ohRQEEiMihswkBB0Ek1MTIwuLiYmTk4m4qgJiw4ODi66qXEzDjoZF2NiWFQaBxV0UBA0oUYQqfLTH9re+bx3PXrXFlqI+iSX++6+73uf7/3/lGis1cR/gFp8/3PU1ijH6WVnSflSBfDxta32eTcmShowOoLIH++A2cJ3TxPM1iCU72naQoF/bAHq+yS0xzNcTLLY+oTViSwtClg914XVs/sBP0+u8CkYQKYABEUNwkfBpgnl6wq05wnodyaBKOc0ri1DJdEStWgOIDPcA+PgTuD3anFiAwixRtLpZYQvxKEmuafBq52XiJoYER2pR4O2Fiv54kSdaNRtsvOjUNM5j2ZeWppLNNkSieAXNdkTRerWAGV595eI6HjxiWWurZA4ELKuBmSHey2ZDlwakejMvvp84kbYTwtQTIRvBwyYfHcTB+VEiwZyJztth24G23Xo9z4hfGoEany+REYic3cEuROUSdkCWzIj1uiO2eFaLxoDCFx9C/3uJNSfKUldL/gjd7Sdsu1YK0o2rWS08qQcYhonbxwIyZU30J5IoppI3TyAwpFdXt+SwNwRKn64fCQZbyWjG7EAT/wRSLAScGyhgmQAxiBJ5rimHExmB+vbKqJBezhNH0wifDEO5eUca5peP4n4qa2KRsosF7tNRDPm+lpQ6G+Bj7UtdGMcoaFRkiQ4WYNEQFnKbKb44Sb6wZ8+l0vFjHujSF/uRb6/GeqXNHzvkpwwapMIGFj+8QUObJk2EQm0Z9/WImQNknwM0/SlXoZqB8CyUheJgBaRym61EcKudVLj6OTUg0NAtiwgBI5Js4zKMMf1VA4ePnr4KYPIzi1bIxY/dSaDwPUxlnnN+uWBmFEeiaJ6SCSR73/moBRrpVFUgW88CeU1M9wJ5a2Ae9VXc1YiuxthaSRaJTIIXaNWU0t2yd8s5IATiwgPxddM5qBEJGCzUuezVj+RvoKGKmasBvEhzaW+mEX09AhJKvdVb+XSZdt4RzjWbrdyOY7UwYpWztDl3UGZWi618jJNHFQnEhRvP0ZnEIW+Jqvoei4nvEOoDHHfhyT02xPcwINs+nLihhCm+VhRX20ptdqAwEFtor8C4A/250odYSyyigAAAABJRU5ErkJggg==;clipPath=inset(12.96% 11.54% 5.56% 7.69% round 49%);" parent="1" vertex="1">
          <mxGeometry x="-313" y="-465" width="25.772727272727273" height="27" as="geometry" />
        </mxCell>
        <mxCell id="yvz_mEQcSD7JRhoXDO8C-15" value="" style="shape=image;verticalLabelPosition=bottom;labelBackgroundColor=default;verticalAlign=top;aspect=fixed;imageAspect=0;image=data:image/png,iVBORw0KGgoAAAANSUhEUgAAABoAAAAbCAYAAABiFp9rAAAAAXNSR0IArs4c6QAAAARnQU1BAACxjwv8YQUAAAAJcEhZcwAADsMAAA7DAcdvqGQAAANKSURBVEhLvVY9TBNhGH7u2rv+ohRQEEiMihswkBB0Ek1MTIwuLiYmTk4m4qgJiw4ODi66qXEzDjoZF2NiWFQaBxV0UBA0oUYQqfLTH9re+bx3PXrXFlqI+iSX++6+73uf7/3/lGis1cR/gFp8/3PU1ijH6WVnSflSBfDxta32eTcmShowOoLIH++A2cJ3TxPM1iCU72naQoF/bAHq+yS0xzNcTLLY+oTViSwtClg914XVs/sBP0+u8CkYQKYABEUNwkfBpgnl6wq05wnodyaBKOc0ri1DJdEStWgOIDPcA+PgTuD3anFiAwixRtLpZYQvxKEmuafBq52XiJoYER2pR4O2Fiv54kSdaNRtsvOjUNM5j2ZeWppLNNkSieAXNdkTRerWAGV595eI6HjxiWWurZA4ELKuBmSHey2ZDlwakejMvvp84kbYTwtQTIRvBwyYfHcTB+VEiwZyJztth24G23Xo9z4hfGoEany+REYic3cEuROUSdkCWzIj1uiO2eFaLxoDCFx9C/3uJNSfKUldL/gjd7Sdsu1YK0o2rWS08qQcYhonbxwIyZU30J5IoppI3TyAwpFdXt+SwNwRKn64fCQZbyWjG7EAT/wRSLAScGyhgmQAxiBJ5rimHExmB+vbKqJBezhNH0wifDEO5eUca5peP4n4qa2KRsosF7tNRDPm+lpQ6G+Bj7UtdGMcoaFRkiQ4WYNEQFnKbKb44Sb6wZ8+l0vFjHujSF/uRb6/GeqXNHzvkpwwapMIGFj+8QUObJk2EQm0Z9/WImQNknwM0/SlXoZqB8CyUheJgBaRym61EcKudVLj6OTUg0NAtiwgBI5Js4zKMMf1VA4ePnr4KYPIzi1bIxY/dSaDwPUxlnnN+uWBmFEeiaJ6SCSR73/moBRrpVFUgW88CeU1M9wJ5a2Ae9VXc1YiuxthaSRaJTIIXaNWU0t2yd8s5IATiwgPxddM5qBEJGCzUuezVj+RvoKGKmasBvEhzaW+mEX09AhJKvdVb+XSZdt4RzjWbrdyOY7UwYpWztDl3UGZWi618jJNHFQnEhRvP0ZnEIW+Jqvoei4nvEOoDHHfhyT02xPcwINs+nLihhCm+VhRX20ptdqAwEFtor8C4A/250odYSyyigAAAABJRU5ErkJggg==;clipPath=inset(12.96% 11.54% 5.56% 7.69% round 49%);" parent="1" vertex="1">
          <mxGeometry x="-360.77" y="-464.1700000000001" width="25.772727272727273" height="27" as="geometry" />
        </mxCell>
        <mxCell id="yvz_mEQcSD7JRhoXDO8C-16" value="" style="shape=image;verticalLabelPosition=bottom;labelBackgroundColor=default;verticalAlign=top;aspect=fixed;imageAspect=0;image=data:image/png,iVBORw0KGgoAAAANSUhEUgAAABoAAAAbCAYAAABiFp9rAAAAAXNSR0IArs4c6QAAAARnQU1BAACxjwv8YQUAAAAJcEhZcwAADsMAAA7DAcdvqGQAAANKSURBVEhLvVY9TBNhGH7u2rv+ohRQEEiMihswkBB0Ek1MTIwuLiYmTk4m4qgJiw4ODi66qXEzDjoZF2NiWFQaBxV0UBA0oUYQqfLTH9re+bx3PXrXFlqI+iSX++6+73uf7/3/lGis1cR/gFp8/3PU1ijH6WVnSflSBfDxta32eTcmShowOoLIH++A2cJ3TxPM1iCU72naQoF/bAHq+yS0xzNcTLLY+oTViSwtClg914XVs/sBP0+u8CkYQKYABEUNwkfBpgnl6wq05wnodyaBKOc0ri1DJdEStWgOIDPcA+PgTuD3anFiAwixRtLpZYQvxKEmuafBq52XiJoYER2pR4O2Fiv54kSdaNRtsvOjUNM5j2ZeWppLNNkSieAXNdkTRerWAGV595eI6HjxiWWurZA4ELKuBmSHey2ZDlwakejMvvp84kbYTwtQTIRvBwyYfHcTB+VEiwZyJztth24G23Xo9z4hfGoEany+REYic3cEuROUSdkCWzIj1uiO2eFaLxoDCFx9C/3uJNSfKUldL/gjd7Sdsu1YK0o2rWS08qQcYhonbxwIyZU30J5IoppI3TyAwpFdXt+SwNwRKn64fCQZbyWjG7EAT/wRSLAScGyhgmQAxiBJ5rimHExmB+vbKqJBezhNH0wifDEO5eUca5peP4n4qa2KRsosF7tNRDPm+lpQ6G+Bj7UtdGMcoaFRkiQ4WYNEQFnKbKb44Sb6wZ8+l0vFjHujSF/uRb6/GeqXNHzvkpwwapMIGFj+8QUObJk2EQm0Z9/WImQNknwM0/SlXoZqB8CyUheJgBaRym61EcKudVLj6OTUg0NAtiwgBI5Js4zKMMf1VA4ePnr4KYPIzi1bIxY/dSaDwPUxlnnN+uWBmFEeiaJ6SCSR73/moBRrpVFUgW88CeU1M9wJ5a2Ae9VXc1YiuxthaSRaJTIIXaNWU0t2yd8s5IATiwgPxddM5qBEJGCzUuezVj+RvoKGKmasBvEhzaW+mEX09AhJKvdVb+XSZdt4RzjWbrdyOY7UwYpWztDl3UGZWi618jJNHFQnEhRvP0ZnEIW+Jqvoei4nvEOoDHHfhyT02xPcwINs+nLihhCm+VhRX20ptdqAwEFtor8C4A/250odYSyyigAAAABJRU5ErkJggg==;clipPath=inset(12.96% 11.54% 5.56% 7.69% round 49%);" parent="1" vertex="1">
          <mxGeometry x="-405" y="-464.1700000000001" width="25.772727272727273" height="27" as="geometry" />
        </mxCell>
        <mxCell id="yvz_mEQcSD7JRhoXDO8C-17" value="" style="edgeStyle=orthogonalEdgeStyle;rounded=0;orthogonalLoop=1;jettySize=auto;html=1;strokeColor=#FF0000;" parent="1" source="yvz_mEQcSD7JRhoXDO8C-27" target="yvz_mEQcSD7JRhoXDO8C-20" edge="1">
          <mxGeometry relative="1" as="geometry">
            <Array as="points">
              <mxPoint x="-46" y="-488" />
              <mxPoint x="-46" y="-272" />
            </Array>
            <mxPoint x="-57" y="-400.0000000000002" as="targetPoint" />
          </mxGeometry>
        </mxCell>
        <mxCell id="yvz_mEQcSD7JRhoXDO8C-18" value="" style="edgeStyle=orthogonalEdgeStyle;rounded=0;orthogonalLoop=1;jettySize=auto;html=1;strokeColor=#009900;" parent="1" source="yvz_mEQcSD7JRhoXDO8C-8" target="yvz_mEQcSD7JRhoXDO8C-20" edge="1">
          <mxGeometry relative="1" as="geometry">
            <Array as="points">
              <mxPoint x="-295" y="-397" />
              <mxPoint x="-295" y="-397" />
            </Array>
            <mxPoint x="-164.94999999999982" y="-438.4625000000001" as="sourcePoint" />
            <mxPoint x="-144" y="-400.0000000000002" as="targetPoint" />
          </mxGeometry>
        </mxCell>
        <mxCell id="yvz_mEQcSD7JRhoXDO8C-19" value="" style="edgeStyle=orthogonalEdgeStyle;rounded=0;orthogonalLoop=1;jettySize=auto;html=1;strokeColor=#FF8000;" parent="1" source="yvz_mEQcSD7JRhoXDO8C-20" target="yvz_mEQcSD7JRhoXDO8C-8" edge="1">
          <mxGeometry relative="1" as="geometry">
            <Array as="points">
              <mxPoint x="-341" y="-398" />
              <mxPoint x="-341" y="-398" />
            </Array>
            <mxPoint x="-218" y="-386" as="sourcePoint" />
            <mxPoint x="-237" y="-414.9200000000001" as="targetPoint" />
          </mxGeometry>
        </mxCell>
        <mxCell id="yvz_mEQcSD7JRhoXDO8C-20" value="" style="rounded=0;whiteSpace=wrap;html=1;" parent="1" vertex="1">
          <mxGeometry x="-430" y="-375" width="285" height="186" as="geometry" />
        </mxCell>
        <mxCell id="yvz_mEQcSD7JRhoXDO8C-21" value="&lt;b&gt;app&lt;/b&gt;" style="image;aspect=fixed;html=1;points=[];align=center;fontSize=12;image=img/lib/azure2/general/Folder_Blank.svg;" parent="1" vertex="1">
          <mxGeometry x="-335.13" y="-349" width="46.82" height="38" as="geometry" />
        </mxCell>
        <mxCell id="yvz_mEQcSD7JRhoXDO8C-22" value="" style="edgeStyle=orthogonalEdgeStyle;rounded=0;orthogonalLoop=1;jettySize=auto;html=1;strokeColor=#FF8000;" parent="1" source="yvz_mEQcSD7JRhoXDO8C-23" target="yvz_mEQcSD7JRhoXDO8C-25" edge="1">
          <mxGeometry relative="1" as="geometry" />
        </mxCell>
        <mxCell id="yvz_mEQcSD7JRhoXDO8C-23" value="&lt;b&gt;config&lt;/b&gt;" style="image;aspect=fixed;html=1;points=[];align=center;fontSize=12;image=img/lib/azure2/general/Folder_Blank.svg;" parent="1" vertex="1">
          <mxGeometry x="-259.21000000000004" y="-264.5" width="46.82" height="38" as="geometry" />
        </mxCell>
        <mxCell id="yvz_mEQcSD7JRhoXDO8C-24" value="" style="edgeStyle=orthogonalEdgeStyle;rounded=0;orthogonalLoop=1;jettySize=auto;html=1;strokeColor=#FF8000;" parent="1" source="yvz_mEQcSD7JRhoXDO8C-25" target="yvz_mEQcSD7JRhoXDO8C-21" edge="1">
          <mxGeometry relative="1" as="geometry">
            <Array as="points">
              <mxPoint x="-365" y="-242" />
              <mxPoint x="-365" y="-330" />
            </Array>
          </mxGeometry>
        </mxCell>
        <mxCell id="yvz_mEQcSD7JRhoXDO8C-25" value="&lt;b&gt;utils&lt;/b&gt;" style="image;aspect=fixed;html=1;points=[];align=center;fontSize=12;image=img/lib/azure2/general/Folder_Blank.svg;" parent="1" vertex="1">
          <mxGeometry x="-336.12" y="-264.5" width="46.82" height="38" as="geometry" />
        </mxCell>
        <mxCell id="yvz_mEQcSD7JRhoXDO8C-26" value="" style="edgeStyle=orthogonalEdgeStyle;rounded=0;orthogonalLoop=1;jettySize=auto;html=1;strokeColor=#FF0000;" parent="1" source="yvz_mEQcSD7JRhoXDO8C-10" target="yvz_mEQcSD7JRhoXDO8C-27" edge="1">
          <mxGeometry relative="1" as="geometry">
            <Array as="points">
              <mxPoint x="-302" y="-622" />
              <mxPoint x="-96" y="-622" />
            </Array>
          </mxGeometry>
        </mxCell>
        <mxCell id="yvz_mEQcSD7JRhoXDO8C-27" value="&lt;b&gt;tests&lt;/b&gt;" style="image;aspect=fixed;html=1;points=[];align=center;fontSize=12;image=img/lib/azure2/general/Folder_Blank.svg;" parent="1" vertex="1">
          <mxGeometry x="-119.82000000000016" y="-505" width="46.82" height="38" as="geometry" />
        </mxCell>
        <mxCell id="yvz_mEQcSD7JRhoXDO8C-28" value="" style="shape=image;verticalLabelPosition=bottom;labelBackgroundColor=default;verticalAlign=top;aspect=fixed;imageAspect=0;image=data:image/png,iVBORw0KGgoAAAANSUhEUgAAAEUAAABaCAYAAADuDZtnAAAAAXNSR0IArs4c6QAAAARnQU1BAACxjwv8YQUAAAAJcEhZcwAADsMAAA7DAcdvqGQAABGUSURBVHhe7Vx5dFzldf+NRiONVgvJWPtosawY25SWGBos2RYUDHEO0BhMjOOC3YSAKdAmTYrtEyLcxSakOAuHJZQeOY0Bg8Fw4ABhCV5ljCGl5wQ7XrWvXoR2jWZ7vfe+92ZG0pvRvNEI8sf8jp/e/r3v+3333u/e+31ji0JAHGOQoO3jCEKcFAPESTFAnBQDxEkxQJwUA8RJMUCcFAPESTFAnBQDxEkxQJwUA8RJMcAXRsr253Zj74EjaGpp165MHdNRpoBTB9OJPfs/UkoXXK0AJdqWp9TteEVpbG7TnjCP2i2/UpBRSWWVSplZ5VVSZqwwraQwIcAsBfYK2pcrSJytNcahLLpuldw3gwDBRIaUQ2UmUJlSft6UiA7GtJHiJ0QqX6ZUL1ut/EXVN+nYQY2ghnCD6Lhm+Rp5NlyDWAr4OfVdIkDeL1auv2W9snDprXRcpn0nJybETEvmjXW8rORyICMLGHAjd/YszF96OzxeBXlpozjw3uvoPNUB2BMBp4/e8NLmQ83ypfL+0uor0dzSgb0HP0JTM9mLARddJfOXQc/TccGcAlRfdxOOnrPiijm5eHPnEzjXcJbKs1I/XIzGA7tQ6iiUsqLBtJBy9Tf+DnvfOkSVtKCgOBfzlqyCe3RI7p0fAebmp+Jsw6dobmpAy7EWai81JsmiEcTgKtG5nYiw0Tbg0a65sPgby2DLvQz9Q06k2RT0DLrwleKLUP+7nUR0pzxXu+UHeHjj/XQcHWJOysNbH8fmTY9RryZTY4Zx2733oeECpAE6Rj0KrEmpyMu0oK/rNHrPd+Ls2bNEUDPdJTJk05934/bvrELGRbn4v4Y+pGcXwOvs1+6p6HMqmFOQgcPv7UJrI0mgcwR1O36Ftd9eoT1hDjEnpezSa9B0upUq5sF1K2/C50nlSLOQeBiAybElp0LxulHhmIXmMycwMzsD8DihWJMxI+sinG7rQ6/XDo9rBLmkPl4PS81EjMKOdGcD3n/5DVHLrIJcfLrnxajUKKZ+CktJ02eNcuyY54AnPTQhjORECxK8I7DCgz+eaII3OQeNPRacGUhH0+cJ+OTkOXpKQZZ1BDNTyPKEIIThHulHUeVC5M9hEhT0NrSRD/ORetMkYkrKvoNH6C8VSVLylXl/Sb2dBKstBdZE2mubJSkNPe5EDLlZRQJIT6F7PpeoWUaiR/ZZqTbtbgBWmx0WW+qYMnmbkTkDH5/sxvzLyMA72XBb8ZvnX1VfMomYqY864lxFopuMkvICVFbfjr72o3D2tuLC+QuqlaAvlZQUYXZFJZxIQftQCs739iE/M0ktJAyYxBlpdgx0n0YyhtBw6iQsFpVYbkB2Tg7mXvY1pGY7sOfVZ9DSQKOWcxSNzR+aVqGYkaIa2J/TkQVLvl6FMw2NaD9BtiWRhlH6J5DRRTeiXlx17VWoufYGPHeoExXZtpDqwfYlL82FD/e8idY/0WhFUsAjm4DL5FGKX/W4UbWsCu0d3WTX6DmS2Lodj5k2uDFVHwEZw/1v16O9mYdHqryHRNnppqHVitIFpXSNjpkUexI+fP9jbN3wEBZm96K/f4Bo0tlToRvi7mPv46Unn6KRhcq0s0oREcFl0h5MKJVZ/y75NkwID+XUvH0HP5ayzCBmpKj2ROs9drKol2qWL5Keamw+BKX/BBr/+IGIM18rrSimB7mX7di9fRc6P/s98rPtMrwyeD9rhg3H9r+IEx//SR3iiQh+b3yZvN+z/6VAmUKIiqaWNu3IBFh9YgGJSdgF1wI1DtomAz9z8Zxqep7cdNry5yxSVj7wuPJXq3+h3HT3z+hanurSS2wzK6JYSYLFoNiIwwOziD0ptPFxpOCGppctElJ4K6isVm64dT0dF/njJi4vEkJ0RFsXHbEnhRoRiZQEg4M4OK5SidGDRSYkykZxACnSEuX7sTe0ZC6NrL0M2eTtclw0PinEQyYHcVk0lMtowjaJQe583ZOPqMcGCJVgqln81/SXyokWGjlTgpomKNHE3WEYvoskaSrCUmH0DPdw9uwqtZfD2BBJI8i36JsGZYnkcZpBnik2/FY4TJkUVVTz1QpoFR3fGLWSxWGf0cHXWf1CNcSfV5F8DG8lE4zpGFLke2q2L1JMiRR/BfnDbE+kAuXK2ns2aE+oGCNJ8kxoUsJBLWemlMHf4O+zBI63G+oIRBKpf0++WSTvRCI1UZMyhhAS99zKxYGKUAXGf9yvPlEaPx2RkOknQgw/SahuuMOobjCiImUsIYXKg7XblMFRRckuJ59DRo+JksDnQgy9E65h3Jv8jNkRTIdfdYiQnIpqpad/VFm17p/pGpEjJJUqD/3HL8MSY5oUVTR1o5qrvP7OAWWICOkd8ir/8pPH5KNGKhQJ1Abp/knBpD1qBL/q0Mb1+XzQo4z6FOVHDz2m5LE0CzEFYUk3TYpUWCpdIoT0DfuUrgtDsg2M+KR31A9PVKHJ4PcvpPxSU8aRoZJa4Cf1AsUKet2cXkXrNL1DQ5Nuyk8Rn2DASTGdF9nlxahe9DWMjASSSB6vD99lH4XiHo5pyhavNPQjpgvsA8GeKsntjQ//EAnWQIDZ2zuM2h//gKLoRVrOd2zwGQxTpPCMnES+5GB9745bkJAw9vXR0VH8eMM/Ir2UnDCOhFs6tXciQ6mjiP7SewJFO48M69ZvRNNnTXKcWVaAB3/0gNQnGB6Kuh3Fem4lIWRmzhQpPO2gRsI+Kdznm+g1jro8eOGZR1VpyUjC5k2PSK4lEtQsvhKlC8qpJykapj2fRwL2bLc/vYO+Z6PvurDj6Z/CyymLcfB6vVi8iMvke6HTClG7+Xp/jgcTVVyoSQojI52I+WnEElNTzS66B3eu/qZ6YRIwIVcvuZG+w2rjQfWyalxTUw13qISVtg+HqEkJBTvZknse2ERHms6y/makYd2aB9TE9iQ2RiWjNaJsGavM1UtuofKz1AsUMx189wCOnzgzQbXNIKak2BITsXf/QRz+/SGpIBvlG269Qfawp8h80Le/+0Pp3VBglaFRIWxelaWOjer2p1/QJMRNm24/EvHKq29I5xhBS4OFRUxJsSZasfruB4kA0m2q6Io7V6EtbSHtv4ViMn5spA+9x+K+Up1FDBHlhiJEJ2Pdmu9rM5D8nSHUbvm+ZN6EGLIrW2t/hsbGpgnSwudqJo6vKyhxcJ0mIvS4ZICl1VdQ7+ykIwus4yhPS0vFv23ZhsEmniO2orCyED2WPOR4utGaUIJ5C9Pgcv0O3We6pDHcqL1vHaA31Tlknj9mqDYlkEZk0jjVKdKlzynbk8igcmqyRFILukFm4ywTcUjGzpdew6YH/wlDw8NyT0eCNgMQDqZICcAildV7gvcnTp7Bo//K06XpUvni2ZfAYkkQw5bqG8BIQgbmVq9EzbUD2P/Be+g8xY3mrLxOUL2UtdmfB9Erz3vaJMfC3/MKGbUb7ptgd9gebd60jcpMxH/teAUrb70ZRYX5Y0bJBD8nPOQbS+RY+ZoEAT/CgubWdv+8C+sv6zH3EDt2F5fnITV/HnzugGPHE13wunCqLw1zq27BNavW4PoV18HBiSUZIqncRKoOJ6h54xUJAv6eOpKsvec21O3YJsnq8YQweFK9dEGZHJ8nian/8IjYOR1cX663SnRoP8gUKcGwBkkJ6y/rseonOHHzt9biQu+A3B8Pnv3zeUbhScrGUOZ8lF9xM2686x+wcv3duPTKS4ERIsjtQ0FpIdmQbWMy93VPbZ10VJLRS5shPHzkD+TVkjRqYIlpbNKz+0RKSQwkRXSXe5HQ2NIqH0lLs+Pu+zfQFbL2pDZ33PsdvHO0x3DKMxgsOVbPEBSSnnM0bDf22nCxYwHHCjJF0XG8QewMk2Bmhk+1Saq6GE1vWKxakzPssVEfhrBrT0D9Owfgdrux+d+30RB8WK7xpHrTUBbKM/2KGxF4oj3N6oZiz0bu7DxRQe7paCbI/R1HNqj+nYM4eSrgs7hcLrq2X+6Fg2lSArDiyCf/S8aVDJtMVGmT6lMo0u2z4LIrl2jinxD1BLl0HKkgl9HZ1SWqzsR0dXXLNb4XSnUY5iWFRU7mb2343v0baZ8iPTuLetiTUSZLK6LFyFA/Csrmo/gSh0je3rf2yShnFv46ElpbO2AhQpKSkvDczkBAG04lTZOiuuH0QdZ79kl4ipKCsJrr/xYDw2OjUrPg5RjHm86ipIyCQmlUdCoUGFXInwqMwUj0G13F7xcZIQpJCQrvmRAykstWLEdDf8qYJVzRYmDUg3nz5tERlxXdBDk7maqxtdCAoPpTPBzvq2eCiSQaJcOtiTNNChsyCe9FZxlO5JRdDmWkVzufGlLI6PYMsl8SPcGqyqkSwn/Zppw63YD6dw+KWoazJwzTpDBk2GPxpvjmjnvvwuHT50X0Y4HUZBsufD5IR2qjolo1EASfosBGVXvp5dfpjEYdMuKTpSWiIkUtlEYI6oFjR48iPz02hDCGhgaRV1hCR1Q+9Wo0hjY4GVZSXET+pA///TwZWV5nS9f0+CoUopMUXYWSLPhk3xFcUpyO3mFejDN1sMR1nOtD0VwmRlEXF5tEsHQVF+ejubkFF07zclSyiRFk9KIiheFXIRohXH0dSEqhQDBGsAa55tFAImpx0HxwFBXixV2v0XFkqsOImhS/CpEl/+1TdbCM9MAaFHxNBT6vB23HqWd52ZZJiLrJjIMPuZWlZFOALXpcRvWdTHUY0UvKmFEoCUWZLowqalw0FTCx7MRJ1SbxPI0QPONQWVaMXbu16J1ch5rlSyZVHUbUpDBk7QhFxSyqu7c/D/fA2SlLy7DTjVk5meoJNcxMMMgIGFmgrNSBrT/5T01K3BRlh17rEowpkcKsr71njQzNJOuYm5eAZuOMQcQYdPlQkEOhgwYzcz+sOupUh9oxnB7leqlSsjRigqdECoNtS24lVZyGu/958lnMn8maG720WGzJGO47z0e0hc6jGkFVHS1lQcTUPcGJba6LM2IpYUyZFJaWr19TJZadg8M/7HkNzuGBqNUo2+Ylw/2sJvKeiKY6dASrjoAJISmu3bLBlBpOmRRG7cb7kFPBH7Wg/WQHHJlOtPVx+G8O7OtUFM2gI3IG2cguqIi4MeNVJ4ARU8QyYkIKV/y+v7+NpGVYenj39uewZG4Wjp0dm0mfDOzrsM8jvR2hT6Fj3XrO/o3zrAeGUbfjCVNSwogJKQyOOllM1bmXNDy79WHc/NVCdIsRnhysbuzrsM+jqs7k7rgOdtb2vjUuo0b14EHArJQwYv4jKJnk4ukKilvyinKxePntONUxgBn6DwxCoMdtx5yUTpKyl+VdXlLOWftI4P/hlb78nDqiZnkV9rz5W/XcJGImKTq4IvIjAvIxuk534uDbL8CRY0PbYGju+YcJpeT8sdpJbztdYdfPBsP/w6sgQvj70RLCiDkpDKmQI0+OO1u78fqvf46/qbChecQ4mm5w2lA8g3ModN+E58lqwysakKGVK8a5NGIJC4WYq48OHg14JRNaulQbQUZvxZ2r0YpyWEd7JIPPaB+x4aszB/Hir3kY5snyQTQ2H5nUODIh6hIMbcUBhxvOfuzZ/0ZEhIbDtEgKgxslvw9mVWJjSw3e/ZudyB74lDzWVDT3uuTnuJfneoiQZzRCRiPyKSYQwipDNigWhAhYUqYb6hJTfQFeqZJbsUjZ+EidcuNdj9K5tlobZfLcZDBa4R3Je2bwhZDCUJdyFqorJ2WtLS8t1VZC0rXJFhzz2tsx63dlBWZh1Ottw+ELI4XhX2CsrbwO9HaZUrv1ccMlnCwZfjKCVk5zOeEWKU8F02Zow4GXZb39QT26T7apeVOZKmEnz+N37dlQT/x/DniEcolTxpPt04UvhRSGDKePPI7jZ1rQxb9K1cmRUYQ2cuAC5xxHuYUMdv1jYkzD4EsjRQeTw3PGgf8BQ59lpGrxyoCSQiGC3XWzMUy0+NJJGQ8micFkfFEkjMefHSl/DiCljWM84qQYIE6KAeKkGCBOigHipBggTsoEAP8PSSo+0h6fxasAAAAASUVORK5CYII=;clipPath=inset(15.56% 9.42% 4.44% 15.22%);" parent="1" vertex="1">
          <mxGeometry x="-404.1" y="-514.95" width="25.21" height="34.91" as="geometry" />
        </mxCell>
        <mxCell id="yvz_mEQcSD7JRhoXDO8C-29" value="" style="shape=image;verticalLabelPosition=bottom;labelBackgroundColor=default;verticalAlign=top;aspect=fixed;imageAspect=0;image=data:image/png,iVBORw0KGgoAAAANSUhEUgAAAHoAAAB8CAYAAACmAKT5AAAAAXNSR0IArs4c6QAAAARnQU1BAACxjwv8YQUAAAAJcEhZcwAADsMAAA7DAcdvqGQAAF6mSURBVHhe7b0HgFXlmTf+m96HacBQhjL03lFAuoooit3YY6ImmmSTmN39dr/d7Oa/m/3MapoaEzVGNDZQARUFBQug0pHe68wwvfd6Z/6/3/PeM3MZBhiMySbZPHDmnnvuOW95+vO85QS1EPA3+KuHYP/n3+CvHP5G6P8l8DdC/y+BL2Sjm5ub4WtqsvOgoCAEhwTzU0eQXfsb/HFBJLODdBAtiHiEhIQgOPjscnvBhG4igYuLS7B9+04089FuXVPQvXs3pKQkIyIigpUFtRL8b4T/csCRyBG3ubkF9fUNKC0rR0lJKbKzcxAdHYWhQweje7eu7oEO4IIJLSJ/8OF6/PyXT6sF6NIl3ioYOKAfBgzoiz590tCrVyp69OiOyMjIc3LZ3+B8INIEoaamxvCefSoXh44cx8mMLJw8mYn8giIUlVYgNiYK93/tVly94ArExES7R9vBhRGatx44eBjPLnoFP3/0WV5wRAyPDkdq1y6U6hRKeDK6dk3CkKEDMGL4MAwY2A+9e/VAbGwM1UswCR9iz/wNOgap4uZmHyoqq5Gbl48jJOzBA0dw7NhJZOfmIjunAMWlZcgpKkdLZYP/KeD7D92Nv/vOvejbt0+HmvSCCK1GfPbpJjz6syex4u1PEBrRgqZ6T2Jls1VUCCJjwpDaIxl9Kd3p/dIwYsQQjOQxYGB/U/NRlHTZlL+pdgcigc/nQ21tHfLzC3Hk6HEcOngM+w8ewqFDx3EqOxe5BcWoLa/j3bTJlHIHtM0xIfBVN2Ph9ZfiH37wTVx88QSEdCBMF0Touro6LH/zXfx///lzNiQDKcnxuPiicehJiT1w8AgyMnKQm1+Extp63u2IHhEZhiTe17t3DwyjlI8fPxbTL5mMwUMGkuCy6f+7CS7prampw7GjJ/Hphi3YsHEbDh8+gfzcAuQXlaHBcOnjQeJFR6BPjxT06tENaTSPGWSAzTv2A7WNGDV+CP7xoW/i5huuRnh4uJUdCBdE6KLiYiyi2v7Rjx9DTXk1Ro8egod+8CBmTL8YOTl5OHUqB0elag4fw57d+3H0RDaqKyr5JKsIC0V8dDS6p3alhA/CrJlT7LkhQwYjKiryfx2xhfaamlocpICs/2QDNm/ZiV27DuBEVh7qq6iSW6SWWxBBH2hIel+MHDkYw4YNwtAhA5DavSuSEhPw5orVeOSXz6A8rwTJPVPw3Qepvr99r/lN7eGCCH3s+Ak88cSzeOyXi/gtCJfPuwT/77/+BRMmjKY37kMzPfKKqmoUFhZTuk9h/4GD2Lv3ILZ/vhtHDmehtkbcSdVDjhuc3gOjRg7F1CmTMGPGxST+UL/X/tftvMn8ybk6dOiYSe9HH32KffsO4VROEWqranlHELpQAw4e1AdjxgzHWB4D09OR1qcXfZ9kxHeJQxjNnsi2hk7x3z30rziy7zgi4+Nw+1euwY9++BC1Z09XWQCE/IjgPz8PtODEiUysWvUR9u8/AkSEY9pF47Hg6nmIi4umjWlGEJ2tGLr6CrX690+jtA7EMNpmeeQpKYnsQ7MxQgNVVXFRNU6eyqb3mIGszGx66BHGiZLuv0ZiizAKTfPyCvAhCbTktbfw9jtr8NmmPSjKL0ZTA0PV1CRMmzYe1193Ba5bOA8LrroMl1xysUmxiBxN3IgOLS3OTjc0NOLjdRuQdTKXHlIweqUmm9Do3vbQaUJLYnfv2oe33n4POdkFSKGXPWfOJZg7d7o5VgreGxjfyakICQ1FEGklG9y9WwpVzhBMpNSPHDUM/fr2YlObkU+pr62qQ2FRBUOGDEr8EToiBQwPYtC1WzIdir+eBIyIXEUG37FjD37z9At46eXl+GTD58jOyENLUyN6pqXissum4av33IS77roJV14xB6NGDzPcRVCggvhP0NjYiGYSWd+Fn7CwMGzcRJt+PBO++ibExEZi9syp5g+1x12nCV1XV4+t23di1XsfoayknA5Yd8yfNweTJo4hUYNQVFCC15a8iVWrP0QBiRgRHoYo2uRINlQOlwjYt09vjB4zAqNHDUdqt0TUNzbgVG4RPfdaFLLMo3RIjp/IQAu1Qy82VlL+ly7dInJRUTHeofQuWrQEK1Z+hIysAjRSq0XEx+Lqq2bh/vvuwK23XouZ9Fv6pPW0focq00UNWVfbgMzMLKyj5K5Y8R4ZownduncnXiN5TzD27T9Mx/gIKkoryRShmD1rCvr164NQClsgdIrQamxlZSU+/XQzPqBNqaOtHTS4P65ZcDkGUC2Le44cO45nnnuJ6uh92hza5v2HzE5XVdVYDB0VFWWSr08lVOR1q0FdU7pY2fm5JaisqEFmbj5VeZYxVlJSAhIS4u25v0RoaGjAgQOHsXjxm1TVK7Bh8w6UF5fTUIdgzIRhuO2Wq/H1e76CWbOn0YvugXASSn6rtGd2Ti42UFrfWP4uli19l+Hs+/j44w2IionF8GGDkZjYhdo7CDmncrGH+M5lfB1Eobj4orEYNCjd8BwInZboosIifLx2Iz5au50NbcHYscOxcOEVFheTD7B79z6GXitx4sgJq3TvvmPktoPYT0cjMyvL7FNcbCyJHm1SGk/nIT29D4YOHUgvshuJXY6i0nLUVlQhO78EmRlZqKqssvK7UZWLmf6SVHl9fT3DpOP4zVO/xxvLVmHn7mP0TeoRExeHefOm4u47b8CtX7kWQ0k0aT+lk4Wj48cz8P7qj/HG0nfw2hsrsJI+0eYNu5DNUKqCuEkg84+hVuxD50yIl8/z+ed7GJ6dQF1zECaNG47hdGzbe96dJHQLculEyPB/vmWvfZ86bSKunD+XBcZZA5VIefud1aimgxAudU2aVDAEyzx5Cjv2HqD3vQ8nMzJRz1g8OTnRUnUhIaFITOqCYcMHoW/f3lRHYbTT+VRD5ShmpzIzslFQUMD7E4zgZvv/zIkt7VddXYstW3fgd8+9imXL1uBUZqHcbfRN74U777gO37j/DsyePRXJJFownRn5LJl0SFeseB/P/u5lvLrkLaz9dAtOHslEbTUjlchghISHsmwxOxjljKRUD6IEh6DJ14itjGp27zzMcNuH4cMHGCNoDCIQOk1ox2lraQ+OW3h02dwp5ogpy6V48D3+turDDQihs9BCZ4FtIiGDEBwaQietEXmnCrDv0FHs3LnX0nryIOWdR8sehYXTNvWiszbUUqgibu6pPFTW1lKN5/L+E4ijPevZo9sZKunPCUTk+vo6vPLKcix64XWs/mADigvK+EsTps2YhPvuvR333HMzBg3sZ6GkRvyKi0sZD7+HZ58lgRcvpxe+E2WFpfRTfAgjcYPC6HixhCBqTfnaddV1GD9+BDXqaESEhoPqkRK9Gxsp1Whyvs2E8aOQRlsvz9yDTtvoYyT0mo/W4cSxLERER+CKy2fikmmTEU7Pr7y8nCrmA2zbuJMNC7YMeKDcBYvgtLMadSnMK8KR41nIz8uno1GLLrTBiQldSOwwJFLd9OuXhoTERIZfxTiVR8+8sgYncgtRXVWBJF7v2VODJRH+ks8EtVXhh0Z5lHWSvauurkF5RSWPChsckPTk0Abm5uVZPllpR40G1bI9SkPWUuvY8J9lGNyokftydvOh+ysrq7GW5u1Xv3keW7btRXlRKYLDIjB7zsW456u3YOHVlyM1tauVoQjl8KHjZIqleOXlZVj/2Rbk0+RJOEKIwyB+SlgCIYiqub6uAeNoNieOH4tYhrXSCDtI6B3bdpnjlta3u6VB+9P/MfH3w+mu2VlAHRXShDx1NjqMKpcqW56h+l9Pp0MIFM8FszGmtx2WHNhjQUZMsWcVEf7uO4zHDxzB5zv34KYbr8HM6VOo8iPoUXbDzbcspD2PQvzzi+nlbwBq6/Hh2i2mmhooMQsXzjdie0h3xG1h+NFkaVoxXklJGUO3YhTzU0xVXFJqBKyhWi1khNDEsmQXxZHEqZmSRDJSVFSEmZ6u1DY6kpISbXQuISGOZqqLDQmGUksFjr+r7rKyCqz7ZCOe/PUL+GwjpYsRRVSXWCyYP4MO122YOmWiPSuGqK6pNjO41GzwOpQwSkE48UMBCiYOlfC0Pyze1eAgSKLNPhZS4quqq9EdyebAdaG2i4oKRymfrVe/xKSBDxI6RWiBiNxCYotqYbQN0VShrp/OiaihU2AUba1ARUvZeAT3SwhbG8rGSTVJO5wsKKbTdgwPPFCEeZfNInJTaKsjLHSLiYshQSOxfNlqNFBaPtu0A2UalqMXP/fSGRanq1NFlBxl7aTiM+gH5GTnISev0IhbXi5JrkQFNYOI28i4tcFGfdphgp0Jjw1HGIkYas5iDOLpOCUkxCAlKcli2tSeqRiQ3p92cBB69+ppvobCGDleH3z8CZ767cv4mPExGmsRx9+uuXIOvvfd+zBy+BCqYQlFi2kPJUvkbG3cvo+ueR0JTJ9GuBHDsl0h/NtCtShG8hHnXhxtUkKorKqi9GqAQ/eEUMMy1LL8NrUASeQ00OnQaUKrEVY7IZQiEEap9qoXE9RRRZ4OjTwowabIAytWOZQIaoPQCKpYqtXNG3ZQ7VXg0KEjuPdrt5vaiSL3z55Oh4VhRBQ78spLK1FB6dy+bR8e/elvTB0r/Mo6lY1t23biMO2+vP2i4jJ6orUWAhqfCTcOi6qcuKAkRlB62Cxd8fqg7klbEO/6ZswBXx7LcHeERIcigYyXQgL26Z2KdIaVSuEOHTIYhw4fszDo4827QHUFxMbjTsbF937tVstRh1IwfDQn++mjPPGrZ7GK/kx2Rj4LbUEImV6axWFJLZJz5ghqBGshiYI8xtRBzUVb7JN2lW7nf41WyTETuDK8e9vAUe6CgFxGjuf/duAV3vaDj5XqUPVth4Cf7EQTOTZYHnpoC/bvOcJw4h06MYstcaLOR1BiR48egfvvuxMLrpmB+MR4NDTWm/176rcv4VdPPoennn4BL7+6Ah+u2cxQ7gQK6NzU8R75KaH02+jn0ZIQdcSDxsNDg8OoqhnONLMPbK60nOGMrQolQ1CgnZ3UJ58NiuQNZEgfvdviojJzRtes3oDFr72DZ377Ch574lk8u+hVer6MRhgpIDoW9951A26/7XoMHzrIQkmVv2v3ATy36BW88eZ7yD6eTTssn1aqmnXycAQSZwp/bbg060hiO+K7aypTpkNPCMx0+b/5rckZ0HlCiyj+U6U7xVVeRZo+JAlvA/3SkTSfDvaEuJm2OzwsBMcOnsRzv1uCxx9/xrz8RpqEMCLj4osm4Tvf+jpmzbqID1A6mhuw9sOtePutj7F18wFU04kywkpSKar0ZUylsVVWS0gIERoUbpwvR03hjEMakRckzRRm31yL9FzbQb2DUN4TGhyKcDKKCg8JD0Y5TcnunYew4q0PsGPrPlSV0HRFxeD6q+bgH757P73iEWyT6g/CLoaXT/z6ObxEb7yMDqZMVwjx2eJzI1Q0hv663f0OZ+4QEYVfpTzdtSDG3RFOo/qpqtSozKeALNAhsT3anRdsLpg5WS5zI8dGRBKEMh6OpXo1kJEwIELYMPHheYHFNFOqQyNCkMOw6sWXluHJ3zxHu3vS6lBmbBo9/Hu/dgeuWDCdJrABETF0CmOIfH4G8x45U6HsfJN8iXbIolLmQQmg6VE/gsW0/NR393urjm89xNY+/2HXfC1o4G3hVBFyGkMpUSFsr3LRYAgURifuqssuwfe/d58N6Cgakf+wdetO/OSRx02Si3OLzdEzj5qluroD2+CdnwkiuMN+MH2UKPouYgo2i7SoqqlDHUNYQQhVkvrWHlTyeUGc49SFK6CBTk0VOVoJdtWuziYnJvEXItM47+wNPivQbuuxUBK8nB7sW0TMi79/HZlZVHO0ZZGR4ea5fuvBezB6zDDUVzc5Lub/YEqbcujD6fTYd/M6PWKLgDp0fnqbTud873d3NPFw5PB/F1M3BeOSKZMxcFC6mZUWItkXRARTomZMm4D7vv4Vhj4jjSjSGhprlk1e/d46VBeXI5TEaWFfrEgjLJnEpFjnnQUlmRLowWtuGL1shmlyOGvJ/CbtYkJFN66SVug0oZUYiaUzokeqahrp4hdZPlqgShWoh8VE0JadXkHngZ3Vo1ThChkyM3Lx6utv47nnXmFdJWazlYWbO/sSPPitezBoSD/KaYhJWWRUJKbPmIpL585Er17d0NBA38AiBIEKdW2ShIk5m+nE6NPH72fyfhsEsoi4YuDg3rjppmtIzFEM/2LMvjfVtWAS49Y777yRpmUK1Sp9Dmqgw4wAnn3uJSxf8QHKGSmERoaSIVmSFaY/UtUisM5Pq+ksIA+8GdFdotGDsbikWqxYWlZmgya1lfIig2zkT6nm9kV1itACZaaUyTJo8CGXYUJ5eYVxr0aoROiuSV3I3edq7NnA6yw730KVRwkNpn3LOJZNp2cFlix92wZHBFKJ111/FRZeMx99enZnfT4kJncxKZs4cSwmTh7PMqii5QG1iqyQ6r7rSuARCBJa0+Y8dC4y6KuP/og87skXj8fY8SORPrg/HWsyPZmlV5+eNvp0GcO9WCGYpRYWFOH111fgzRVrLHfviCzTwZ9b+6rSXQvaNEcbBLbN2so/zWTgnt01vborIsMjWX0L8goKbIwbzbLRwejeNcXCwtMKIHSa0EqSawpLJGNNhU6aLJCZmWNSEkYb3b9/H7NNrgNfBLzO8iBGNEQnB+vY4Sz88ue/w7JlK1FKyWgkYRXPX3fjfMycPZWhTBT69u1FSe6BfoP64Mqr5qJP/x5UtUGMmymx1uHTkehhQTIfKPfyykPEJDzCaeecA8R7aSKGDhuE2XOmoUtirE0EUHIlkbH1ddfPx+WXzrIEjpyienr8jz/2DF58ZSkyj52i5y8vkdLIPrlaVZPOROxGnvmomdoiZYHOAwOqJv6lHuJZM4YMSUdaWm/TGnIsDxw4isxTOfyNApcYiV5kfgmle7INOknoIFMHGl5MTFAhzcijRJ/Q2DHbrSak9eyBIYMH8EyhwJcElgpqwvGjWXhv5UfYq+G43Hxk0G7LDmnO2fVXzsYQhjGxcbHw1fkwmG2YMm2SZdY0dqt4U6bH8y8cuoU6/fOQ79DirI7sqyOGjz1rknMZFYWx40aif3pfVJbXILVbNxt1u3L+LMy+9BKbOpWVlUPJKsLu3fvxzqo1OH4og9hlOaYSVK5A5TpHz5GWEQQJJqdV4OO9XnsCCaN2akBD9lz1KucvTSpG1qhVXn6R3acMmTSrzEp76BShhSOl7/r3S0PfPj10BXm5hTboXVldzWYEoXtqN5tF0q1nonmCAjXfOwIhUJLawN9FVhZMjDfRyWhqakFqr+6YNfdi9KKUllRUICcnn8iuQlNDA0aNHs549SZcNnO6uTRNjXVIiInHFZfNstEw6ktdNdumQyApFZnlbIkpQ1ptudqkc9cOIzYfaa5vweRxIzBu3FgyeRL9klrE0+FZQCLfcstCpPfqg8qaGku5ZrNtSq+OGTcGF00bh4SuSWiS09hAtcr6jVYkq5Ssk1gyMvuqy2Iy4wl+qhV27j+Ef1+9Dyk9kzGeZdvQMK8rP7//4FHkFBSTB0KRRhr07pFqDll76BShBUr1pbKgvn2lnoGS0mo6HMeQQwkTPjUapbnbI4cNJG6VthOelZRwKlAceHbg3UHCKgnc0IiGxmZ0pS2aOmUMrl04D3fdfROReh169Ew17REVEUlmIrHq65FGG9m/f1/LcUul19ZVYtDA/hgxbAjiYqLMvppEu4paQdGzgqc2mXbKtBUMu6yNSJtGDSHz0MD61Mwa1jVowECk9uhORq9iaB3KuDYCQYxG0nr3wtfvvdMY8OorL8OIMUNoz6lt6qkhNAdeaKCnHs6e6NSccFFBlfOcUZsd6mjruW5sDsKg9DRqzf6IYSirXIbGqI9nnGKDyDqhYejbrzeSkhNbw+BA6PTEA4EQlpWdg88YG/oocWrBoAH9MIaSJYJq6lBJaSk2bd2OehI7xCp0LXUZIodWXdFhwOeCaWuaaHubKcHJ3RJx8ZTxuP7aK2xy3MwZU2yeWX1NA5obJYtkBt5Hb4uqWYzRQN+QbRFhmkMMfXGxboz86NFjlLBSi3lb+LvqFsN5deu7T/Xz05BOU+HUtnw8MgG/DxvaD3fedTMZL9m0TBBVuUpoaKTGqZds6lnWyj4ojSU7HU3mGDAwHSOGDzZzJt+mib+XVVYxLKy1DJxmgwgLzbTfYij5Bs28pDYZtDaSGoi/R8ZE44br5uPqqy5FdGS0TcNas2Ytlr25BtWVlejWPQnX0D+ZM+sSGwMIKMnAK65TkJDQBSNoD0cM6c9vwcjIzsfWHXtsjpgQnJSkCf0TMemicdRNJIoI4ocOJZpIbiHxGoiwyJhIjJs0HDfecCXuuO16zJ8/12yvjwgoKS4jkzBeJVfb5DjZPvOqdZCA1Ikawmv2tEJTA6W8HwYPonYhNEpZ6jd23pHGgUsx+IHt84jsOCKIkhNBNTyCNrErhZAEpnYQs7a0UPGznha2Q06S2Vy2o9mcP8a2dY0oI8OHhQZj8uSJuJEh2W23Xo+FV1+G/gP7orGeYaGkUH3wEU8kpi+ISlp6OhCEMzWJanvUiMHUcOPRhb6S6s3Ly8P2z/eioKiCN4SgDzXbMOIr2tZenU5kwQVJtIYlhQyNCm3auNtxOFlF00s1uVy/x8fH2zDexm07UVVdQyb3hzb+v9YEIsURhAgLCmUje2De5bNx1ZVz7FNqsba22rJvhlClM0lwXzAx4R9ksJLkKFFt8iaW7cyFapHEK8SorK7Ejl17bQxXeTrdIHJ73K1POyhdbc4akSKcE8nyYDUkKulsrKk3RS83qpmaikbJbpaeEE5Ek9YQigyo8pRTqGuoQxz9GzHtgPR+NrEikp54bX0tysorLasnTaAyQsUsbIa1RH+ooZrINNGJCbjr1oW4hmZMU7Bkola99zFee/0d5J3Ks5uvnD8TVy+43LSH15dAuCBCi0CaYtrEmO2zjVvoFNWaI+Kjupo+7SIbPlRiRRMEjh07gZMZ2Tb32NKnfNxwoEb4KGOMCWO7xFLtD8EV8+fghmuvwuhRw4gcDeBXGHObrPD2ICJD/0RsXbAyJAEqlZ2WZy2v1JDtKqHzGIYG2rF9e/ahMLeI/MBnyZUibCDY7e609VMjTQpfRlL1arpUDL3u+oZ63qxEjIhNSZYKZ51WoPehKgJqYBFWQUODz4YVExiijho5HL3Supt6VSiWR4lsoUaTD6T6VaS1g3+a/J7ZZZdPxT1334yhgzV9KAj5lOYXfv8G1q3djEaartQ+3XHrzddgOqOQ8PCwL4HQBK3r0Rjx/v2HcPBENuorq1FOG9GHdnTo0AGWC5at1jSY3bsPoiCniH6Cwgi2nezaQlXla2xB7/49MWfuJbjhhgWMQ2cwgokmgatIaEomqRVMg2XNZc+DiFyXzWqinfYRQY32KUYQUQ0rojD/S31LhWrsOYzIUzi2b+9h/i6VL8yLECJvGwgxKkVeh+6QR27Ztqk0QxPGmFQ2szw9J41gTKdzaSWaHsX2yv+L0ZpVlr8KZywEqo8qne1uoFnp07snBg4aYKFQM6/Jr6mm0PhCW+jXqAUE9YPh4pDh6XjwG3di9qyplixSGW++vRIvL34TedmFvDEEV141A1+5eaFNGOyIyIILJrQK0shJRUUljhw6xJCnChWVbGRzIx2PdPSkZ6xOa7L6p59tsfnewRp0J5GbmhrRQuSPGjOU3vR8XDFvDm3PMKrWetotEs8QQpAEE1k22YGSo1GsRmqBEKppzaToQvWVlJxgqz+SkxJtXDopgQdVnPwIxZMKB6Vd6qlR1qzdaA6fheWGfj8y/eARWrWHMZiVxtKUpQXzL8Xo0UNZbhebyJes+pQo4XkC61NKNo7xeyzr0sRGOXxqq48SbAwb4sp1wL7wSzDLr6mtRXhkOE0Uid0rlW2NpJmqRWGO5og0UQPKHNE5o0+gPmohoxZBaMHiJ59uxqIXXsPGLbtZZhAGDknD7bT/yimca4rVBRNaIEmRHc44mYV9RzPo1TSilASPi4mhA9QPms/91NO/x7YdB2hXmxHOzjWQyDEJ8VTPQ+mUzKOHeDlVWQIqqyrJ1aKtj8Rwnrk+m+hJs5+muqVBpPZEVE3vSWF8mpKSZHPNdF0Ijydx3eHOY9kWOSbRURH0Tj9CWVW1xedOs3ZMaKchyHANzZg4cQwdwwWWBUthvYlioi5iorb6xFDxdI5E7GiaLdWnwRcNlcpe+xgmKprwUTqDWkLYF1ZOkyOGkNYRcQel96c27M02aOZIBYqKabbILCqjhRJelEv8UJP16deTrBKEp4nXNR99itryKoTHRWEhvfDrKDSWNzgHfCFCq1FCpFZgHD14AHm0gTWU6uLSEuQwtlv9wXosX/ohnYZGOmgkMm1QMolz2aWX4Jabr8W8ObPcJDxyttk02Vs5MjRIykRJHYo7NUld87V6Ml5VQkZOn65JWmWLxGxKldrQox0OwRrW1O+a7qTZKZu3bEVmZi6ZjcwkzgkkNBnLU3e6StrQLgbj5puupGM403IH8ktUpiu/rS5d09CoRu+05kxMJsaTQ6rslOafmQpmvY3UEhYksPhgOZeqk99lruTTDB48kDhKRg0ZPzevGA10wsJCwoQRHD6YQQYowI6de7Fq1VoUZBcxvg/FcEY/3/3OvRg3bpT191zwhQit5spWK/9dVl6OfQeOoo5SXVFWgd17juDgoeOOeEREU10zuvXsiqsZWlxz3RUYO2oESotKzYYKWYo/1WetapDjpsRLN0qtlvzIg0yhio6Li7GOnH/FhiNYICgjlpF5Crt27UcN7WCwZiWc5jC1lSm5lmdN7wv3332TOYda9NdZUO1KDgk3Yka1W4f5LBQKDe9KijWzRg6mx2CaESona+iwgWTmJNQxWimtKEdVWSXCaRJ8vE2JkZ27D6Oamkm+QHfG9co1XH/tlcb8/qLOCl+Q0OwUS9Yca3WotLQM+w9nkLaMicm5jUSufpf/0rtvKq69YT6upVfdq3sPcnCp42ziWqpZ0qvhTk0cSO2WYg5K9+4pppY15ivvV8kYDylnh7P8zrpqGV598ukmFBeWIZQIbTFvSU4XEWBnDhTKNVOkBwxIg6bn9uvT27RGG7Awg3O3RU1Ve8VESkfGsm8xsTQjMZHsTyh89QzV2HlNy1BSSYTzSZM1NGEQTV9q9+68FkSPvBAVJRriDDeHNIQq3Gaf0nRee/Uc3H3XTbYkSoMx54Pz33EOkJQNGzoY11x9OXp3T7SxGIUJqtjHaKRf/x64dM403Hjt1ehGDqyuLbfQV3GoEOpjeCGJTkyMR5+0HpbO1GxLb78Tw9gfCFKtAwcyfmW5CFfS0/OF25ct6hDjZNJBjCC6JSeZyv5DQQQXTmTHU2mG+qb1JDP3dMOcZLVGhoeKFBQ6NtOHKC0ux6TJY3EV/ZiZdLASUhLQVFNHhnAasrGuCQMoPJfNm21bhoQxoukM/EGEFsRQzWnqqxwTIUvhg4+c2Se9hwXwt912E3/rggptrqIEFf9pjngt1bS4Pa13Ku1Tui31lIMTyJ0dkeNCQdpADpxWckYz5HMTIxRA0Yv3BJRgPEWpUY2aqSJmc/b8ywNJuGy4FqprWFcTCBTeNynjxqhCoq2ZLLnZ+Rg5LB133nEjLrtsBlJ6pKC+Vgkhx6QaqZOD6Law6Fwb/yBCK4Q4euwkVrz9Hk7lFloOF/VBlMpkSvmluGr+XKrgeFSWF1sngqmOGpQtqm2k19wF6f17WyJeoYvmOp2unp0n/IeiWmVq1ofy5VHRRAybKM0tD1g8JfWtOpStVfij4Q4NzsiJOxO+jBZp8kSohYJpab3ocadZeNZIh62ekYYyZUqxlpdWYgCZ4c7bb7JsYVK3JMv3h0XQAT6WgfXrN+BUVo6Zm87AH0Rorc54b/XHWPr2KlRo6JCOV2paCmbPnoL5V5DISUmoqq4gsmVXRGSGLrTjPXt2tUkKssVyvs5vf/8wkOrUWqToqGhKreqSumPcS6KJ6EKVkpDKq8ckxlqeXIsI/pggbSFHTw6nmF3OlVa51CstTIdOEzpKyiuQPrAvFtLpmj6DapwCIVVfUVKD999fj9Wr16Gi0r9HzHngCxNa+3BoOc2qlR/i+OFMtDQ2oEtiNKZNnmBJfKnKuupqS+EJtw318rJDjcjqmCbCy8b/sYkskDno2aMH4hj+CCmaZqRQTuChSCtH1JZeqSlmRs4XrnwZ4Gkb5b+lzjUCpcSOcGWto1CUFpZi/JgRuPaaeZg0aRwvsl2Mr3fsPGprprX/mKKV88EXIrS4TbvXvfPOamz7fB/rDkZYdATGTxiFBddcjtEjhqIgN8/ywppfXW+53GAbYRGRE2iLHYHbiPzHJLdso9Z0JTJ0QYh8BDfcqe6HyOwRdEXOVz+aEy3HOX8o9+WB/Ahl+/qk9WYomkrcNKOxod6ZExI7NyefRB6Pq6+6HEMHpbGxxFaID1u378EK0kD7kJ17vP8LEbrF1v6sWbMOaz7cgMrqWnJeEEYMH2ijK8oNa5pRWGwsnYY4hFFlR9AmpaenoVfPbpY9+zKk2KbSKDXK+P28naQqVDarZ2p3a2sjadhsdHQW2rwBSlIEY1Z56JKy84GYXbF/Z+rvDKiN2iSgH02MBEKpXo38xdDxkv9Szbh66vTJWHD1ZRg0rC9VpM+ykW8sfRfr1220RXfngguOo5XHVorz6WdewuefH4CPMXBichyuoSRrpCcqMtomqVeRGTJPZiGzoBCjhg1yOd0/0B5rtaRWSmongT1792PXrn3Yv/+gTXeVHVaq9GySqDXcu/bsx5adu0kljUAxPjc+F5mpyKkrExJiMX/eTFw0ebzfoz0TRFzNrNm9ay/7vwsHDh5Fbn4Baqpr2AY3oV9E+yIg3Ci9rGikiQy0f98BClW1pVfjY+PNadPMm9KSchzPOIm6qnoUlFYhOTnGZtRoi86zofeCCV1UVGJ7Yz3/+zdQWVqNyLgoTJo4Evfeewftb0/b3nDH7r1Yt34Tlq1aj9EMnS6ZNtFShF+EyE5yGpGRmYWt23bi/fc+wkuvvoHFi5dj2fJVeHfVB9i65XNydwUJFW+hVEfE1kT3E8dPYuNnW2y0SeEndQJ/IVHokSm/ndw1kTH/lRhOr1uMEwiSWi3s27hpK37169/h9y8vxZI3VmAVHaLPPt2M/YcOoYCarK6+zogtMyDCX2ifdb/8Aw3oaLuQXz3zGioozcKBzN/Y0WMQFRNum75qp0bp96qqSvSmSRw8sL8xaEd1XhChpSpV+cuvLsW2TXvUKowbNxw337gQXbt2pSpfh3fe/YCEWIF1a7bjG1+/HjfdtIDORtIFd1iIVT5c6cv1n27CSy+/gRdefM32A9m7cz+RWkqzUYPqmjrkZOXj8137bYBE88VE7PZSpbZn5+QZk9aw3BAXY5HYlG2qc41B9+zdnY7kAvRnyNM+21RN53Pr9h348X/9HG8tW4N8hpM19fWoKatlW4qwf+9RfLJpO3bu2oPCQhK8rs6GFbW4QYx3of231S900k4cP45fP7aIWuQoSkorjOj9+1F101rk5eWgqLQMJYWViIkKsSxZjx6pHWqUCyJ0QUERjf/7WLxkBaqrahjbdcH48aMQ3yUWS157kx74x9j82U5yXBT+7788gLtuv57epKv4QropFa2VDqveW4NFLyzBC8+/hjVrNyE/q4Ay6LMxb4VrtkUTuVzj3XWVtcinmdDY7oxLprj0aQBylYErYTi4mr6FFq3LSVR4ZbsNk6mUR9E21DeT0Ap5Tn+2xcbfH//VM3jnvXWWl9Z0YxtQYTu0fYc+G9juvKxCbNixF3t27MEhmhitnbbRLWq09lriXCCcxfO5EUredInB5o078On6zThy/JhtDRIbE0ft0UBHLMcmfmihobKKo0cP63C4stOE9tH7kz1csuRtbN9KT5veazQJKmdkx+c7sXnrXlu/nNavFxbSXt9/361IY5gim9NZIisBoy2Kt23bQa3xum3b9OG6LSjVBD8lY8Lp3ZO4LUFKKoipNSnPEUIppqqKWhQVF+EihiHaL1wS5QHvsAGYNR+sRX5OER0ctsqm/LB9VJOaUz18aLoNEiiZESiB0gbvrvwAr5OZFe4o4aHJEZoM4d2l8rWIPjiMXn1TM4rySrDn0HGcOHEC5WXlFpdrrzXFzp2VbhFbmTQ5kWXlpcjIOoWsEzk4eDKDQpdrmw9UlFfa+HlVbRMSyRAXXTTedmloD50itBBZTg/v/fc/sv2yKmtrbAV/FR2c/FMFKC4qpTENRoqtXLgS3/vO12xbSDcgcP5OeWr6xMmTWPHWSltJ+dqS9xiiFSKU9YSERyCI4YTTC648PSOESfnqin5T2FRRWmcaZtKksTZU2IbUIBv5+ZCq++SJbNMICmOUIdOAQgsle/yoobjqqkst1PFA9ZSQ+RYtehUbNn1uKl6aUelIDUoE9s60ACmugQotrdUIVW5WDj7bshvZWZk2Np3cTVs9dl661X6NvWvvk5LiUhw6cpISXIeSgjKbQx4U3EzNpgEkDe82YtLkcehNz719+Wcq8w5Anc3KyrYloDl5xdYRhSOa5RgRyTAgnGEAY8/LL5+Oe++5BYPogGk6qyPBuUEN1Bou7a2l5aX/8fBj+GTtZgRH0CmJduuWLcdL6QkE2T2lPVwXdLjBA8EndLhycgssreiBpMMmMCR24TeWRyePpTDW19cWRLI87VHiylC5DjSHTR7+ATpb9fQHwmVv2Ra6c6yx7T6xnBxHUkZfrAhZhTDih6XggzWf4sc/eRz//d9P4JNPNtrqDru/EyBijx0zEvd/4y5cdPFINptlUnNoSwtS2VqhpNSBoznYsHGrW4vVDjpB6BZzLHYzNPmc3rQ6IToLSbROqKdd8lH9XTV/hi1p1VxmJ0QicxsiOgI5OHtYrnYu+Lf/eBSvLH6XXFqGUNozzRkTHshjaGiqR2Nto/+oJ100X8sh12HVf2gKTmgLDh/NxC62Vdk7D9QmjWRpCpJRgRcom/ak7HcoERefGOfXQgLXdqntNWvW49SpXH4TYajmaZtP6xvL0n1NdYyryQyNddQQRkSWzt+k0sNsD7UiPLdoKX74b4/gqaeft+U7suGdAfkE48eOwve/+03MnzuFjkwo8aK5bM1sFcsXJemZr/9sEw4eOmImNRA6JdElpeX0Kg8gKzOPDddYs7Dcwor4GRyGsaMG4Y47brQthxVDC4TAs4E0RBnt1qds1JNPLYK2a9q74yAlsNEcLW3loPKFV41Xh5KDhw4fiPETR2Hw0AGM3R0BmmwSmJNo0x6UNO0kIMfswP4jDDtOTyLIeZPNU8GODI5YOtdvcpoCQzNJnGbBbKcPUlZWRa3gtpiQSjZglcpPN9U2ICE+HsOp+ifQZHTvkYImirNG8dgkdZg3kuDarySoCZtpAp5btBi/fup5askd1k7h5FygYmTf58y+BLfdeiPGTRhsW3qHKAGgCILtQlgLdu05bFtnl9IfCYTzElr1FxcW2ayR8hpyiXmrVBmWwPZhyKA0XHv15Zg9a5pzNPz/XNN0nA5Cnrze9Rs20xY/j2effg352QUIiw51jhb9avrQRCoRSEkLj4jCRRNG4etfux3f+7v78fV7bsWYsVrwToeITCCQCtfMDj3js3nkzTh+PNOSDYEIVMgUHy/VTV3Ey9Y6/Wmh506VHRfDUEgG2N92JYfycvNxQtsvUpOEmHMXQBDiWOuwQ0lkDTp8g6r1B9//pq2oGN6/H/saimDGue4Jlsm2hLENShefPH4Kv2Xff/Xr5+2NQ5q8ITNxLpAK13z1K66YY8mp7r1ToMUioXSUlbsPp99Rll9h3r52jgiE8zpjUtsbtmzHq3TCSkorzfBL6Uk99U9PwzfZuW98425bqhkYknQEil+PHj+J53+/BI8+8iQ2fbbLuDCCDpdTo+qo0BJhc6xCQ8JwyZTxePyx/8JVV16KMbRTcrKGDB2I7bt2obiskreLox1r6clw2ltbwkL7NXnyePTt06s1JlbS5PDRY7Yy097VRcYK5r0+Mm2XxHjMnzfbtlfULFcRpprO5rr1G/HykuVo0CIA6kdJsEkpQRMafY3B+Ma9N+Ef/v5B23555MhhJnXKlx8/qX1R6eGH6wERw6l8tVPJDx+5bd+uA9i0bSe95wqLFDQmfz5HTQKVnq5YugW7qWmrK2votCqkYplKkIc0M9bujREjhplvIjivRCsu3bf3EI7Suw6lOtWYcqOt7EvCgqsvtUVwiQlxxm3nAk2Ck6p+/Inf4vEnF+Ho4QwilHQmUrX+yRHZL00qi2ZBgx+K07XBuxIIIphiRM2sGDt2JOLo6JjmshrcZxMRqNBPEqJN3wNtlYirCQW60wSdf7TDklRfWHi4TWcy1a3f+EdMvv/gYdRWsgx6t+QhWx9lapJgcxiI9CvmzUXv3r0sG6Y6RIgpUyf5lxHTnAr50GY57CW1h/SW5n/LdkdGhODg3sN47oUleOzxZ7B1+y5L154T+KxGu75y87WYRU0STZPTYNqWGCBODx/Pxv4Dx4jzSnbROnNuQuum/LxC25YZleRoIkTzr8PoLGlSwVe/enPrpHEP2e1BqrqAHuZbK97HL375DBa9sNRt2hLJqi0P6Tltaoo42VOPlDaWK+5un9KUPZVj1dGqQXcliJ2stg3mGgIIrcnxjtCqw4HQLtc7mh65tu4QofQ8rQZqifBDR47xOxmcvojLjattXns9krf13/tU+9ROd0UH7xeRpUX4zdDPvjeR0cKiwiy79+Krb+JnP30Sq9esta0rz+aVqzTlJ4YMGYAHqFEvmzuNSjAMDQ3adothb1EltO+alvF2itByeJSw14wG0UCZH03AHzygD2675TqbfO/UXMeg57WpqV6I9ovHnsF7765lY6ptsnuzJMka4RriPv2HPiiVFdV1OHYsE4XFZZYtU8dVpjJ0R0lETfoTEws8BKvIsJAWmokGZNJT1gxLDzShPiY6msKlJI5jL4+FNB9bqzOsHP7R7FFtm5yVqd0ECB1gSj330Rxt3bqdbSq0tgmx2vhVL5HJ8u9EEC4tg0ZqLvaBn5pb5xXntTs0MgQNdPzeXL6KAvE03nvvQwvBVObZQHntmTOn2RTqscOpPeQPaJI868zKybWX2XjMck4bXVpShvXrPsPS5R/YqI3tynPJWHz7W/fQGZht6tQ11WtuG8hb3blrHxY9/woe/dlTOHLgKCnA2JhS3EzbZOuoWlGtxqiMtu4ryqlnOJVbVIyC/DzzxrW358GD2n3vOazWuiMSU5KjRzXhUI66QAsA6qlnNTSpudmaqiStowX6eWTcV5e8bdkk2S/90/V+/dMw/4pZtsuwrqu/e2n/lix5C2W0n7ZUprWb/raTcYRI7RyoDWzFdUUkzrr1G/C751/Fpq27+DvJSrWvh9VnW/lpZQSCa7h8Em3ldZzhoXZ30JvqeqR2o92OO+tECGm8fv16mU+iHZzyThXzoqtDqyu1u6EY4pyE1oiRXvSx3jZjB0aMHYx7v34bbrr+KkvnedIUCOLo6upq2uNt+O1vX7QRnsLcAttpyHDFjip1KEdG+WZHaI/gbQWKEZXH1iat2qdj79792LBhm60iXPPhFvpgIjKtHR8NEoXZmFZC89As1Nj4SFuzpNcXiNCalFhYVGLbLDc28XkiVZGivN30AWnGFJpypHuVqdu+fTfeWbkGNVX0uMMVwqlkIVGEc99lfSoYeh09cQK7drKNG7dg+VursJthjracdI6Vx8DeZyC4vkvG6RbaFfW7uKAcB+k96/2TMjfabUhLjDoCEVKOnOix7+AhVDKqUUkD+ve2yf1y8DqquRW0xVSGqR962APTcOvNV+OaBZfagx0RWWpG2yNr1sOjP/s1lq1Yg5KCCtpjty7JZZSEKD4c5CHAI7KQFwC6hR/qdGNdI7Zv3Y+PP9zIz7282MTOMaZlmXJwnO10oGfcpALthVaFPNopT31p7loUtVAEn9Wdzn7ZE7Yo0LSDH9SXktISm3NuAxeURm0fFcKjpYWxvp4Tw7LqsOhwFJdUYOuWvfjwg410AvP8i/zUELVNh879nHgG6Pdmlkj8sE1U9giLDLX9SF969R389Oe/wZtvrjRV3FEIJsbUQMyNN14NbRXdK60HasprKKjZNqwsaMNQOxByCrUvB52EuIREXHnVHHzlKwutQBXcHhS6qCFSdQ8//Dg+XP0xnZkahEezCnmbPFy2Wp3VwXMTQdkUNb5jRBiaNFWJDot2+AmLDqPNCzGEeOCV6IG1jmpV+1fLx2gjNIlCzzhC7r6IpAvaEI5PyDTIUfL6ptSs4v1GxqgqXOZGn6o2mKpYjqlNB2Y5CvE0vzqMfQ2NIsOIaaS+WvvkHe1B19Q2fepe5a3dNZE9PDSc5TRh7Uef4hf0yF9fuoKObeEZWS+B2t6vb2/cf+/tppliu3TBsRPZ/lSr00UdglTXSTpCWzafwD13XYfv0i5r8rkXl3kgqdBsko/Xfoof/ui/8fCjT2LP7sMIi4gyadSGb6pIS2ZNkv0d1pmFRkGK/04nspDt0E3J4qF1zkpT2sFz911lamDBgTf3qxXYzDra2exTeVa/QOWG0daFa3UnCaVVQ97zeq+F85IdKFmizdpsvZaf+G3gfdfTsp06yMyMt+Sta5NZ91vgIWh/Lh9HbxRQeTItDDWbXQ7d8GOiIeaJwp4dR/CT//6NCdFnG7bYatb2oP6NGjMCP/jBN/Gdb92GXduP4lR2nk1a6JDQQqLyxFrk/nffvwUPPHCXTc9tH8hLvZ06lW2v+nnkkV/hpcXv2vBceATtF0vWHGW3GZVTle7wztUwEVuk9DrvGmsjMf7vutur1T1lNHTQjgD2TX/IVGikf9vo3trqVLR+c+FaWKgIo2uqRQ9ofJk+RAAT65kG9k/7qjTRtrexXnsQh7kyjHnIPfLYPS3imFjlqr7Acz2j3f68nhJURCAueEgTanmOzF8Bw9InfrcYDz/yBN5dtcZeE9lWjwNl9hS/333XLST4XfYGA8XlbT07DTTW2oJLGPTffecNGDiofwCR1RCFEPU2+0ObjP/8F0/h4482kWr1CI8ikcnRHm7d/aom8AiQ4ABiqdFCkqc+OwL94lrAo60SA02ONInXdk8MlTRtV68Z8giociW0egmLCtJ4tgt0yJDKlAXUq5y9djsaMrgfvzFGVa6xFXSf3B3vfn8fZQ7smnd4TCDG0v367kaz3LlA9fu/n96dVlCpukNrsLSh+OqV6/Dkr5/Dm2+ttMkWCj0DQWpcbyC64/brMWTYQBOcDr1udVgv0NJ7qTSpz0OUQ6wbO9b7Jp/8zSI89cyLDAeOsxF61aBsZzMrohyz0w4N6lAAYTsA1efudWgRuBpPB3VHpTlF6TokkJm0sIWqs6m+BbGJ8Zg3ZxrDwLtx263XWsbLiMj2l1dVY8mry2wKjvzmRulvho1anD8z4HV/8nCHDxti4+p6FZR28K8qr2blSrHIRrZpJg+sH5rIwGjCRRSBwqHvIpd65ql7XfP2WVBShqEn23h6qQLhRz1XSMhvvC/j+Cl8vmOv3as3AchBDlwrJtxoDFvr2WzS5NnCKxHXNbytWkmcEiDrP9uMH/3op3jr7Y/t9UahdJR4t1pA+6TOKa+rpIRHXEeQs4HqUhpUjKTuBBLZI66ueYdAJVvL+Ce0WXFvPZpDI5DO6OCb996G733vXky9eIJNofX6oPI10KGJhQUkdFAL28k2SxWMHjsUM2ZMsflmAj2jWSHaYEbpTKnEgsICM00+Ol5U9LrL7j07tDG3SEV9wjPvmnqmQ8RxPVMz1cYzS9UV5zTqvhDdQ4e0oqwaW7bvwpFjJywRpFdLacpSqwligUob6/s54+g2IjspPnr0BF5b+jYWPfcqPtu4izf4EKosF9tuqUQjiQO2xSpyJZzedPG1fvZQZVzMw3va30wDhwIebKzZI69NvN9do1RSrYZRamdPn4RvkMh33nGDbaPoVoLoZveM6hShX31lqe2spFi+WZJHOzxm7HDMmH4RWje2Jaj/kgwlLPQKIyEyn8TOzSiwqUfOefMI50A1eYcHOhdJvT67K/omyZcAKaSSueuIyB6IIfQMBULMyQc1V00vrjl6Mgcnjp9AGZk3pWtXxJG5XYJFpTlhPSehBUKuPLz9Bw7j1deW46VXltGbO8x6+TC9ahfqO5fLdUOFO+6UtypEWk7aKN8G7i4HOhcIbd619iAm0FizGq3DiMyYUpvWkNswa+YE3HvPbfamVnu9ktlc96xXg1qgZM7iV5ejsEiEptduEt1irxjSm101bce7t7VdrcTubzNqjhzLsBew+RobiAOPAO5+j4mtvTwEum538IKX1PFwZREJb9A9Xn0dgx708Nt2eOo+NzMP+w4egV5FocGguLg4GwDyhPWchFayQNNS3l+9Do89/lssfut9U10RjFFDQijJrFgqW9woCGyCQJ/6xfvugXdNyNC5hxRPTXvnp10TgfnpQZBWXGgdLuPfSy+dgn/74fcpkZNt8oDXOQen115VXWtviissYHxJBMm+S3XrpWGXXCKJPpPQAjGWXuiiob/klC62a0NGRj4p20g16syUiKj95a16ngcyrZFIhbaD9vW0B++R9vecphVZoXI9VZW12LppJ44cPWrxvzYO0kiaHOkOCd3EsKKouASbNm2zseNfP/sidmzZ7xwtdliDA6pIlQfymIgiEGFcJ50L4c4EUk1ECX/0kOGuu/u9TuvwCK5DTpMeUJ3SHT5KYVNdExK7J+PyuVPxX//xTxg/ZphLEfI+r0wHbd8kPWajX1qKAvZPuxA6QoOqeximTplgqluI89rSHpTtUg65V2p3lJeW4hCdomZGG6FBYbZ9lBFTD/LT4aD16xlgDNlO0wWCfnH9d/jw2hNYnleHdlKwSROhPmSeyMG2XfuQTyFVnl87NZ1GaLnhGsPUy0P1Gj3Nqf7g44104UtZo0IQIlGqgjWZmWBtQr4aIRJKQ2t2kc6VOVDKUDJvKlzf2WxjED4sLaAkkNcBfYpIwYxZlW5U+bpXOxSEaYvUIM2Moo9KZ6+lph4pPbri5uvm4zvf/hpGDB9ky1iEOJXlQGfum8xPXl4+9uw9gLVrP8XqD9ahuqqW7WcDFKdSomPj9Z6KSEOgZml2tLTGSmQdkhBJft9+aaip1jSrk2ynW0nRIuQQVI6e1jf51Z7/LVB79LuILOHwalF/BfpN+PCet7Jkqni/vhsOeXhl6ty0E890LlNZXV1v+6lnnMyk4FLr0AGwOlW5hv+2bd+B5cvfwYdrNzFOLrDagoOVHfKMu91uoCeFfF1XFseyX379pErb7lQx6pTIricce3gN8yCIRA4JUh5ZcXwjJd/NcAxuYd0hPjIR72aMHBYbhdtuuBLffOAuSvLwAMfjdFDXFGOeYGc/WPMR3l+zHtt37UVOZiEilL+WvhOCdB8RmdajO8aNGYlrr52H6dMmoydDS72RpiPQMzJtm7Zswz//68PYu/cwqivrGH+zLUIMwSOcWibCiTD6JdCp1F9d02cg0QU612+qS46fBFGMprJ03eE+EFwpbjE9/XTNjKAtGTK0TxuhNSynedtaPPfuO2vtASl+rYY0ySXSiRpet9sN9GQroTVpkC1Q0k7gl107F7RNFfKap3Md3j2UfoZJjRJlQhg1gGZziBksp0wia140K8LC62bhx//5zxgwoA/VtTdUejqoW+qT3qGlTNJ7732EYs2DZjtCoiPoS1rhupOtcKmTxlr2mXY/qXsKvnbXDbj77lssyxQYn7YH1aGlSL947Fl8+P4WUlMDJK5stV8tY1esKo/QZwPdG4g1YcK7X9eELQMxiZjlDOB1EsFeM8EnG4zaPKghW1W3VENSUpLtKaJFXNpdSMtu6qo0YM7nyVFOWs1iupp5osao4hZyj36Xsra8s34nBLNBOrVVDZZE0NN2hYdNquGngGUQ+aKpDhtwcKXzO21ybSNik2Ixd+5k/PTRf/e/sbVjIgs0Hr5p8+f41397GG8uex/2+iaFQ6xOnrpml7pDm+bomvUKWg1SW1GNnbu1f1quTWOSmm6vxj3Qdb15T+FcQVE+jh3OMTzour9ESpjrU2BL25/r0P2qReciuFejd68xjnfjGcAfJGkUCKnxpgYJRTC69kjG+Akj2ggtlSB3XDvmaNrugP59TVqCw4NsZKqmpg7N9XyYuFKyQDQ3YvjtjTWAlal7wV4iwkCEjmD9YgT/JWu6Uy96a5yectkk1w6zR6be3J2a7KepMpfPnoK/o03WS8rPpq4FevbQoaPUTi/i3fc+pm7i89ROvVO7YuSIwUY8jT+nUyP0t8/etn67e7dEEr6R3msNtNVjYXGpLUi/6KJx5gN0RGy1V+GXlvEkpSQg81QWshjXaltmbQgnNMhgaetl8ZKkWq0WIeWUyhn0JF4eu3AicXFYCbhX5/rDe3XRFLFwxa9S+dK32rVB21NqFlCPHimYPHmUDSvfQ83UqroDQQP0sm3Z2TnYQpv98brPsG/vEcttn8otJSGbEU7CUNaNjAJPIbeBrtCmaIIBCS1ktxHagfBmtbcyRRt4t2rPMtT5MH7ySPzge/fZui7thNR2x5mgJP5vn3sJv/j5M8g4kU0mCcbg9L64esFl9qITaa72jVFMrbyxNjt/ZfGbKC2ptMl/PVKT8cLzP8fkiRNOW6rTHoRGS8YsXop//eHP7MWowaxXb8AzBEuz8UTCoZoldUYlZV4MeR61HS6U3Rbx9LO1VATW72IGntsjLEsjeYZpqmsNj/ZjSNWvnyYcjLRNbrQpnpYTd0hoD/STDk0w1wRBvch6ydKVKMgtMidFKxtVv8AqPg1YrFQxmUaJfNuRzzrmqmuNYQXGsryun+xnd4+DICSkJuHf//lblrfWfh/nArVXTuWD3/4nvLvyY5u/paktesPc33//fttu0o+6M8C2kK6qxD33fB9rPvrEZrfII//u9+/Bgw98FYMHpfvv7BhUt17F/9BD/4JV769HbhadWZt8oB9ZpzSTGEy6XJMQeU35Ael1M4vCj2fYiVnd5vwUXhKORGT3Uyu+ZYflfMk0DhrYBw/cdyeuunIueqel2niFNI5pHU91nw00yK3MWH5+ge0YsH/fIdQQeXpxqLhT06Fkf9qDnC8f7bz29fLRJrawk9rBXra8RUY/PMRNsY0Kh1543aVLDLokxCAhOc42mEtMjicnxiGtb4/WN7cmJyd0qD4DQZ7pgQOHsYjxv97NpZgfDcGYMWMCBqan2y4+xUUllgLVu6U1VUfn+tTLSNTfjRu34ejh46jTJjDEtI8RgF6Z2DtgJKwjEEK10nLUqOE2h6ymptp2KUiiRKl/cTxi46PZ50g6eOGUg2ASiiq3Xhk+/6GhUWpT+Qw+mTvxhHApHIvA4gc/vkV7mQInbEE0H/GYPGG07b5oEyzow3ijjmdR3c2m/nLz86n6MrF5yw6s/2QTdu3VhLVS2h6pH4VU8qT5ODvYxGdckeK+ZgtX1GmtaLTcKzumLI2yS9EibFyc2xk3PsY6riW4elFaWKhesEmlJY6nOtJLw6bPmIw+bLxrdAdcFQAaPn135Wr84O//AyeP59i+XFL/w4cNxOiRQ23+lUa6BOq4iOMQIB9CqzMasX79ZpzKyiMjU1LIOEndUvD0rx+2d1p3Zn8TMYum2+7ZvY9C4pYFaQatlhwpN11fW0/Jr0F5ZZVNPNScdy2BlQappS+kARr5RVq1qqXAIpFSuprwb+Ao6zAhaeaHTa7ghUEDe2P08GG2O7GGmTXRX8toOyS0BjB279mH559/FZu37sKxjCw2WJPKfZpgSIRoFoQILafBgVSx1Il292FXLXHQo3s3jB/vVlf0T+sFvYEtkZVqO2ZH2AhynXOqPBWjQ+B9igAisBMkXfOudwyadP/G8hX4P//0E+SQWGFRlIfGUNQrbWGetfe8Ps/oOoHXqOoj6X0rT69JiMEx8XjuN/8P19I/UDKlMyDNYsj31yEsK2mkr0K5hEkOn2JxvWKpvKySWqXc5nhpTrdewLpl205q0UOkRzUVIM0fm2ytF2W9bhihHTVkGSghJvJJZOiRwwZg3rzZuPHGq8wqnAHiqIMHDmHrlp3Yf+AkKuiY0PWlPVH443m7rgMeGL/oEj9DzZ1kmFJdg+LCYkq4zwbCR48ebpKlTc+7MmTRGKo2jpWky+OXqpE3rek+Gl7TykZNEpDtrG9oMi6v979VtSNQ9TYBMCqaEkDpV+/YHl9YMCLYbq3pDqeE0zfkQbNDJtNsGEl9GL+HhdOxieT1KD6rGaLyZ9nVaKpBLao/l9oW4TRlR21UbC10qA/yyPWcbWRDbSDvXRk4bXkh565rSiIdvh72YrYJE0djwoRR9Ji7GaPoZayNjd5qSylqP3UlUX7G9+gtsImSCrGoPUoKK7B1x0FbD67Nfc6qupUK1Uq/9z9Yh08+2YLjx7MYbmiekiYWqECqvLP2W9XrdQdEVD3P2cnePZMwgMRWkqNf/37o1bMHErrE2aR5SayarMkKsuuaQdnU2AC9ksjtgsvSZLvYLpkAaYi+fTS1yXNJ2kDPajnqvd94CDs+P0BPVAGfPFj3zktl31oRxl+cTjLlx0N+Lu+n5NmKDUpkA+P3ifT4f/qzH2HalImWoWoPitEPHTyCQ1TXejeWJl4oyeP2SQmx1RPqo541wkvqiPYmBvBydAuLi21Z7rEjGSTKURxjdFNRTA1Kg6zq3PYbjI/53QyNXvtEXNiqVms/8cboBrT1WpzQXe/qpMqeM2ea7TqojXnP6nWrs7J3ChOEOK222LZ9D44cz0RefhkxSsmS0LAvQTwJ8hLXBmqOUickFO2V1hmZ18krYYzLtfzFdqsnkTVt1wgtxmER9r4pEkNvutFcLXtZCculm8LrLbThYfb+iP/7f75lQ4dtKt6BuqMw6fsP/RDL3/6QmqDWXvBtu/pLSomg00HPi/gCEbENHYpLm6jxv/13d+LbD37NlsC0ByH8wMHD+MlPNGlvq9li23qa5SrnrPZp3FgDDiKy7Xmqf6xGglBNMyl/qJZ2u0qvBqbmtMSH7mf5mmApiZJX7pquc1evhmltL1A6uCF0alMZxw8dko7Jk0Zj+vQpNqdbr6Ewx+9shPZAP8u50KK1Xbv22kZyet/SicxslNCuVFTUsFa/lPglXB0JC9XyFDXKEUKVmOfNTwutaMNtBMRiCLuFENgUf2Eq1667cnT9snnT8MKiX9rWzEJeexDinv/9Ykrh0zhxNIsMRXNDxMnDVbjXnjnaynb1iyfNoWS3kmhifr/op5h68STbwLY9NFHTvLtyDR7+yS+weePnvCLT5rVd4O+TLqnPrXURdKsqk8SSkFIiwYoSDOwB/tenG/wIIr6aVYaKFM7Yr8S4KKr/Lkjv1wcTSNgFV12KgQPTW6cWeX09L6E90G2SciFR20Zoeu+WrTuxl+GWXoJZRe+ylmpO2zNr4MG1REWfo/jWznv3sMPy9mRTlVXSxIZgNz1XnrLUoRp/x60L8S///J0OJVogbtemb488+gQW/e5tSlEjQvVKQT6vVsmT7ug5MajhnTfpXVnRXeJxyw3z8chPf8gQSbvc647TQXVph+Mf/79fYO3ajbZTkCRPuNK7McQImklaq6yinDH1VR8GKs1PUCuYf+we/3kr6JyHfAxKZ3RshL2ZQMuHJtLZnTxpjL1SuXvXJOLK7TPWvn+dJrQHul2OgqRc6521PugUpVsbyelVw9rrRJPGS6uqzHvXKwU1pVc79agiazIbYeqMqlQNC2Ngr137FG4lJOgtNHFI5me8vaTE2XEtkrctExmejR4znJ57F2e7zgKqe+eOvfjP//o5Vq3cyCtNCKHjJf+i2ea1CeEur+eTiiWyFeOLcHLQE6kG586dhn/+p29bdkma43TUOfDwoW2gjtNTrmaIpDJUv6Ya64122jlIHnVFRYUtClAGraqq1jafUwZS+DEy6GAlwo/6KpOmpEcMPWiNK+s1DNr6WcuGBg0aaGu/lfXSQkcdcvraE9iDCyZ0IIhr1VARXWGCPE4NJmjJqt5ipw4pcVBH6VB8amk/9kTeqKbTRpLIURGMqxlq6VUEMbTdETy0PEbetu4zApvT5ZL1snXaQ8w2zOkQ9Q7ULcWnn3++G7/73SvYTqKfyslHZXUdf2TMT8csjKJbT4lSmtbmlweHW4KjX9+etmZLW1FNoifsXgMoZOmPnZ4B9somajNNV1a2S5M0tAjASbWcS71ctck0ogREm+HVVFML8rvec6nIQlOVlYRSzCzNJdzoJTXarV/5COFIkyuEn8jwCH56q0v8jTgH/EGE7ghMIqT//OpYxasGOWf+SwrzrEP2z9/IVk5s12g9L4kRt56LYzsCPStG1FKhpW+9a5vOHD180vLY5WRAGwqlZyxPPYlaRDNA09P744YbrsC8S2fZBvPnGqLsCFydjRaV2Pxx/zVrt7//fsyYlrbfeC4mdj1z5sPDjXtZqcBfhh8uBA+CL4XQKsIITHChgGuU9vdQgzsFvE3liLMtg0QtoI1U9Sa6g7S32tVP86yluo2LRXT/o+cDlasIQlpG2znuYBTxyCNPYPfeI+RMH8aPG4l/+McHMWHsKEvqKM61hfbsQ2fqcM6lW3wgzbby3dVmkvr274PU1O5ss6KLCIvFpaUM5ReAdWXoNFTr8OMiBOFZZXUWvhRCC4myzdqZTwkQJQW0Il/SoMSFYlJxuBCnylSlGEPrkqXypNa0BKiCqlZroHNy80zy5FAdpu3PzivArBlT8eAD99gLxxSe6VUICrUUyrjQRSRxdZwNPERlZefi7nu+g08+20573IzL512CXz3xsKULW7140cJfVGCJKsOVIw9YuQIfba2yW/XsQx0+37EbP/j7fzczpjcMDB82GMMY8khT9OjVwxJF2spaRLfYmmbJvQmI9SjuVmWs2/Bj5Qs/TVaHNp1VTl7j4wNYntu9oXPwpRBaRFq5cjWe+NXziI1TjEy7EkfnKkaZL9pdOVPslIgtELKVRZK9qlLOt4phmpyWiioL2dShGl6vEfLIBKhrtNcqaWX/DTdejXBDEB05y6TJzrtUqhhLTp5eNi4GUpZN2Si7TmZQR/XSzgOHjuCBb/0TNm3dTS71YeasyXj8sR9jKInircsyzcK6lZtWWlXMqzoVu9YpF02NYz4Jf9OLw6WGi4rL8OKLi/H6aytZhI/On2xpOOLIlDF0NLUwX3GtHCjt86kVJN7b78wnYRulp6QhHHEbUF1Df0dOnVKkpeX2eseHvn+/vXZZz3cWvhRCi/t27d6Hn/3sSbz8+ruKTXjVUyv61CEi+9nVDoE+ncpv/d1u4Z8wd64Jic0tIWiua8Kki0bgnq/eYflb7TrveatiIA2bRkZHIDoqHPn5hTYZUK8Z7JGaSgTHmwMnCSklMVau+RBP/eZFHDt+ipX5MCi9n6nu6dMvQlKXREO0PGLti52fn4ecU/kYOGwAy+lie7hoObBeR9jYTOmmWo2MirZRsnffXoXfPfeKvY8zgt6ydlUwJ0/dVMRpfVUH/XmHwEMo8lSIocfDi754uIzAd793O+6/7w4MI1NeiJ3+0pwx5Xc//XQzHv7JY/hgzUaERrERJBBJ4W+4wH+iBhLp1kd1jtpSClO/6j2Wmjar8xDhg83zhYQTaXWIZCw8eEB//Nu//z1GMeQpJZc30INVfFzL8kKJeKUZszKy8PCjj2PvriPo0TuZ8WWybW4uTziP4WDGCW2M14RoxuhamKcNbWLi4tC7Zzd7zZDWXldWVNNLL0R5URGuuHoObrrpWtsmuZmSrJSmzXoh/oOpNbp164nXlyzF759/FccOnyCRwxmyKfYXsfwEY59DLGdASVXHPZycE/2sIIhePHHkawnHpdQ8jz7yr+z70DYT00k473h0Z0GqUXOiZTdOZp5E9qkisztKcigHIhPqDtpTdtrlgnnod3ZIKkuHhuJ4mx2WBOLvinFtc1YSJC+nhMTKs3dG9rS9qXkfpUsbwoSarQ5BT8aZ2iulqLSQiM826c7KLEB2Zj7KSysQTLWqqU4avlSKVQiVpBbnl9vuiKd4FNJpk5SOGTvC9lEbOmwQaaJECxHMeFvDqOF0DBNiu2DpsrewfNk7OLD7KM2EaChfRA6piCxpZA8k3fwu91SvLxRuvP6ffsjncOfqD4LINPXAxAlDcN+9t1PrTDYzcqHwpRFaakRBu7Zg1EKvE0dP2ut8JNHONjuEuqFyfQoJuqbf2sB9c1yucxHZLRb3seNiBO1kWGYxstR0v/59yRDOsZPUyIwYse11vZRin+LXBhLWTWUSgbRZagJj056pXW0ygySPRdO+O1OhVwtqe4iLJo3B9TdciXGTRsFX02BpUdLYiCD/QDzywZp1WPzqUjqOJ9lXhlV0Pl0nVJ+kzvVXhCcb8lyJF7+UnwG6rvt1T7DNB2+pa8aQYX1s7/OrFlzqxpYNnxcGXxqhBWqAlsSk9e5FIpfiCDtfXVqLINrbtqaJyB7oantiS19rcF/3eYfuoKfO8xAyU111A46dPEWHpd6WuQ6kOtd7HTWCIyLLEYslMYeOHIL0/v3M0ZFK19tf9cJOvapJe3bOnTMbEyeOM2ctgr8pdEtK6YIhQwfby8sXLLjcfq9mNOFZOG1TGkObXFvfhE83bMJLv1+MfbsOQW/JtaFRI5ZTq9JCDuSps48iEIsx79ruCexj4OFMV3OtD3GJMbjj9oW4666bW3dM+iLwpdnoQJBUKSX681/+Bi8tXoGa0mrabClmEdR5tY64Qoql63kIdD1wBofXNO9+P9AB0k6/NNoY1L8XvvngPZgx9SLbm6Smmh4wkS52CfUznl6hX0F7XkUPVijU5AFt4RhGB064r62utSxeLR0wOVd6R3QMI4bmBr0d1u0QbFqJHnl0bCRys4uw4u2VeHvFKmRn5NqInPXGiGBnPNwGPS0aalRjToOAvpwBrs/abTCcDt29X70eD37zLjpfg0hkx0BfBP4ohBYo9Ni9ey9eeOF1vLx4OcqKqxASJWscWJ0QE0hogZCk655k6PCe0X3modmp9gzxUVIGpffB3EunY8rFkzCccbZSg3rXluJzEc4cF94fQlWq4T6Fd8pyu62WWRsJ5LapZLkaZNfKFPKRnDczSSRwSFiw5QmUbHl/1Ye2/XReDv0QaisvbFQJmmGjbyo/XIS2XzoPeraBkpzSM9ne2PPQd+/D0CEDbWLGHwJfquoOBCUCkpITbaeckpISZGblMG6mnTOce5zvUOI+PXDS4IgtIPJI2zaN5T3bbOpUZ8VF5dArmrR7nzaoiY+NY9waYXbUHCNhm0QT4ZR7psDzK4nNH4zPSXB916RFk0DxnpwhxerSEvU1tmncRx+tp9O1Cpu27bUNejTMJSaQrVY7bA4dGU9OnAZIZMsvBNRM7bMamxiHKy6fjm/efyfGjBr+BxNZ8EeTaA+aiFhNlPvxf/4Sq1avp2SXIzjKzfjw0OM+BWqKrrcH3RPKu0gQ+y5ia5DE3j9HYpGAmlBF5MYmxODii8di5sypGDVyGHp07QZtii5zomc1I1WUsflupDjJYd6vJjaYp0vChgSFMpxrRJlCrKxT2LxxCzZs2WEbvNVX1iAkkrZYIQRrD2G5Csfog6tFNBdsG5lFzHS6LpJ0d4xqlaRfGmsZPcRE4LabF+Dee2/DZPoRcnC/DPijE1ogVamVE7/4xdN4fdn7KC8hsWnXlLZU5R6Z2witK56k65OagKj0yX57Nk/hFgkWRPQ6wit5onhTtxNhcVEY2K8Xxo0ZhTFjhtOLTrO9PmIjo6huw/10EvpJ5JZGtrEZ9XWNKK+uRFZ2Ng7tO4Q9+w/h4L5jKMgr5s2ECEo4marBz4vhrKxFqztZp6ILkcScJT9K9VflmpfMsNGmJ6ntAaBmNEglkGHkT9xKIv/jP3wLfakJO5q29EXhT0JogXLBeqXQ0uUrsXTpOzh0LItXfYhg5z0r7Q5JnggnbBqq/NdCbCKLhpIlLbrZWUPTs3afXZGE8XIz/yiUUvpRk/ASExMtlFL6Ua9SVGpU6VKabPPSa2trbLy4iGZA4+kVtMd6p1Yt7bwmImgShAjZxLYoxAtlddpPTLv8yflTKwJlT2gV0UVkG4hgPd4gRCDCbSVKfQgGDU/DwgVzcecdN2PIkPROTSu+EPiTEVqgwQ/tjbVs2Uq8/MoyHD7G8KvKvXFHHqVmfjQSeW5dhwiteNKRUkg054ifbXAmoVuBp1owYDsMKv3FOqQFIkOpnikpcmBdmCMbTlVOqdK+ZEK8MZIIQO2hOexU6vwnN5IKnupdzMFTSrNaKIfQsaYue0yrczljAq9lhmieaPckJYOU6NGki6GD++GG667ArV+51pbTKH//ZcOflNACcXdpabmtcXr+hcXYsGkHqsprLPxqonoL97mwxI8WAx+JIgmSnW3ib22So/ukur379dkOeElvzfdRLIMpivTD/UXLJBCkaol1Iznr0Y4/NtsyiMiWB04yNYc0kPjhrFf3krBsgFeTduTXfG2PGb3r1hq2Vd9FaD1qv5HpmlBPrueFmEjMnDQKD3zjq7ZIQUOkF5ra7Cz8yQktUJXKjR84eAQvvrgES157F9n5JfqBKpKEJMaVLgyV1PB+SZCIbRlFD8QMkjpDnw6h2vseCK57PpJBFt2YxFx4V5gtGjfJJlBE5aY58uh3D+kWjPEf/QLeakznT2fKX7D5ewTd7Um0ng5nPeqr1yK1pFGLCMgcqb0SMY8h4T8+9AAGDEq3kTaz5X8k+B8htEDVym5r7FmvxdUCvv37jyBb22hQPUqylOcWYdRAW3vmaGPfDSWtTdc3obj1Fz/ouxI1Ip9Ur+ysymVh/EmkE3G8Uhx4z3syKkK5a7qvmeohRPOqqZlEaM1yMoklyMGTOdbtVjP/yC7LQdR8dSmfhORYjBoxlPb4UnsJigZKlLv+YxJZ8D9GaA80sK4VCZrb5fbi/gyZmdmoqKolkogwIsBlh4Vw/lXS32/j3HovnhiO9HsjyeMQ5kgkUXOIFrFlZ03ixEQkgHwjdV5SKXt7OuiCk0blnPU9nGdyxkLpP8huGyUJmoLr7hax2UZjSF3heZOYrAUR0dFIS01h2DcFN1x/pUUCmrp0oVOVvij8jxPagVR5o3m7az/diJdfXIaP1m9nzFprGdEwyUxIONFGGSL+JIkiv+FS6BXVFUvzguRX4BQvf1P3NAneIKCr7U/5mLzrjsCVqPtEUH1zxPOEUHG8tcH9N+YM1uwZtaKRdYeGYfq0Ubhu4ZW4nkTWkhsR+I8txYHwZ0JoB2qKnDWNTC1/ayWWv/keNm3ZjaKySjDOIcVFNCUllCnyU0X2lacagXLW1TlnsqrylR2hidDz9FI/a0sOT7KNYO70DNBvpqF1oqIVB/O/hVG62MAvjLmTEmIxefwo2+TuivmXolvXlD+6LT4b/FkRWqDmyLvW+yqV1tS7Fj/++DPa78PIKyxBqZahMu4VDaU6Q807lr10oZgMoeQt1OJbebhajenX0eeB1ltUUJuJPh34mxjC2EyKgrS1SQgiNplOqdeuyYm2JdbMmRfj8stno1fPVIvl/1RquiP4syO0B2qW5myJ4Hl5hfYC7i1bd2DPngM4kZFt16urG+gUySr71WgIEWm9kYjzgoVOIoCufTkgAqtI0xT6ZNnKRSfFx9puCnr52sxLJtuk/z59eyM5OYkElifxJTbiC8CfLaEDQRKu0TBlrrL1VvcPP8X6TzZj7/6DOJFbAFT7Y2m6vRpHkKC1KOvllziT/i8IQo+HIGXmiDHGwPrGwsOCzYseN2oIpk6diDmzpmLYkEFujlqEm1z/5wJ/EYT2QE21nHR9nc0ePXbsBHbv3mfqfdeuA8jNL7a9Put5n20GK5Wq3hnleSKhEiecCzxs6NOYhA/rnDQLpuqNIQHTeqbYa4YmTBiNieNG25v19DoiLZ8x6W2t4jx1/QnhL4rQbUApY6uVUtUap8qqKtv3MiMjCycZmuXk5iMjO8cm6xcUlaCR8boW0suz17sbzXfin7axcacGhAoNPGiIVbsxaFZpSlICEhMS0LtXd6T3S7O4t0+f3jY/W+vCvIX8jrh/PoRtD3+hhD4d1AW3/qvOCK/50PLcZcfzi4pQyU+3bUSpzRnXInsbtuRzsrkikiYlaMqRvOI4ErB7txQkJSbaJHypYlv7FBNlOxXIJmus+otO6/mfgL8KQncERkQS01Zy8tMWulGVewSWVuCJyXSro0SKi3YhwVrkF2KDH7KzOv4nQqIvE/5qCX12COzuXzbxOg/A/w/mkjBbfbYMFwAAAABJRU5ErkJggg==;" parent="1" vertex="1">
          <mxGeometry x="-360.5799999999999" y="-510.75" width="25.58" height="26" as="geometry" />
        </mxCell>
        <mxCell id="jJeJy1seHARlF9KhycA6-25" value="" style="edgeStyle=orthogonalEdgeStyle;rounded=0;orthogonalLoop=1;jettySize=auto;html=1;strokeColor=#009900;" parent="1" source="A0nYaDOjtjgqWgvlFO7J-38" target="yvz_mEQcSD7JRhoXDO8C-37" edge="1">
          <mxGeometry relative="1" as="geometry" />
        </mxCell>
        <mxCell id="1fuZ47LUaq4kGTlMKida-11" value="" style="edgeStyle=orthogonalEdgeStyle;rounded=0;orthogonalLoop=1;jettySize=auto;html=1;strokeColor=#009900;" parent="1" source="yvz_mEQcSD7JRhoXDO8C-37" target="1fuZ47LUaq4kGTlMKida-10" edge="1">
          <mxGeometry relative="1" as="geometry">
            <Array as="points">
              <mxPoint x="574" y="-191" />
              <mxPoint x="574" y="-191" />
            </Array>
          </mxGeometry>
        </mxCell>
        <mxCell id="yvz_mEQcSD7JRhoXDO8C-37" value="" style="shape=image;verticalLabelPosition=bottom;labelBackgroundColor=default;verticalAlign=top;aspect=fixed;imageAspect=0;image=https://ih1.redbubble.net/image.883315883.8466/bg,f8f8f8-flat,750x,075,f-pad,750x1000,f8f8f8.jpg;clipPath=inset(26.33% 0% 27.67% 0.67%);" parent="1" vertex="1">
          <mxGeometry x="551" y="-280" width="53.44" height="33" as="geometry" />
        </mxCell>
        <mxCell id="yvz_mEQcSD7JRhoXDO8C-40" value="" style="edgeStyle=orthogonalEdgeStyle;rounded=0;orthogonalLoop=1;jettySize=auto;html=1;strokeColor=#FF0000;" parent="1" source="yvz_mEQcSD7JRhoXDO8C-3" target="A0nYaDOjtjgqWgvlFO7J-38" edge="1">
          <mxGeometry relative="1" as="geometry">
            <mxPoint x="-331" y="-360" as="sourcePoint" />
            <mxPoint x="457" y="-133" as="targetPoint" />
            <Array as="points">
              <mxPoint x="360" y="-263" />
            </Array>
          </mxGeometry>
        </mxCell>
        <mxCell id="jJeJy1seHARlF9KhycA6-23" value="" style="edgeStyle=orthogonalEdgeStyle;rounded=0;orthogonalLoop=1;jettySize=auto;html=1;strokeColor=#009900;" parent="1" source="jJeJy1seHARlF9KhycA6-9" target="1fuZ47LUaq4kGTlMKida-20" edge="1">
          <mxGeometry relative="1" as="geometry">
            <mxPoint x="-433" y="-935" as="targetPoint" />
            <Array as="points">
              <mxPoint x="956" y="-979" />
              <mxPoint x="-432" y="-979" />
            </Array>
          </mxGeometry>
        </mxCell>
        <mxCell id="jJeJy1seHARlF9KhycA6-9" value="" style="rounded=0;whiteSpace=wrap;html=1;fillColor=#FFFFFF;" parent="1" vertex="1">
          <mxGeometry x="669" y="-520" width="172" height="166" as="geometry" />
        </mxCell>
        <mxCell id="jJeJy1seHARlF9KhycA6-10" value="" style="shape=image;verticalLabelPosition=bottom;labelBackgroundColor=default;verticalAlign=top;aspect=fixed;imageAspect=0;image=https://i.pinimg.com/736x/d5/64/32/d564328a375317ef161e79aa5292648c.jpg;fontStyle=1" parent="1" vertex="1">
          <mxGeometry x="749" y="-319.81" width="10.78" height="21.81" as="geometry" />
        </mxCell>
        <mxCell id="jJeJy1seHARlF9KhycA6-12" value="" style="shape=image;verticalLabelPosition=bottom;labelBackgroundColor=default;verticalAlign=top;aspect=fixed;imageAspect=0;image=https://seeklogo.com/images/E/elastic-logstash-logo-EC5646BB13-seeklogo.com.png;fontStyle=1" parent="1" vertex="1">
          <mxGeometry x="695.64" y="-253" width="21.36" height="24" as="geometry" />
        </mxCell>
        <mxCell id="jJeJy1seHARlF9KhycA6-13" value="" style="shape=image;verticalLabelPosition=bottom;labelBackgroundColor=default;verticalAlign=top;aspect=fixed;imageAspect=0;image=https://static-00.iconduck.com/assets.00/elasticsearch-icon-1839x2048-s0i8mk51.png;clipPath=inset(0% 0.19% 0.33% 0%);" parent="1" vertex="1">
          <mxGeometry x="742.39" y="-257" width="25.85" height="28.8" as="geometry" />
        </mxCell>
        <mxCell id="jJeJy1seHARlF9KhycA6-14" value="" style="shape=image;verticalLabelPosition=bottom;labelBackgroundColor=default;verticalAlign=top;aspect=fixed;imageAspect=0;image=https://logodix.com/logo/1938616.png;clipPath=inset(13.14% 34.33% 42.34% 35.33%);" parent="1" vertex="1">
          <mxGeometry x="795.91" y="-256.3" width="20.37" height="27.3" as="geometry" />
        </mxCell>
        <mxCell id="jJeJy1seHARlF9KhycA6-15" value="" style="edgeStyle=orthogonalEdgeStyle;rounded=0;orthogonalLoop=1;jettySize=auto;html=1;strokeColor=#FF0000;" parent="1" source="A0nYaDOjtjgqWgvlFO7J-79" target="jJeJy1seHARlF9KhycA6-10" edge="1">
          <mxGeometry relative="1" as="geometry">
            <mxPoint x="754" y="-294" as="targetPoint" />
            <Array as="points">
              <mxPoint x="754" y="-279" />
              <mxPoint x="754" y="-279" />
            </Array>
            <mxPoint x="755" y="-268" as="sourcePoint" />
          </mxGeometry>
        </mxCell>
        <mxCell id="jJeJy1seHARlF9KhycA6-17" value="" style="shape=image;verticalLabelPosition=bottom;labelBackgroundColor=default;verticalAlign=top;aspect=fixed;imageAspect=0;image=data:image/png,iVBORw0KGgoAAAANSUhEUgAAACIAAAAqCAYAAADWFImvAAAAAXNSR0IArs4c6QAAAARnQU1BAACxjwv8YQUAAAAJcEhZcwAADsMAAA7DAcdvqGQAAAEVSURBVFhH7ZgBCoMwDEXbnURvoicRT6I30ZuoJ9GbuH7JGA3RdRqYjDwIZlrso2mKzK8BdwMedP05JsIxEY6JcP5bZFkW17atK8vS5Xm+BX4fgpNVk2EYcFKLkWXZOs8zjYxRF8FkksQriqKgkTGqIl3XiZPzwKpxVPfINE2UHTOOI2VvVEX6vqfsmFA+yt6oiaRK7EIlugQ6Aa9KCWxmicsikEAnSJNKIW1UkCSCbuAvgEDTNOJkUmAl9iRA0qei9367YpMhcHIiJPC8qioXVonuuCjfZdP5AIalxF79U1Bt31Aqyr5HVQRlOYuqyBVMhGMinNuIJJ2sdV1TdgzOkbMtbP8GcEyEYyIcE+GYCMdEYpx7AgHtDoCGSEdaAAAAAElFTkSuQmCC;" parent="1" vertex="1">
          <mxGeometry x="690.3933333333334" y="-506.0033333333331" width="34" height="42" as="geometry" />
        </mxCell>
        <mxCell id="A0nYaDOjtjgqWgvlFO7J-38" value="API" style="shape=image;verticalLabelPosition=bottom;labelBackgroundColor=default;verticalAlign=top;aspect=fixed;imageAspect=0;image=https://brandslogos.com/wp-content/uploads/images/large/python-logo.png;fontStyle=1" parent="1" vertex="1">
          <mxGeometry x="457.45000000000005" y="-276.5" width="26.11" height="26" as="geometry" />
        </mxCell>
        <mxCell id="VHQm3ld0HByzxrR_ddXe-76" value="" style="edgeStyle=orthogonalEdgeStyle;rounded=0;orthogonalLoop=1;jettySize=auto;html=1;strokeColor=#FF0000;" parent="1" source="VHQm3ld0HByzxrR_ddXe-79" target="k0CTzh7-vUOgCoUulJSG-58" edge="1">
          <mxGeometry relative="1" as="geometry">
            <mxPoint x="-639.3899999999999" y="-528.4333333333334" as="targetPoint" />
            <Array as="points">
              <mxPoint x="-591" y="-532" />
              <mxPoint x="-591" y="-532" />
            </Array>
            <mxPoint x="-603" y="-528" as="sourcePoint" />
          </mxGeometry>
        </mxCell>
        <mxCell id="VHQm3ld0HByzxrR_ddXe-61" value="" style="edgeStyle=orthogonalEdgeStyle;rounded=0;orthogonalLoop=1;jettySize=auto;html=1;strokeColor=#6600CC;" parent="1" source="DGLbuV7ov17MJnyu4-wi-1" target="A0nYaDOjtjgqWgvlFO7J-74" edge="1">
          <mxGeometry relative="1" as="geometry">
            <mxPoint x="583" y="-11" as="sourcePoint" />
            <mxPoint x="515.3899999999999" y="-111" as="targetPoint" />
            <Array as="points">
              <mxPoint x="754" />
              <mxPoint x="754" />
            </Array>
          </mxGeometry>
        </mxCell>
        <mxCell id="VHQm3ld0HByzxrR_ddXe-79" value="" style="rounded=0;whiteSpace=wrap;html=1;" parent="1" vertex="1">
          <mxGeometry x="-860" y="-588.5" width="240.61" height="415.5" as="geometry" />
        </mxCell>
        <mxCell id="VHQm3ld0HByzxrR_ddXe-80" value="" style="shape=image;verticalLabelPosition=bottom;labelBackgroundColor=default;verticalAlign=top;aspect=fixed;imageAspect=0;image=https://www.svgrepo.com/download/354365/sonarqube.svg;clipPath=inset(37.33% 0% 38% 0%);" parent="1" vertex="1">
          <mxGeometry x="-814.8" y="-551.5" width="152.04" height="37.5" as="geometry" />
        </mxCell>
        <mxCell id="VHQm3ld0HByzxrR_ddXe-81" value="" style="shape=image;verticalLabelPosition=bottom;labelBackgroundColor=default;verticalAlign=top;aspect=fixed;imageAspect=0;image=https://static-00.iconduck.com/assets.00/trivy-icon-624x1024-xmts1w4z.png;clipPath=inset(0.67% 1.37% 30% 1.37%);" parent="1" vertex="1">
          <mxGeometry x="-763.63" y="-469.5" width="49.69" height="58.07" as="geometry" />
        </mxCell>
        <mxCell id="VHQm3ld0HByzxrR_ddXe-84" value="" style="shape=image;verticalLabelPosition=bottom;labelBackgroundColor=default;verticalAlign=top;aspect=fixed;imageAspect=0;image=https://www.splunk.com/content/dam/splunk2/en_us/images/logos/snyk-logo.png;clipPath=inset(6.92% 42% 36.92% 42%);" parent="1" vertex="1">
          <mxGeometry x="-766" y="-381.5" width="47.34" height="72" as="geometry" />
        </mxCell>
        <mxCell id="VHQm3ld0HByzxrR_ddXe-85" value="" style="edgeStyle=orthogonalEdgeStyle;rounded=0;orthogonalLoop=1;jettySize=auto;html=1;strokeColor=#B266FF;" parent="1" source="k0CTzh7-vUOgCoUulJSG-58" target="VHQm3ld0HByzxrR_ddXe-79" edge="1">
          <mxGeometry relative="1" as="geometry">
            <mxPoint x="-428" y="-518.5" as="sourcePoint" />
            <mxPoint x="-1006" y="-439.5" as="targetPoint" />
            <Array as="points">
              <mxPoint x="-584" y="-557" />
              <mxPoint x="-584" y="-557" />
            </Array>
          </mxGeometry>
        </mxCell>
        <mxCell id="VHQm3ld0HByzxrR_ddXe-89" value="" style="shape=image;verticalLabelPosition=bottom;labelBackgroundColor=default;verticalAlign=top;aspect=fixed;imageAspect=0;image=https://cdn3.iconfinder.com/data/icons/design-thinking-96/24/project_management_report_setting_business_and_finance_document_gear_cog-512.png;clipPath=inset(5% 5% 5.33% 4.67%);" parent="1" vertex="1">
          <mxGeometry x="-367.26000000000005" y="-163" width="32.26" height="32" as="geometry" />
        </mxCell>
        <mxCell id="VHQm3ld0HByzxrR_ddXe-92" value="" style="rounded=0;whiteSpace=wrap;html=1;fillColor=#FFFFFF;" parent="1" vertex="1">
          <mxGeometry x="690.39" y="-441" width="126.61" height="60" as="geometry" />
        </mxCell>
        <mxCell id="VHQm3ld0HByzxrR_ddXe-94" value="" style="image;sketch=0;aspect=fixed;html=1;points=[];align=center;fontSize=12;image=img/lib/mscae/Cache_Redis_Product.svg;" parent="1" vertex="1">
          <mxGeometry x="710.21" y="-422.75" width="27.38" height="23" as="geometry" />
        </mxCell>
        <mxCell id="1fuZ47LUaq4kGTlMKida-1" value="&lt;b&gt;Repos&lt;/b&gt;" style="dashed=0;outlineConnect=0;html=1;align=center;labelPosition=center;verticalLabelPosition=bottom;verticalAlign=top;shape=mxgraph.weblogos.github" parent="1" vertex="1">
          <mxGeometry x="-534.91" y="-572" width="46" height="43" as="geometry" />
        </mxCell>
        <mxCell id="1fuZ47LUaq4kGTlMKida-2" value="CI/CD" style="shape=image;verticalLabelPosition=bottom;labelBackgroundColor=default;verticalAlign=top;aspect=fixed;imageAspect=0;image=data:image/png,iVBORw0KGgoAAAANSUhEUgAAACUAAAAkCAYAAAAOwvOmAAAAAXNSR0IArs4c6QAAAARnQU1BAACxjwv8YQUAAAAJcEhZcwAADsMAAA7DAcdvqGQAAAo+SURBVFhHtVgLcFTlGT3ZbJJ9JNk8yHsTkpBAXiQ80wTUWkEEhKJlFCrqlMpI69TWTh/TqTIyYy2O06pDnVpRh05BQdFWkaEKQYTwCI/GkATIk7yfu0k2m91k39vz3TwmYoLTKTnDDZu7997/u993vvOdPwF+AmPw8aPT7YPd6cWI2wuPb/SrIFUAtMGB0IeoEaJWISBAOQ2v14u6ujqcPHkSW7duhVarHf3i/8REUBJAz6AT5c0WnKnvw7UuG4ZcHl4RgAgGlJsYhjuzZmFhsgGx4SETgc0ElKAkoMYeOw5caMfxWrOy6MKkMOQlhkNiruwYQnnbIFxeH+5Ii8L276UhJix4xgIL8LFmjb12vFvWhqp2K+7LjcWa/DhE6YMRpA5AUKAKXiWLDnxe1YvDFT3IN4bh6XvnYBYDmwmorCNunLhuQtmNAWxYEI9HioywjnhwtLIbF3luwO5mRgKQGKnFA4sTsWFRPCo6rDhS0QUPMzcTULX3j6CK5ZlHzqzKi0Urf3/jVDP+eKwROz6pwZ8+q4dc4yDxI/VBWJEdg/ykcJSwzJ0Wx9hjbi9U7XxwD4/c+FCFS5ZhN8wk/B2pEdi4MAGVLOmzH13Dp191M4NupWSFaREYdvpQ22kbe8zthcrm8iI4SIUsBiVlklb0k8CJUVr89J40vPiDbEUK/nqqBe+cboFw26ALQiA/9NtdykNuN1SiTQFcQcPAboaIRXqMHg8XJiFCq0bDWBnVJL8EJffOBFQaLuCmWLb1f50fHo8PNV1DCqfkiA4NwqNLkiiiagw5PNQ1QMcMzgRUojchzNIVdtQISxnEFARTwcsaB7DzcA3ONlmwKicGf34oD8WZURjmNa0DI/DzupTo26PgN0M1O1qHHGM4mvtGcJWklnKJcvcxGymROrz1aL6iSQZ2nujVdSr9oUudSGBTZFNcZwIBbq50pq4Pe042I4ol2nbXbGTGhcLB+ug4XjQ8hP0SkAT9+hc34Obvv1udgSzKyExAGTNeEra0tg+7SxqhUqkoBfEonhOFUG0QrwAF1IXzjf3YV9aOcE0QflRsxDoKrWiny+OFky8gyq8JCkQgyyodOh3k5WRcOV0+BLC3tLxH7p08siYGstvrRzXn296zrThHHgXz4VpyjZfDTufg9PmwgPPwN6syMDchFCarEx+Xd+H4VRPs5JmeGV1MbfvxnbOnHdjiPk5TdN871wbTsAuB5G4m6fLEXanI5ehSjd30NesiH2zkUjXL9GF5Jy42D6IoORz5KQbkUsVzGJSamaxqH2RWb6DBNIKCxFAYqWm9Qy5U8KVkZj69Ig3fJS8nwzzkxKufN+JYjRk5cXpkJ4QpGb7UNAAbX3rb8hRsZgXUDFRcwDfAlvf//Vybf9Vr5/0fXGgfOzuKZpPd/9v3q/3rdpf5j1V1+30y0Qk3rUZFi8W/6Y1L/i1vXvZ3WRzKeQHL73/5aJ1/2a5S/+sljX43yyKQW3utDv8z71X6i3ad9p+v71POf1MxCUmiBNzBcXOU5anpHFLOiwGspnRUU78eLzRiRU6sMgWcFNRrzF6TyY5fslOtHFV7qf5SAxFYk82Fc5SYdbkxeOqedKhpFAVSlRN8/lOcHBoS7CCtk2BK9VOC4hEWrEIvLcvPDlRhMc1dPLlyvdtGLxWCBbMNqKM8SPAtVPq/nWxC6iw9fkKvlcXSnGdZ3uQ5IbOYx34GMJdd3WN1wGx1Kdr4h09rYba5sYRcXEMz8G+6FcG0kiyB5fHhW5clK070FLvzfNNop+UbDXyYC2/RTTSahpXA5nF2/uLedC4WqCzYzpc5eLlTeZaYyEAZY/z3ymcNONXQjySDhoG68cL6eTBSK+MNIWy2USs0msdpIKURcX2GHbf/ySXY81gBfrg0CTanR/HqG5ckKk9IjtLh1/dlIJnXOigRkt0iZnLfE4uwb9sivLAhCxq+psXuUVxrOieBlR370oPZnBLRIB9xloFGiAQR3xIUL2AaghlABBU9k9komhOJYZbig0sdil//BxfetTEb6SzNILlUUt2LFlqhleSbdKWR5jCT3ZZoCMY5LiyC/Mqm+Xj14VwUpkcqdvtS8wCukLf30/UKbh0UD3EDE58ZYA5VfFNhIsqoZa8dvwE7Xaq4Bhnee0tbsP9iB4pTI/F9ejF5KTniWCoheD0bYfv+SjSb7YgJDUHngAOHeP2zn9QijtPkgcUJo2tJCyqfJmGYIvfxV104TS7tZM3jIzRj34zaGTGCJVd78faZVogf0zKTToqvlPR+EvaxZUaawZCxO0bhYOeWcSq8dLQeFpZfR455+CwveVSYEoFfcWwlMavKi0wX1L8Y1CnOxJ3r5yr+fDLkDhd50Em3UN5igZljSPgwn4M9PSZUIbo8/GZ4GPgAlVwEs40GQMaL3COGQMcGGb9nyqBkHPyTI6SUmXp+3VwkkRs3YzywAWbN6fZwLAUqjlQXwgF+CzAuRZ9GmDkJIpTXy4iajKkzxZJIpo5RN3asmYsMEnUy5I2vUkTfpkA2kCdDDE7Lt85kV62eH4f1Y3yaDFnFxJ3Rkev96OX/EpTMukhNILJjdViZGTFxz5REF25EshwmutEvxwRtHKLqpXVmPM+djpnzbiV3N08uT8Zackncxp7SVrzLgTsZlCn0UNc+rDKjzeJCWqQGd6cbUJwSRtcRiNJmKw5eMSt2STBlpgQN3DHvYSbM5MDvScIMtrxAPNWLR+qgYuDPrc2k8GnZoQHKOOlgN73DDqxh9p5bnYmlbHnBoMOLQ5Vm9FGntiyMQbRerXSyLO0k28s7bPiicRDrcyKxVNyCctcUMPJtivnQFu6e/3KiCRfYOUPcYske0cFXF08luhVKnz7+x4/0WD0e+Y4RoeTXkSvd4MBVsmQjR6V0WbFaRa/EEok1koqEMVMFCXolYxdbR7ds0wYVwoVW5MzCz1eko41dtuNwLbbvu6IMzXCWdk5sKKp7hnG83sJMeFDebsOXN6x0r8FIjdagU+YdAznTZMUhls1FHiYxIBlJkyG/6kn2nBgtPZZbOTdtUHJxGBeXXbMo9kOLEuDiG8vMkwer+aZ+UkDSL17TRzcmLlTIG0jPJfwShrhpDiVTwpGbAxqHnBbHOv5XgG9VdClNJrOymWV5eVMeHiepJQPCuew4Le6eY1DaOi9ej7tIXpmL9fwunhmL1KlRRDJvnD8LGi7aQ0cwFUZI8OruYcRwlAluGdQ4ZP6FadRIjdGhiDwzhKhwgLOPhg968kMyINuyPlrk91leB7OztiBeEUfRoMTwYMRzK1fVbUcjRXN8Eys/h9nN/2HpB0a8WGwcbaZpu2862JmJkmsm7Cb5Zdu1nF5IbEuLyAfFdoTfP8hNxZZlKRO7biF7x6ALH5FbkpXZkSHUNA1Hkw+VXcOcCB4YaV02F0QrA/t/DkquHmQXXm624DgdgThRJ1cVjmXQuoh4LsuIUgg/GeKp2ixOVHTZUUtvL8QXGFj6gkQ98ln+KJYbAP4L5f0g/gOjrfoAAAAASUVORK5CYII=;fontStyle=1" parent="1" vertex="1">
          <mxGeometry x="-531" y="-458.84000000000003" width="43" height="41.84" as="geometry" />
        </mxCell>
        <mxCell id="1fuZ47LUaq4kGTlMKida-6" value="" style="shape=image;verticalLabelPosition=bottom;labelBackgroundColor=default;verticalAlign=top;aspect=fixed;imageAspect=0;image=https://3.bp.blogspot.com/-a7jPVdFk9Hw/W_XeTJX6JyI/AAAAAAAAC2c/HCtxP0wSSs0wEMKJOYq7pivEJaSVin92gCLcBGAs/s1600/powershell.png;clipPath=inset(12.33% 0% 12.67% 0%);" parent="1" vertex="1">
          <mxGeometry x="-313" y="-160.99999999999997" width="37.34" height="28" as="geometry" />
        </mxCell>
        <mxCell id="1fuZ47LUaq4kGTlMKida-12" value="" style="edgeStyle=orthogonalEdgeStyle;rounded=0;orthogonalLoop=1;jettySize=auto;html=1;entryX=0.5;entryY=1;entryDx=0;entryDy=0;strokeColor=#009900;" parent="1" source="1fuZ47LUaq4kGTlMKida-10" target="VHQm3ld0HByzxrR_ddXe-89" edge="1">
          <mxGeometry relative="1" as="geometry">
            <Array as="points">
              <mxPoint x="559" y="41" />
              <mxPoint x="-351" y="41" />
            </Array>
          </mxGeometry>
        </mxCell>
        <mxCell id="1fuZ47LUaq4kGTlMKida-10" value="" style="shape=image;verticalLabelPosition=bottom;labelBackgroundColor=default;verticalAlign=top;aspect=fixed;imageAspect=0;image=https://www.avibeweb.com/images/imagebank/Blog/Docker/Docker_Hub_Logo.jpg;clipPath=inset(27.78% 71.33% 30.16% 4.33%);" parent="1" vertex="1">
          <mxGeometry x="546" y="-133" width="45.46" height="33" as="geometry" />
        </mxCell>
        <mxCell id="1fuZ47LUaq4kGTlMKida-13" value="" style="rounded=0;whiteSpace=wrap;html=1;" parent="1" vertex="1">
          <mxGeometry x="163.24" y="-924" width="157" height="255" as="geometry" />
        </mxCell>
        <mxCell id="1fuZ47LUaq4kGTlMKida-14" value="" style="shape=image;verticalLabelPosition=bottom;labelBackgroundColor=default;verticalAlign=top;aspect=fixed;imageAspect=0;image=https://logowik.com/content/uploads/images/hashicorp9742.jpg;clipPath=inset(8.22% 21% 8.22% 21%);" parent="1" vertex="1">
          <mxGeometry x="171.74" y="-917.55" width="26.42" height="28.55" as="geometry" />
        </mxCell>
        <mxCell id="1fuZ47LUaq4kGTlMKida-15" value="" style="rounded=0;whiteSpace=wrap;html=1;" parent="1" vertex="1">
          <mxGeometry x="200.24" y="-886" width="89" height="172" as="geometry" />
        </mxCell>
        <mxCell id="1fuZ47LUaq4kGTlMKida-16" value="" style="edgeStyle=orthogonalEdgeStyle;rounded=0;orthogonalLoop=1;jettySize=auto;html=1;" parent="1" source="1fuZ47LUaq4kGTlMKida-18" target="1fuZ47LUaq4kGTlMKida-17" edge="1">
          <mxGeometry relative="1" as="geometry">
            <mxPoint x="244.28000000000026" y="-858" as="sourcePoint" />
            <mxPoint x="244.28000000000026" y="-812" as="targetPoint" />
            <Array as="points" />
          </mxGeometry>
        </mxCell>
        <mxCell id="1fuZ47LUaq4kGTlMKida-17" value="" style="shape=image;verticalLabelPosition=bottom;labelBackgroundColor=default;verticalAlign=top;aspect=fixed;imageAspect=0;image=https://cdn.freebiesupply.com/logos/thumbs/2x/vagrant-logo.png;clipPath=inset(0% 20% 17.56% 18.67%);" parent="1" vertex="1">
          <mxGeometry x="231.16000000000003" y="-807" width="24.8" height="25" as="geometry" />
        </mxCell>
        <mxCell id="1fuZ47LUaq4kGTlMKida-18" value="" style="shape=image;verticalLabelPosition=bottom;labelBackgroundColor=default;verticalAlign=top;aspect=fixed;imageAspect=0;image=https://static-00.iconduck.com/assets.00/consul-icon-253x256-x7gbz0b2.png;clipPath=inset(0% 0% 0% 0.99% round 49%);" parent="1" vertex="1">
          <mxGeometry x="230.28000000000003" y="-861" width="26.55" height="27.13" as="geometry" />
        </mxCell>
        <mxCell id="1fuZ47LUaq4kGTlMKida-19" value="" style="shape=image;verticalLabelPosition=bottom;labelBackgroundColor=default;verticalAlign=top;aspect=fixed;imageAspect=0;image=https://static-00.iconduck.com/assets.00/file-type-terraform-icon-1821x2048-mbxeegff.png;" parent="1" vertex="1">
          <mxGeometry x="228.84000000000003" y="-764" width="25.79" height="29" as="geometry" />
        </mxCell>
        <mxCell id="1fuZ47LUaq4kGTlMKida-20" value="" style="rounded=0;whiteSpace=wrap;html=1;fillColor=#E6FFCC;" parent="1" vertex="1">
          <mxGeometry x="-560" y="-931" width="262" height="192" as="geometry" />
        </mxCell>
        <mxCell id="1fuZ47LUaq4kGTlMKida-21" value="" style="shape=image;verticalLabelPosition=bottom;labelBackgroundColor=default;verticalAlign=top;aspect=fixed;imageAspect=0;image=https://wiki.videolan.org/images/Windows_logo.png;" parent="1" vertex="1">
          <mxGeometry x="-539" y="-915" width="23" height="23" as="geometry" />
        </mxCell>
        <mxCell id="1fuZ47LUaq4kGTlMKida-22" value="" style="rounded=0;whiteSpace=wrap;html=1;" parent="1" vertex="1">
          <mxGeometry x="-502" y="-880" width="173" height="112" as="geometry" />
        </mxCell>
        <mxCell id="1fuZ47LUaq4kGTlMKida-23" value="" style="shape=image;verticalLabelPosition=bottom;labelBackgroundColor=none;verticalAlign=top;aspect=fixed;imageAspect=0;image=data:image/svg+xml,PHN2ZyB4bWxuczpkYz0iaHR0cDovL3B1cmwub3JnL2RjL2VsZW1lbnRzLzEuMS8iIHhtbG5zOmNjPSJodHRwOi8vY3JlYXRpdmVjb21tb25zLm9yZy9ucyMiIHhtbG5zOnJkZj0iaHR0cDovL3d3dy53My5vcmcvMTk5OS8wMi8yMi1yZGYtc3ludGF4LW5zIyIgeG1sbnM6c3ZnPSJodHRwOi8vd3d3LnczLm9yZy8yMDAwL3N2ZyIgeG1sbnM9Imh0dHA6Ly93d3cudzMub3JnLzIwMDAvc3ZnIiB4bWxuczp4bGluaz0iaHR0cDovL3d3dy53My5vcmcvMTk5OS94bGluayIgeG1sbnM6c29kaXBvZGk9Imh0dHA6Ly9zb2RpcG9kaS5zb3VyY2Vmb3JnZS5uZXQvRFREL3NvZGlwb2RpLTAuZHRkIiB4bWxuczppbmtzY2FwZT0iaHR0cDovL3d3dy5pbmtzY2FwZS5vcmcvbmFtZXNwYWNlcy9pbmtzY2FwZSIgdmVyc2lvbj0iMS4xIiBpZD0iTGF5ZXJfMSIgeD0iMHB4IiB5PSIwcHgiIHZpZXdCb3g9IjAgMCA1MC44NDk5OTggNTEuMDkiIHhtbDpzcGFjZT0icHJlc2VydmUiIHNvZGlwb2RpOmRvY25hbWU9InZpc3VhbF9zdHVkaW9fY29kZS5zdmciIHdpZHRoPSI1MC44NDk5OTgiIGhlaWdodD0iNTEuMDkiIGlua3NjYXBlOnZlcnNpb249IjAuOTIuMyAoMjQwNTU0NiwgMjAxOC0wMy0xMSkiPjxtZXRhZGF0YSBpZD0ibWV0YWRhdGE0MzE4OSI+PHJkZjpSREY+PGNjOldvcmsgcmRmOmFib3V0PSIiPjxkYzpmb3JtYXQ+aW1hZ2Uvc3ZnK3htbDwvZGM6Zm9ybWF0PjxkYzp0eXBlIHJkZjpyZXNvdXJjZT0iaHR0cDovL3B1cmwub3JnL2RjL2RjbWl0eXBlL1N0aWxsSW1hZ2UiLz48ZGM6dGl0bGUvPjwvY2M6V29yaz48L3JkZjpSREY+PC9tZXRhZGF0YT48ZGVmcyBpZD0iZGVmczQzMTg3Ii8+PHNvZGlwb2RpOm5hbWVkdmlldyBwYWdlY29sb3I9IiNmZmZmZmYiIGJvcmRlcmNvbG9yPSIjNjY2NjY2IiBib3JkZXJvcGFjaXR5PSIxIiBvYmplY3R0b2xlcmFuY2U9IjEwIiBncmlkdG9sZXJhbmNlPSIxMCIgZ3VpZGV0b2xlcmFuY2U9IjEwIiBpbmtzY2FwZTpwYWdlb3BhY2l0eT0iMCIgaW5rc2NhcGU6cGFnZXNoYWRvdz0iMiIgaW5rc2NhcGU6d2luZG93LXdpZHRoPSIxOTIwIiBpbmtzY2FwZTp3aW5kb3ctaGVpZ2h0PSIxMDE3IiBpZD0ibmFtZWR2aWV3NDMxODUiIHNob3dncmlkPSJmYWxzZSIgZml0LW1hcmdpbi10b3A9IjAiIGZpdC1tYXJnaW4tbGVmdD0iMCIgZml0LW1hcmdpbi1yaWdodD0iMCIgZml0LW1hcmdpbi1ib3R0b209IjAiIGlua3NjYXBlOnpvb209IjEuMDMwMzAzIiBpbmtzY2FwZTpjeD0iLTYuNTU1IiBpbmtzY2FwZTpjeT0iLTI5Ni4wNyIgaW5rc2NhcGU6d2luZG93LXg9Ii04IiBpbmtzY2FwZTp3aW5kb3cteT0iLTgiIGlua3NjYXBlOndpbmRvdy1tYXhpbWl6ZWQ9IjEiIGlua3NjYXBlOmN1cnJlbnQtbGF5ZXI9IkxheWVyXzEiLz4mI3hhOyYjeGE7PGcgaWQ9Imc0MzE4MiIgdHJhbnNmb3JtPSJ0cmFuc2xhdGUoLTMwMy45MywtNzMuNTkpIj4mI3hhOwk8ZGVmcyBpZD0iZGVmczQzMTY3Ij4mI3hhOwkJPHJlY3QgaWQ9IlNWR0lEXzNfIiB4PSIzMDMuOTI5OTkiIHk9IjczLjU4OTk5NiIgd2lkdGg9IjUxLjI1IiBoZWlnaHQ9IjUxLjI1Ii8+JiN4YTsJPC9kZWZzPiYjeGE7CTxjbGlwUGF0aCBpZD0iU1ZHSURfNF8iPiYjeGE7CQk8dXNlIHhsaW5rOmhyZWY9IiNTVkdJRF8zXyIgc3R5bGU9Im92ZXJmbG93OnZpc2libGUiIGlkPSJ1c2U0MzE2OSIgeD0iMCIgeT0iMCIgd2lkdGg9IjEwMCUiIGhlaWdodD0iMTAwJSIvPiYjeGE7CTwvY2xpcFBhdGg+JiN4YTsJPGcgY2xpcC1wYXRoPSJ1cmwoI1NWR0lEXzRfKSIgaWQ9Imc0MzE4MCI+JiN4YTsJCTxkZWZzIGlkPSJkZWZzNDMxNzMiPiYjeGE7CQkJPHJlY3QgaWQ9IlNWR0lEXzVfIiB4PSIzMDMuOTI5OTkiIHk9IjczLjU4OTk5NiIgd2lkdGg9IjUxLjI1IiBoZWlnaHQ9IjUxLjI1Ii8+JiN4YTsJCTwvZGVmcz4mI3hhOwkJPGNsaXBQYXRoIGlkPSJTVkdJRF82XyI+JiN4YTsJCQk8dXNlIHhsaW5rOmhyZWY9IiNTVkdJRF81XyIgc3R5bGU9Im92ZXJmbG93OnZpc2libGUiIGlkPSJ1c2U0MzE3NSIgeD0iMCIgeT0iMCIgd2lkdGg9IjEwMCUiIGhlaWdodD0iMTAwJSIvPiYjeGE7CQk8L2NsaXBQYXRoPiYjeGE7CQk8cGF0aCBzdHlsZT0iZmlsbDojMDE3OWNiIiBkPSJtIDMwOS44NywxMDUuMDIgNi4yMywtNS42NiAtNi4yMywtNi4yMyBWIDEwNSBaIG0gMzEuNTEsMy4zIFYgODkuOTUgbCAtMTEuODksOS4xOSAxMS44Nyw5LjE3IGggMC4wMiB6IG0gLTE5LjM1LC0zLjQ0IC0xMi42LDkuNzggLTUuNSwtMi43IFYgODYuMzUgbCA1LjQ4LC0yLjc2IDEyLjUyLDkuODQgMTkuODIsLTE5Ljg0IDEzLjAzLDUuMjMgdiA0MC41OSBsIC0xMi45OCw1LjI3IHoiIGNsaXAtcGF0aD0idXJsKCNTVkdJRF82XykiIGlkPSJwYXRoNDMxNzgiIGlua3NjYXBlOmNvbm5lY3Rvci1jdXJ2YXR1cmU9IjAiLz4mI3hhOwk8L2c+JiN4YTs8L2c+JiN4YTs8L3N2Zz4=;" parent="1" vertex="1">
          <mxGeometry x="-478" y="-841.09" width="35.09" height="35.09" as="geometry" />
        </mxCell>
        <mxCell id="1fuZ47LUaq4kGTlMKida-24" value="APP" style="shape=image;verticalLabelPosition=bottom;labelBackgroundColor=default;verticalAlign=top;aspect=fixed;imageAspect=0;image=https://logodownload.org/wp-content/uploads/2017/05/microsoft-edge-logo-00.png;clipPath=inset(16.33% 17% 16% 16.67% round 49%);fontStyle=1" parent="1" vertex="1">
          <mxGeometry x="-408.94000000000005" y="-848" width="41.17" height="42" as="geometry" />
        </mxCell>
        <mxCell id="DGLbuV7ov17MJnyu4-wi-1" value="" style="rounded=0;whiteSpace=wrap;html=1;fillColor=#FFFFFF;" parent="1" vertex="1">
          <mxGeometry x="84" y="89.04" width="860" height="888.96" as="geometry" />
        </mxCell>
        <mxCell id="DGLbuV7ov17MJnyu4-wi-2" value="" style="rounded=0;whiteSpace=wrap;html=1;" parent="1" vertex="1">
          <mxGeometry x="126" y="138.1" width="741" height="790.9" as="geometry" />
        </mxCell>
        <mxCell id="DGLbuV7ov17MJnyu4-wi-3" value="" style="rounded=0;whiteSpace=wrap;html=1;" parent="1" vertex="1">
          <mxGeometry x="164.2" y="187.1" width="638.8" height="695.9" as="geometry" />
        </mxCell>
        <mxCell id="DGLbuV7ov17MJnyu4-wi-4" value="" style="image;aspect=fixed;html=1;points=[];align=center;fontSize=12;image=img/lib/azure2/other/Azure_A.svg;" parent="1" vertex="1">
          <mxGeometry x="888.9999999999999" y="107.00000000000003" width="39.24" height="37" as="geometry" />
        </mxCell>
        <mxCell id="DGLbuV7ov17MJnyu4-wi-5" value="" style="image;aspect=fixed;html=1;points=[];align=center;fontSize=12;image=img/lib/azure2/general/Resource_Groups.svg;" parent="1" vertex="1">
          <mxGeometry x="179.60999999999967" y="165.44000000000017" width="46.39" height="43.66" as="geometry" />
        </mxCell>
        <mxCell id="DGLbuV7ov17MJnyu4-wi-7" value="" style="rounded=0;whiteSpace=wrap;html=1;" parent="1" vertex="1">
          <mxGeometry x="204" y="227" width="551" height="612" as="geometry" />
        </mxCell>
        <mxCell id="DGLbuV7ov17MJnyu4-wi-8" value="" style="shape=image;verticalLabelPosition=bottom;labelBackgroundColor=default;verticalAlign=top;aspect=fixed;imageAspect=0;image=data:image/png,iVBORw0KGgoAAAANSUhEUgAAACgAAAAsCAYAAAAXb/p7AAAAAXNSR0IArs4c6QAAAARnQU1BAACxjwv8YQUAAAAJcEhZcwAAFxEAABcRAcom8z8AAAsoSURBVFhHvVkJcFXlFX6tkO1lIYQ1okhYFEVsi1tdqpY6Lu10pota22mnrQ7jjIrViiR5SR5EoCBbrai01VEQ0IIQrES2QhAihCQkIW/Nxnt5ZCM77yV5L3n33tPv3Ptf85I8slTrN/MNmdyT+3//Of9Z/ovhq8BoLpsSkWZ9MSbdtiku054XLxibbsuLSrO+nphRdVO02ZEszL8ZRGTY5sZl2lYkmR0XpmdX0TWrqillTTV9/MFLZNl7F5356Fc0d432+2Q8n7SiguIyHTWRJlu24UVPtHjN/wF/LjMmZDo+nJZdSTNX19DctS6a/5qbntm6m/yH5pFydAopRzQGDyXTqnc30o14Pg9218GeNzMhy0nGLOezhiXFMeKtXwPM5m/HZdiWTc2u8F+3pobmr3PRwg21tPjtukBBwYfNvcdmER2frPGY4NHJEDqNzh3O7Pn1tgbfLbBnsSl/uUDTX62i2ExHV3R6+a1iha8AhGRCluPYjFer6Xp44u7XPf6le5uC9e2BTrm7jpSz9xJ9Pknj2e8Tlf2MqOjBfrEnriel5TR1+YPdrx5s8z241eO7ARu8FuGfmOVQxqfZXzfspqvEamOE2RqbZHaWzEJ4bsLuH/q7R65uDfglWVZIDkLMj4nykzTafkPkbyQVfV4i93pNdB6Yv4go0Kk+avT2+Z7e3SAvWO+m2Wsu0BSzU4lKtR3hKIlVR4nU8kQcblcKXnLbRrfyxvF2b6BPUtRV5ABR5RKiMxBWAJ6Fpy5CUCg684lOzyA6CYEn8PzsfUS9reojbI8OlHrbfrClVp6DkE9dWUlRpvJzhsfG4El47gjvcOH6Wjrj6lYkSZLVtzMqnsSCE4kKwSLwXDJRl0U8FAh2EJUi5F9gA6dYJFiM0CuS+lhGFJxNAen2v3qIRU4xV0jRafZnxfLDIz7LmclZd+tGl5Jf44O7BNhz1U9poopZGDNR48Xlwkig4xA2IDysi+SQF8KTQS3cDHdrj3QvPDkbyTcx0y5HvGKZL2SER3S641auXTeuc9O6wy0tcBwOmwal+mkhDIJKwFLBMtCOc+Z3a4ZSL7z8iGbLXg4ViXArxT/FZvtUU/Zkbrmv9TsbXDLXTWO69TKXMyFnKCYjKebC5Y/+o46+PHMIi+I2QxgW0IWxqPMTiMpDaJkKTsfPINvwRgaL5DOZB5FFj2MjfvX1cILyu51NapWYhvMYbbKtFXIGAu3qkZmrq2nRJlfQUt+jbZHRU4UF5/SL04VZQCszQVD8jp+xDW+C/0YXyUnFGa9m9wxSmnLFAkTt3UF58VsXe2Yh1HGZTi9XECGrH5NWOEt5F8/vu9QrK5rzVJSmDBSnC7NBlB10CPLPTF2oLlL3JCfWaRFq9uJxZLnUpS7Bq71b0BFcsO6Cwh0nMs2SLWRpMKY5HrhmVRXdjKytb+1tV/9KR8m0geJYGKh8YSQlP2YoT4En8ewEmAcej4XX4kO8yGcR5EIu+cQiRN1+yXcfEoYTNM5k8w+ojegW/+R0f+Kdht5Q56koxdliT3DoOJTspQIs/FnklZkLHgA/Bf8dRcohY78X9bPI3SZEIOOVnEtdHMVJZocyLrX8GSHPYJiaXdnIPfacp7v/7Okog0D2nh5WPaTF8EzRMCwEC+IQVrCA7UPCLJJlsMD2rj6Ju8zV6NfGDMc7qrjo9IqrOcW/t8kddDT6tUoaAqV9v/AeqIsriSXlMHtmGB4EPwNzwSPwIJ/FkDArNau+LNw6vP6gsnhLXQ+313iTPd/w2O4Ig9HkeD4F2fOHnU09fUGpvzDr6GtCa7tzoPfOxYU/f4N5EsRZpJPwIicaF3m1Pc4j8pWJBfqBuii/nd95ed7aCzQhwy7HvGydhvPnfJtr33N7m4VZGEjIGyfGKl3gaMmbYu/rJYcFnkVrDHjEi4die5GXbuBziEE30VR1jWFiVkUOH8yl+4YRCCh99Wh16BjhhFyJgwWWpJDSeUa8MTw+KPaqsyPyghJMzlmofxVnOEFeyGkRJleCQooXL3eiU4QTE44DBE4kpe4dvKZ/7giHHRC4AAK5HiI/bjdMXlnpuhEC/zSiQA1K81YsjiwMJ2gwuSypApOQFM+NKI7xcenl4C0o2MnI5KhUyxOGKSsrG8cikJQgKQ1LwwsKpd5VUKKUigeQAVrXGAn/Kr4sL1znEgKtT6otjsfwkUM8CPW/Dy+MyeL08FY9DOORPadjQIhTnbdxkhwcTZIMATxJTS9dWRy3xaofQdvAYjwStCRxqZN2grkiBQOq/T1uc8OWmSuhdcNAYaHi4D2FNzFGcJlR251eZmJMtpe5UP92Z4MXhbpb2I0OLRBogxgmnzcmh5VbIw8YdSuF4eiAC5m8Jb+tfS4KdUKWQ4pe5kg2RKaWp8xAq/vuepdka/CP/rAwmiGQvfUF+u4pdIxQceqINhv9q0gYjwxudXdv9gS0icZx0mC2RhjQ766avLLCz7WwyNOFeX0MuASBXONOoZVhtPpSmD4DonMo7o0wHDwihUebr1fiKy5ncHSGXRsWGAmZzg/5FvfImxe7h4xbw6ERi7OgzyHwGLwYIkwdDM4twKCHiXyUWLrnUiv34aQVDnl8avkSIc9giDXZHpsB1Tywepp7xe1nFGiAQBaUh4H0KETqwgpAnlqacoThyPAHgq33bPEEObyx6TywUshlHmFOyqpo5A89f9zVKPl7xYVpJNRDIM94xyDwCM99QhgPpXz/OP8TnPyRCzR/rNhwok2aj9skl5fxyy1rhLJ+RJpsT/FciCugdP7i0LkwLC5u0sQcQWk5CIE8zjN5IFUvRxhK7VkwHH6/rV1B5a43alXvGTNt3oQXSicIWSGAS5MynZ7ZqIl34Mbv8/MFdwR4IJDFHETmHoAXWRTfN/ibDI/0eTOJOguFcXj0BeXgQ1vriM8ef6uJTretFIqGImK55Rf8/Y9bX/ZnLW2SJA1fad0QyF7KhcBP4EXxVUv5D8jfC93bhWF48MX9o+LLvptfu6DwmB9tsnYanq+MF3LCIzbdup0/jy3E3SCnrHPADXQIXJuJIIY+TSQlB51D/S4IYYfBQ2Dhk1Ax9Jqjo6w+gKtGLfF9OCHL2cXXDyFjGCwpHg9jO3+s5Kb9/tlOGZ4MfyZrNmtC9qPe7YVA/vngVNxFwFzmTFJq9wnjfrDnDtm9MovjLpZkdkoR6dY0oWBkRCwrmZtodqg3/YUb3LT5eHtnW1dwaJepgkAWshcC98CLB/Dzp4KfTAOTSal8F4b9YfAFZNpf6mtZBHFceyej50YuKy/hSiKWHx0iMW4nZjnaZyLc3GUeeNMjnXZ1d/G3FLEWsjgXYq4jZR9CmwPvsaj9YA64Dzz+KO4fbcKYqOJSoOeX2+plHuk5Y+E5ijJZ9o/p2+AA4EzEZzpr+ADzR/PbNrvlx9+vDzZ7+zp8AUlRZAyvR+/RxOjcO11jzhyi3g7qRk3t6A76l+Zc6rnrb7Xy9dgs935sPjAurfyT/12cDjRsY5ptG64GdO1q7Vs1X64Xv1nX915hu7SjsFk5v+PhXmUPRO3W2LBrkbzrpF3ZVtih/Pz9+j7uUFwZ+H8HMMFTTLq1JSrNdq9Y4etB1HLrtbHp9ko+M1zQuV6yN7i537nRKru230HKrmQK7JxJ928oUTjBWNQc1DeuCtwh4jMcfVFp1qxhvwF+NdC3Ik3WH8Zk2HdMyLIr7A2ePFjwrNWVtOutp+n2tQWqID4WLCoR58xostdEZjjWGfgi/o0B5SjSZJk9brllT1SapdSY4aBYkP+NNtlo3PLy0sg022KjuXoK24q/GiMMhv8Cpv9jUpHY0XsAAAAASUVORK5CYII=;" parent="1" vertex="1">
          <mxGeometry x="233" y="240.10000000000002" width="40" height="44" as="geometry" />
        </mxCell>
        <mxCell id="DGLbuV7ov17MJnyu4-wi-9" value="" style="rounded=0;whiteSpace=wrap;html=1;" parent="1" vertex="1">
          <mxGeometry x="244" y="304.1" width="464" height="489.9" as="geometry" />
        </mxCell>
        <mxCell id="DGLbuV7ov17MJnyu4-wi-24" value="" style="image;aspect=fixed;html=1;points=[];align=center;fontSize=12;image=img/lib/azure2/networking/Virtual_Networks.svg;" parent="1" vertex="1">
          <mxGeometry x="271" y="323.1" width="45.23" height="27" as="geometry" />
        </mxCell>
        <mxCell id="DGLbuV7ov17MJnyu4-wi-25" value="" style="rounded=0;whiteSpace=wrap;html=1;" parent="1" vertex="1">
          <mxGeometry x="281" y="363.1" width="352" height="389.9" as="geometry" />
        </mxCell>
        <mxCell id="DGLbuV7ov17MJnyu4-wi-26" value="" style="image;aspect=fixed;html=1;points=[];align=center;fontSize=12;image=img/lib/azure2/compute/Virtual_Machine.svg;" parent="1" vertex="1">
          <mxGeometry x="647.24" y="313" width="42.05" height="39" as="geometry" />
        </mxCell>
        <mxCell id="DGLbuV7ov17MJnyu4-wi-27" value="" style="image;aspect=fixed;html=1;points=[];align=center;fontSize=12;image=img/lib/azure2/networking/Subnet.svg;" parent="1" vertex="1">
          <mxGeometry x="306" y="384.1" width="45.09" height="27" as="geometry" />
        </mxCell>
        <mxCell id="DGLbuV7ov17MJnyu4-wi-38" value="" style="image;sketch=0;aspect=fixed;html=1;points=[];align=center;fontSize=12;image=img/lib/mscae/Monitor.svg;" parent="1" vertex="1">
          <mxGeometry x="292" y="241.10000000000002" width="45.88" height="45.88" as="geometry" />
        </mxCell>
        <mxCell id="DGLbuV7ov17MJnyu4-wi-42" value="" style="image;aspect=fixed;html=1;points=[];align=center;fontSize=12;image=img/lib/azure2/devops/Application_Insights.svg;" parent="1" vertex="1">
          <mxGeometry x="355.96000000000004" y="241.10000000000002" width="32.12" height="46" as="geometry" />
        </mxCell>
        <mxCell id="DGLbuV7ov17MJnyu4-wi-45" value="" style="image;aspect=fixed;html=1;points=[];align=center;fontSize=12;image=img/lib/azure2/identity/Azure_Active_Directory.svg;" parent="1" vertex="1">
          <mxGeometry x="813" y="157.99999999999997" width="45.94" height="42" as="geometry" />
        </mxCell>
        <mxCell id="DGLbuV7ov17MJnyu4-wi-66" value="" style="rounded=0;whiteSpace=wrap;html=1;" parent="1" vertex="1">
          <mxGeometry x="320.23" y="425" width="260.77" height="285" as="geometry" />
        </mxCell>
        <mxCell id="DGLbuV7ov17MJnyu4-wi-67" value="" style="image;aspect=fixed;html=1;points=[];align=center;fontSize=12;image=img/lib/azure2/networking/Private_Endpoint.svg;" parent="1" vertex="1">
          <mxGeometry x="339" y="439" width="58.91" height="54" as="geometry" />
        </mxCell>
        <mxCell id="DGLbuV7ov17MJnyu4-wi-68" value="" style="rounded=0;whiteSpace=wrap;html=1;" parent="1" vertex="1">
          <mxGeometry x="368" y="513" width="160" height="153" as="geometry" />
        </mxCell>
        <mxCell id="DGLbuV7ov17MJnyu4-wi-71" value="" style="edgeStyle=orthogonalEdgeStyle;rounded=0;orthogonalLoop=1;jettySize=auto;html=1;fillColor=#FF0000;strokeColor=#FF0000;" parent="1" source="DGLbuV7ov17MJnyu4-wi-69" target="A0nYaDOjtjgqWgvlFO7J-142" edge="1">
          <mxGeometry relative="1" as="geometry">
            <mxPoint x="1173" y="-133" as="targetPoint" />
            <Array as="points">
              <mxPoint x="1110" y="590" />
              <mxPoint x="1110" y="-1010" />
              <mxPoint x="-463" y="-1010" />
            </Array>
          </mxGeometry>
        </mxCell>
        <mxCell id="DGLbuV7ov17MJnyu4-wi-69" value="" style="shape=image;verticalLabelPosition=bottom;labelBackgroundColor=default;verticalAlign=top;aspect=fixed;imageAspect=0;image=https://brandlogos.net/wp-content/uploads/2022/08/microsoft_intune-logo_brandlogos.net_6p2c7-512x512.png;" parent="1" vertex="1">
          <mxGeometry x="406.53" y="549" width="82.4" height="82.4" as="geometry" />
        </mxCell>
        <mxCell id="o8NhPEG-I7pwkK3t7siS-1" value="" style="rounded=0;whiteSpace=wrap;html=1;" parent="1" vertex="1">
          <mxGeometry x="30" y="-563" width="205" height="324" as="geometry" />
        </mxCell>
        <mxCell id="o8NhPEG-I7pwkK3t7siS-2" value="" style="shape=image;verticalLabelPosition=bottom;labelBackgroundColor=default;verticalAlign=top;aspect=fixed;imageAspect=0;image=https://cdn3.iconfinder.com/data/icons/design-thinking-96/24/project_management_report_setting_business_and_finance_document_gear_cog-512.png;clipPath=inset(5% 5% 5.33% 4.67%);" parent="1" vertex="1">
          <mxGeometry x="162.57" y="-344" width="32.26" height="32" as="geometry" />
        </mxCell>
        <mxCell id="o8NhPEG-I7pwkK3t7siS-3" value="" style="rounded=0;whiteSpace=wrap;html=1;fillColor=#FFFFFF;" parent="1" vertex="1">
          <mxGeometry x="50" y="-540.41" width="160" height="98.41" as="geometry" />
        </mxCell>
        <mxCell id="o8NhPEG-I7pwkK3t7siS-4" value="" style="dashed=0;outlineConnect=0;html=1;align=center;labelPosition=center;verticalLabelPosition=bottom;verticalAlign=top;shape=mxgraph.weblogos.html5" parent="1" vertex="1">
          <mxGeometry x="119.5" y="-515.1200000000001" width="30" height="36.66" as="geometry" />
        </mxCell>
        <mxCell id="o8NhPEG-I7pwkK3t7siS-5" value="" style="shape=image;verticalLabelPosition=bottom;labelBackgroundColor=default;verticalAlign=top;aspect=fixed;imageAspect=0;image=https://www.kindpng.com/picc/m/464-4640184_css3-png-download-css-icon-transparent-png.png;clipPath=inset(4% 7.95% 3.67% 8.3%);" parent="1" vertex="1">
          <mxGeometry x="75" y="-509.19999999999993" width="25.81" height="30.16" as="geometry" />
        </mxCell>
        <mxCell id="o8NhPEG-I7pwkK3t7siS-6" value="Form" style="shape=image;verticalLabelPosition=bottom;labelBackgroundColor=default;verticalAlign=top;aspect=fixed;imageAspect=0;image=https://static.vecteezy.com/system/resources/previews/027/127/463/original/javascript-logo-javascript-icon-transparent-free-png.png;clipPath=inset(11.33% 16.33% 12.33% 16%);fontStyle=1" parent="1" vertex="1">
          <mxGeometry x="167.01" y="-511.5799999999999" width="27.99" height="31.58" as="geometry" />
        </mxCell>
        <mxCell id="o8NhPEG-I7pwkK3t7siS-7" value="" style="shape=image;verticalLabelPosition=bottom;labelBackgroundColor=default;verticalAlign=top;aspect=fixed;imageAspect=0;image=https://uxwing.com/wp-content/themes/uxwing/download/file-and-folder-type/yaml-file-icon.png;" parent="1" vertex="1">
          <mxGeometry x="50" y="-292.75" width="32.06" height="34.06" as="geometry" />
        </mxCell>
        <mxCell id="o8NhPEG-I7pwkK3t7siS-8" value="" style="shape=image;verticalLabelPosition=bottom;labelBackgroundColor=default;verticalAlign=top;aspect=fixed;imageAspect=0;image=https://cdn3.iconfinder.com/data/icons/design-thinking-96/24/project_management_report_setting_business_and_finance_document_gear_cog-512.png;clipPath=inset(5% 5% 5.33% 4.67%);" parent="1" vertex="1">
          <mxGeometry x="162.57" y="-280" width="32.26" height="32" as="geometry" />
        </mxCell>
        <mxCell id="o8NhPEG-I7pwkK3t7siS-9" value="BD" style="shape=image;verticalLabelPosition=bottom;labelBackgroundColor=default;verticalAlign=top;aspect=fixed;imageAspect=0;image=https://brandlogos.net/wp-content/uploads/2021/11/postgresql-logo.png;clipPath=inset(16.67% 17.33% 18% 20.33%);fontStyle=1" parent="1" vertex="1">
          <mxGeometry x="772.75" y="-433.75" width="30.53" height="32" as="geometry" />
        </mxCell>
        <mxCell id="o8NhPEG-I7pwkK3t7siS-17" value="" style="edgeStyle=orthogonalEdgeStyle;rounded=0;orthogonalLoop=1;jettySize=auto;html=1;strokeColor=#FF0000;" parent="1" source="o8NhPEG-I7pwkK3t7siS-10" target="o8NhPEG-I7pwkK3t7siS-11" edge="1">
          <mxGeometry relative="1" as="geometry">
            <mxPoint x="1253.17" y="-594" as="targetPoint" />
            <Array as="points">
              <mxPoint x="1061" y="-150.44000000000005" />
              <mxPoint x="1061" y="-625" />
            </Array>
          </mxGeometry>
        </mxCell>
        <mxCell id="o8NhPEG-I7pwkK3t7siS-10" value="" style="shape=image;verticalLabelPosition=bottom;labelBackgroundColor=default;verticalAlign=top;aspect=fixed;imageAspect=0;image=https://mvallim.github.io/kubernetes-under-the-hood/documentation/images/metallb-logo.png;clipPath=inset(15.17% 75% 17.42% 6% round 49%);" parent="1" vertex="1">
          <mxGeometry x="979" y="-169.44" width="36.1" height="38" as="geometry" />
        </mxCell>
        <mxCell id="o8NhPEG-I7pwkK3t7siS-19" value="" style="edgeStyle=orthogonalEdgeStyle;rounded=0;orthogonalLoop=1;jettySize=auto;html=1;strokeColor=#9933FF;" parent="1" source="o8NhPEG-I7pwkK3t7siS-11" target="o8NhPEG-I7pwkK3t7siS-12" edge="1">
          <mxGeometry relative="1" as="geometry">
            <mxPoint x="1169.79" y="-868" as="targetPoint" />
            <Array as="points">
              <mxPoint x="994" y="-868" />
            </Array>
          </mxGeometry>
        </mxCell>
        <mxCell id="o8NhPEG-I7pwkK3t7siS-11" value="&lt;b&gt;Orchest&lt;/b&gt;" style="image;sketch=0;aspect=fixed;html=1;points=[];align=center;fontSize=12;image=img/lib/mscae/Kubernetes.svg;" parent="1" vertex="1">
          <mxGeometry x="977" y="-644" width="39.58" height="38" as="geometry" />
        </mxCell>
        <mxCell id="o8NhPEG-I7pwkK3t7siS-26" value="" style="edgeStyle=orthogonalEdgeStyle;rounded=0;orthogonalLoop=1;jettySize=auto;html=1;strokeColor=#009900;" parent="1" source="o8NhPEG-I7pwkK3t7siS-12" target="1fuZ47LUaq4kGTlMKida-20" edge="1">
          <mxGeometry relative="1" as="geometry">
            <mxPoint x="-430" y="-935" as="targetPoint" />
            <Array as="points">
              <mxPoint x="-432" y="-978" />
            </Array>
          </mxGeometry>
        </mxCell>
        <mxCell id="o8NhPEG-I7pwkK3t7siS-12" value="" style="shape=image;verticalLabelPosition=bottom;labelBackgroundColor=default;verticalAlign=top;aspect=fixed;imageAspect=0;image=https://d0.awsstatic.com/partner-network/partner-logos/600x400_Dynatrace_Logo.png;clipPath=inset(26% 41% 43% 39.67%);" parent="1" vertex="1">
          <mxGeometry x="973" y="-1000" width="43.02" height="46" as="geometry" />
        </mxCell>
        <mxCell id="o8NhPEG-I7pwkK3t7siS-21" value="" style="edgeStyle=orthogonalEdgeStyle;rounded=0;orthogonalLoop=1;jettySize=auto;html=1;strokeColor=#009900;" parent="1" source="o8NhPEG-I7pwkK3t7siS-13" target="o8NhPEG-I7pwkK3t7siS-11" edge="1">
          <mxGeometry relative="1" as="geometry">
            <mxPoint x="1007.1499999999996" y="-618" as="targetPoint" />
            <Array as="points">
              <mxPoint x="950" y="-620" />
              <mxPoint x="950" y="-620" />
            </Array>
          </mxGeometry>
        </mxCell>
        <mxCell id="o8NhPEG-I7pwkK3t7siS-13" value="" style="shape=image;verticalLabelPosition=bottom;labelBackgroundColor=default;verticalAlign=top;aspect=fixed;imageAspect=0;image=https://www.civo.com/assets/public/developers/icons/pulumi-icon-33745961ed512997b163f4414fd7f6ba4953d4af48cff30b2a7735430549da1c.png;clipPath=inset(20.5% 22% 21% 22.5%);" parent="1" vertex="1">
          <mxGeometry x="893" y="-635" width="34.15" height="36" as="geometry" />
        </mxCell>
        <mxCell id="o8NhPEG-I7pwkK3t7siS-22" value="" style="edgeStyle=orthogonalEdgeStyle;rounded=0;orthogonalLoop=1;jettySize=auto;html=1;strokeColor=#009900;" parent="1" source="o8NhPEG-I7pwkK3t7siS-14" target="o8NhPEG-I7pwkK3t7siS-13" edge="1">
          <mxGeometry relative="1" as="geometry" />
        </mxCell>
        <mxCell id="o8NhPEG-I7pwkK3t7siS-14" value="" style="shape=image;verticalLabelPosition=bottom;labelBackgroundColor=default;verticalAlign=top;aspect=fixed;imageAspect=0;image=https://www.svgrepo.com/download/353929/jenkins.svg;clipPath=inset(0% 20% 16% 19.33%);" parent="1" vertex="1">
          <mxGeometry x="768.32" y="-644" width="39" height="54" as="geometry" />
        </mxCell>
        <mxCell id="o8NhPEG-I7pwkK3t7siS-15" value="" style="shape=image;verticalLabelPosition=bottom;labelBackgroundColor=default;verticalAlign=top;aspect=fixed;imageAspect=0;image=https://forwardsecurity.com/wp-content/uploads/2021/01/owasp-zap-logo.png;clipPath=inset(0% 15% 0% 17% round 49%);" parent="1" vertex="1">
          <mxGeometry x="-775.61" y="-274" width="61.67" height="52" as="geometry" />
        </mxCell>
        <mxCell id="RExAQEr4o9LG04hAXSNV-4" value="" style="edgeStyle=orthogonalEdgeStyle;rounded=0;orthogonalLoop=1;jettySize=auto;html=1;strokeColor=#009900;" edge="1" parent="1" source="RExAQEr4o9LG04hAXSNV-1" target="o8NhPEG-I7pwkK3t7siS-1">
          <mxGeometry relative="1" as="geometry">
            <mxPoint x="341.52" y="-349.53" as="targetPoint" />
            <Array as="points">
              <mxPoint x="351" y="-341" />
              <mxPoint x="351" y="-341" />
            </Array>
          </mxGeometry>
        </mxCell>
        <mxCell id="RExAQEr4o9LG04hAXSNV-1" value="" style="shape=image;verticalLabelPosition=bottom;labelBackgroundColor=default;verticalAlign=top;aspect=fixed;imageAspect=0;image=https://ovidio.us/images/technologies/tec22.png;clipPath=inset(26.67% 6.67% 38% 6.33%);" vertex="1" parent="1">
          <mxGeometry x="421.52" y="-368" width="90.96" height="36.94" as="geometry" />
        </mxCell>
      </root>
    </mxGraphModel>
  </diagram>
</mxfile>
